<svg width="444" height="448" viewBox="0 0 444 448" fill="none" xmlns="http://www.w3.org/2000/svg">
<path d="M325.364 43.5795C349.373 67.1855 371.474 95.4312 381.99 114.61C369.018 120.558 356.941 127.622 345.912 135.813C336.827 122.509 319.971 99.9555 302.805 80.2988C294.129 70.3642 285.364 61.1586 277.478 54.2591C273.534 50.8095 269.802 47.9284 266.402 45.8199C263.01 43.7161 259.913 42.3581 257.246 41.9974L257.179 41.9883L257.112 41.9974C254.35 42.371 251.124 43.8151 247.586 46.0518C244.039 48.2937 240.139 51.3573 236.022 55.0165C227.786 62.3353 218.645 72.069 209.673 82.4646C191.947 103.004 174.842 126.17 166.626 138.512C155.854 130.1 144.025 122.805 131.287 116.626C141.134 97.7855 163.341 69.0422 187.709 44.8486C199.988 32.6571 212.801 21.6365 224.838 13.6279C236.889 5.61029 248.094 0.658788 257.179 0.500076C266.105 0.656104 277.079 5.43883 288.892 13.2126C300.692 20.9778 313.263 31.6821 325.364 43.5795ZM508.499 138.37V138.87H508.5V546.972V572.471V590.5H370.195V572.471V546.972V212.964C382.627 201.677 396.999 192.517 413.003 185.547V546.972V547.472H413.503H465.191H465.691V546.972V153.89V153.318L465.125 153.394C422.366 159.151 386.162 176.182 360.293 203.95C334.422 231.72 318.923 270.188 317.507 318.751L317.507 318.758V318.765V546.972V572.471V590.5H191.493V572.471V546.972V318.765V318.758L191.493 318.751C190.076 270.188 174.577 231.72 148.706 203.95C122.837 176.182 86.634 159.151 43.8753 153.394L43.3086 153.318V153.89V546.972V547.472H43.8086H95.497H95.997V546.972V185.547C112.001 192.516 126.375 201.68 138.806 212.965V546.972V572.471V590.5H0.5V572.471V546.972V151.88V138.37V116.594C0.5 113.923 0.911231 112.357 1.83584 111.431C2.76024 110.505 4.32358 110.093 6.99258 110.093H6.99437C72.8683 109.858 130.898 127.268 171.848 162.091C212.785 196.902 236.707 249.16 234.302 318.748L234.301 318.757V318.765V546.972V547.472H234.801H274.198H274.698V546.972V318.765V318.757L274.697 318.748C272.292 249.16 296.215 196.902 337.151 162.091C378.101 127.268 436.131 109.858 502.005 110.093H502.007C504.675 110.093 506.239 110.505 507.163 111.431C508.087 112.357 508.499 113.923 508.499 116.594V138.37Z" stroke="white"/>
</svg>
