<svg width="359" height="251" viewBox="0 0 359 251" fill="none" xmlns="http://www.w3.org/2000/svg">
<path d="M175.364 -296.421C199.373 -272.815 221.474 -244.569 231.99 -225.39C219.018 -219.442 206.941 -212.378 195.912 -204.187C186.827 -217.491 169.971 -240.045 152.805 -259.701C144.129 -269.636 135.364 -278.841 127.478 -285.741C123.534 -289.191 119.802 -292.072 116.402 -294.18C113.01 -296.284 109.913 -297.642 107.246 -298.003L107.179 -298.012L107.112 -298.003C104.35 -297.629 101.124 -296.185 97.5859 -293.948C94.0393 -291.706 90.1392 -288.643 86.0217 -284.984C77.7863 -277.665 68.6453 -267.931 59.6731 -257.535C41.9465 -236.996 24.8419 -213.83 16.6261 -201.488C5.85381 -209.9 -5.97545 -217.195 -18.713 -223.374C-8.86598 -242.214 13.3412 -270.958 37.709 -295.151C49.9882 -307.343 62.8006 -318.364 74.838 -326.372C86.8889 -334.39 98.094 -339.341 107.179 -339.5C116.105 -339.344 127.079 -334.561 138.892 -326.787C150.692 -319.022 163.263 -308.318 175.364 -296.421ZM358.499 -201.63V-201.13H358.5V206.972V232.471V250.5H220.195V232.471V206.972V-127.036C232.627 -138.323 246.999 -147.483 263.003 -154.453V206.972V207.472H263.503H315.191H315.691V206.972V-186.11V-186.682L315.125 -186.606C272.366 -180.849 236.162 -163.818 210.293 -136.05C184.422 -108.28 168.923 -69.8115 167.507 -21.2492L167.507 -21.2419V-21.2346V206.972V232.471V250.5H41.4927V232.471V206.972V-21.2346V-21.2419L41.4925 -21.2492C40.0757 -69.8115 24.5769 -108.28 -1.29413 -136.05C-27.163 -163.818 -63.366 -180.849 -106.125 -186.606L-106.691 -186.682V-186.11V206.972V207.472H-106.191H-54.503H-54.003V206.972V-154.453C-37.9986 -147.484 -23.6254 -138.32 -11.1944 -127.035V206.972V232.471V250.5H-149.5V232.471V206.972V-188.12V-201.63V-223.406C-149.5 -226.077 -149.089 -227.643 -148.164 -228.569C-147.24 -229.495 -145.676 -229.907 -143.007 -229.907H-143.006C-77.1317 -230.142 -19.1021 -212.732 21.8482 -177.909C62.7845 -143.098 86.7075 -90.8401 84.3017 -21.2519L84.3013 -21.2433V-21.2346V206.972V207.472H84.8013H124.198H124.698V206.972V-21.2346V-21.2433L124.697 -21.2519C122.292 -90.8401 146.215 -143.098 187.151 -177.909C228.101 -212.732 286.131 -230.142 352.005 -229.907H352.007C354.675 -229.907 356.239 -229.495 357.163 -228.569C358.087 -227.643 358.499 -226.077 358.499 -223.406V-201.63Z" stroke="white"/>
</svg>
