<svg width="204" height="212" viewBox="0 0 204 212" fill="none" xmlns="http://www.w3.org/2000/svg">
<path d="M199.901 45.6823C194.458 42.3947 188.638 40.2531 182.03 41.5941C179.005 42.2078 175.916 42.767 172.844 42.8375C163.693 43.0474 155.162 44.4065 146.772 49.0224C138.929 53.3383 131.767 58.0583 125.779 64.6248C126.448 66.3182 126.247 67.9205 124.934 69.1861C124.47 69.6336 123.148 69.4361 122.947 69.8702C122.131 71.6368 121.598 73.5346 120.882 75.6098C121.713 75.3166 122.658 75.2859 122.977 74.8235C125.807 70.7252 130.196 67.7746 131.76 62.7302C132.397 60.6792 133.984 59.6862 136.338 59.9058C135.589 62.0709 134.856 64.1907 134.122 66.3105C138.27 63.8154 141.594 60.6601 142.237 56.0192C144.475 55.2297 146.231 54.6103 147.613 54.1227C146.619 56.4437 145.628 58.7561 144.638 61.0685C143.524 61.4638 142.132 61.6088 142.459 63.2979C143.57 62.9552 145.075 63.0245 144.655 61.0773C150.038 59.0538 151.237 52.9225 156.678 48.407C155.589 51.0418 155.14 52.0059 154.791 53.005C154.416 54.0795 154.136 55.1871 153.814 56.2802C153.179 56.9894 152.543 57.6989 151.908 58.4082C152.955 58.129 154.261 58.1219 153.83 56.2882C156.535 55.9668 156.814 53.488 157.903 51.7217C159.658 48.8753 160.053 48.7152 163.804 49.638C163.812 49.6795 163.81 49.7116 163.817 49.7514C163.886 49.732 163.954 49.7122 164.021 49.6909L163.798 49.5769C165.861 47.9977 167.433 44.9389 170.755 47.1481C172.781 47.172 174.585 44.4642 176.783 46.5824C180.976 44.5858 185.106 46.9566 189.273 46.7831C189.323 46.4418 189.373 46.1007 189.422 45.7593C189.812 45.9502 190.202 46.141 190.592 46.3317C191.749 46.3386 192.933 46.1887 194.059 46.3821C197.606 46.992 198.426 49.9655 198.939 52.7875C199.516 55.9623 196.915 56.6878 194.577 57.4626C194.189 57.5912 193.921 58.0938 193.623 58.4453C193.609 58.4616 193.847 58.6913 193.968 58.8219C194.789 58.9077 195.608 58.9937 196.519 59.0892C195.655 62.3357 193.838 64.2468 190.711 65.1124C188.136 65.8253 185.671 66.9381 182.861 67.9839C186.095 70.9798 187.511 65.8315 190.275 67.627C188.454 69.37 186.943 71.7077 184.816 72.6334C182.003 73.8576 181.391 76.7766 179.184 78.2428C178.055 78.9926 176.675 79.7646 175.511 78.1834C174.005 79.2482 172.524 81.1308 170.99 81.1741C166.195 81.3101 164.487 84.2404 162.996 88.0305C162.645 88.9235 160.815 89.2349 159.174 90.0614C159.878 88.0654 160.324 86.8002 160.794 85.4686C155.859 85.1185 157.845 92.4642 153.029 91.9895C152.788 91.1189 152.57 90.3329 152.25 89.1791C149.96 91.8571 148.093 94.0407 146.234 96.2156C146.239 96.1788 146.244 96.1407 146.25 96.1041C144.69 96.3096 143.194 98.3351 141.56 96.3933C139.232 97.0041 137.874 100.169 134.783 98.9565C134.491 98.8419 133.68 99.7235 133.279 100.267C131.28 102.984 128.265 103.311 125.474 102.861C122.191 102.331 122.048 104.108 121.902 106.258C124.028 104.805 125.075 106.654 126.46 107.981C128.505 106.642 130.556 105.299 132.698 103.898C133.714 105.386 134.444 106.455 134.886 107.101C136.995 106.695 137.866 103.192 140.344 106.007C141.867 105.966 143.421 103.684 144.909 106.078C144.925 106.078 144.942 106.078 144.958 106.078C144.417 108.515 144.494 108.46 146.817 108.84C148.502 109.116 149.85 109.991 150.216 111.844C152.199 111.695 153.974 109.032 156.155 111.293C158.781 110.595 161.425 109.606 163.88 111.709C162.916 112.585 162.399 114.21 160.349 113.25C159.598 112.899 158.279 113.76 157.199 114.111C158.258 116.078 161.784 115.483 161.963 118.365C162.86 117.589 163.756 116.814 164.624 116.064C164.839 116.252 167.702 118.764 168.276 119.267C168.157 116.631 170.582 117.376 171.965 116.736C173.089 118.68 172.348 119.801 170.387 120.384C171.108 121.107 171.829 121.831 172.55 122.555C173.448 122.238 174.346 121.921 175.243 121.604C175.03 120.773 174.809 119.911 174.427 118.42C176.747 119.521 179.488 119.433 177.221 122.522C177.383 122.97 177.545 123.418 177.706 123.865C178.601 123.595 179.496 123.325 180.391 123.055C180.751 123.905 181.111 124.755 181.47 125.604C182.568 125.283 183.677 124.959 185.047 124.559C186.313 126.091 187.61 127.662 188.907 129.233C189.285 129.264 189.663 129.296 190.04 129.326C189.831 129.747 189.622 130.168 189.413 130.589C194.726 132.901 198.971 136.313 201.129 141.9C201.813 143.67 202.563 145.415 203.283 147.172C201.645 135.26 196.001 125.585 186.493 118.425C181.503 114.666 176.071 111.472 170.706 108.242C166.665 105.81 162.414 103.727 158.36 101.544C168.035 95.759 178.099 89.4148 186.172 80.4946C190.03 76.2326 193.705 71.8062 197.515 67.5005C200.811 63.7766 202.893 59.4927 203.455 54.5628C203.858 51.0295 203.086 47.6054 199.901 45.6823ZM145.796 106.77C145.592 106.538 145.389 106.307 145.185 106.076C145.493 106.073 145.801 106.07 146.109 106.068C146.005 106.302 145.9 106.536 145.796 106.77ZM181.228 122.175C181.007 122.353 180.786 122.531 180.566 122.709C180.579 122.408 180.593 122.108 180.607 121.808C180.814 121.93 181.021 122.053 181.228 122.175ZM172.032 116.442C171.915 116.104 171.798 115.767 171.681 115.43C172.04 115.561 172.398 115.692 172.756 115.824C172.515 116.03 172.273 116.236 172.032 116.442ZM170.576 114.375C170.801 114.625 171.026 114.875 171.252 115.124C170.932 115.142 170.612 115.159 170.292 115.177C170.387 114.909 170.481 114.642 170.576 114.375ZM167.661 114.494C165.397 114.843 164.536 113.569 164.153 111.73C166.699 110.786 167.896 111.657 167.661 114.494ZM145.778 99.3856C145.972 98.0358 146.097 97.1638 146.217 96.3279C148.021 95.9279 147.908 97.5009 148.385 98.4661C147.594 98.7449 146.788 99.0292 145.778 99.3856ZM148.472 105.785C148.572 105.563 148.672 105.342 148.772 105.12C148.969 105.341 149.165 105.563 149.362 105.784C149.065 105.784 148.769 105.785 148.472 105.785ZM149.751 105.944C150.501 105.739 151.301 105.521 152.718 105.134C151.395 106.847 150.63 107.424 149.751 105.944ZM154.854 106.645C154.963 106.388 155.071 106.132 155.18 105.876C155.4 106.118 155.62 106.361 155.84 106.604C155.511 106.618 155.182 106.631 154.854 106.645ZM156.847 107.471C156.672 107.256 156.496 107.041 156.321 106.827C156.609 106.84 156.898 106.853 157.186 106.866C157.073 107.068 156.96 107.269 156.847 107.471ZM155.053 97.3017C154.999 97.346 154.421 96.7518 154.087 96.4553C151.827 97.6476 152.278 102.324 148.237 101.093C148.351 100.232 148.467 99.3588 148.582 98.4854C149.421 97.2407 150.129 95.8607 151.185 94.8414C152.216 93.8468 153.649 92.3359 154.907 94.7881C156.755 93.1322 158.204 90.7012 161.376 91.4594C160.721 95.0188 157.257 95.494 155.053 97.3017ZM165.529 88.4514C166.211 88.0504 166.893 87.6494 167.575 87.2486C167.154 87.8925 166.732 88.5366 166.311 89.1805C166.051 88.9375 165.79 88.6944 165.529 88.4514ZM167.807 87.0065C166.292 83.9968 168.619 83.8301 170.626 82.8566C170.905 85.5805 169.779 86.6313 167.807 87.0065ZM175.146 82.4112C174.411 82.6705 173.676 82.9297 172.941 83.189C172.879 83.0126 172.817 82.8361 172.755 82.6597C173.49 82.4005 174.225 82.1412 174.96 81.8819C175.022 82.0583 175.084 82.2348 175.146 82.4112ZM189.336 46.7824C189.373 46.8263 189.41 46.8701 189.447 46.914C189.379 46.9373 189.312 46.9605 189.244 46.9836L189.312 46.8353C189.285 46.895 189.244 46.9836 189.244 46.9837C189.254 46.9168 189.264 46.85 189.273 46.7831C189.294 46.7823 189.315 46.7834 189.336 46.7824ZM156.217 111.352C156.2 111.388 156.183 111.425 156.166 111.462C156.147 111.41 156.129 111.358 156.11 111.306C156.125 111.302 156.14 111.297 156.155 111.293C156.176 111.315 156.196 111.329 156.217 111.352ZM108.961 188.567C108.936 188.595 108.91 188.622 108.885 188.649C108.869 188.601 108.853 188.553 108.837 188.505C108.885 188.512 108.933 188.519 108.981 188.525C108.975 188.539 108.968 188.553 108.961 188.567ZM118.962 155.478L118.849 155.427C118.916 155.435 118.982 155.443 119.049 155.452C119.058 155.477 119.067 155.503 119.076 155.529L118.962 155.478ZM192.707 152.798C195.531 152.698 198.346 152.321 201.822 152.006C195.399 156.072 188.715 157.384 181.92 157.342C168.739 157.26 155.686 155.804 143.102 151.52C138.098 149.816 132.903 148.536 128.788 144.851C127.997 144.143 126.737 143.959 124.939 143.227C125.882 153.765 124.88 163.422 123.439 173.014C121.349 186.924 114.457 198.203 103.656 207.089C102.487 208.051 100.664 208.219 99.0569 208.786C101.889 205.063 104.535 201.586 107.156 198.141C106.489 197.297 105.939 196.6 105.388 195.903L105.268 196.148C105.231 196.041 105.193 195.933 105.156 195.825C105.232 195.851 105.309 195.877 105.386 195.902C105.646 195.358 105.907 194.813 106.167 194.269C108.39 193.63 109.393 192.09 109.439 189.845C109.648 189.457 109.856 189.069 110.064 188.681C109.703 188.629 109.342 188.577 108.981 188.525C110.166 186.028 111.394 183.55 112.521 181.026C113.475 178.889 114.115 176.59 115.25 174.562C116.398 172.513 113.844 172.559 113.733 171.327C115.761 169.41 118.123 167.6 116.021 164.372C118.862 162.938 119.09 162.379 118.628 158.631C118.929 158.008 119.229 157.384 119.53 156.76L119.404 157.011C119.382 156.949 119.361 156.888 119.339 156.826C119.401 156.805 119.462 156.784 119.524 156.763C119.713 156.37 119.902 155.976 120.092 155.583C119.744 155.539 119.396 155.495 119.049 155.452C118.895 155.009 118.741 154.567 118.588 154.124C121.056 152.278 121.019 152.209 118.925 149.203C118.4 149.679 117.72 150.054 117.419 150.628C117.009 151.407 116.848 152.316 116.599 153.18C115.397 154.121 114.195 155.062 112.994 156.004C112.92 153.624 113.629 151.652 115.278 149.771C115.964 148.987 115.568 147.254 115.604 145.901C116.848 145.462 118.094 145.022 119.476 144.535C119.588 145.592 119.667 146.342 119.746 147.092C122.026 144.917 122.092 144.24 120.237 141.085C123.89 137.422 124.154 137.225 127.507 140.16C131.825 143.94 136.967 145.728 142.275 147.153C155.98 150.833 170.006 152.253 184.152 152.667C187.003 152.751 189.86 152.899 192.707 152.798ZM115.94 164.239C115.971 164.284 115.992 164.327 116.021 164.372C115.956 164.405 115.896 164.436 115.828 164.471C115.808 164.414 115.788 164.357 115.769 164.3C115.826 164.279 115.883 164.259 115.939 164.239C115.939 164.239 115.933 164.253 115.923 164.273L115.94 164.239ZM124.119 93.3703C129.8 95.8689 126.369 89.3751 128.865 88.6571C131.903 90.5088 131.903 90.5088 129.861 93.9011C131.104 93.5443 132.207 93.5405 132.831 92.9923C135.008 91.0767 136.559 88.2551 140.268 88.9073C140.649 88.9741 142.054 85.9667 141.908 85.8601C139.95 84.4318 141.269 82.8015 142.184 82.3948C143.067 82.0025 144.555 82.9731 145.987 83.409C147.278 81.7683 147.736 79.78 145.347 78.1694C143.153 76.6905 141.287 77.3476 139.755 79.4601C138.507 81.1808 137.093 82.7813 135.366 84.9125C133.065 82.868 130.438 82.7273 127.553 84.0568C124.293 85.5592 124.37 88.8077 123.353 91.3023C120.812 90.7754 118.425 90.2806 116.04 89.7862C116.022 89.7635 116.004 89.7407 115.986 89.7179C115.94 89.7256 115.899 89.7402 115.852 89.7473L116.105 89.8681C114.328 91.0066 112.55 92.1449 111.654 92.7188C108.086 91.7522 105.357 91.0128 102.582 90.261C103.028 87.1122 105.912 87.0542 110.405 87.3084C107.459 84.8008 105.898 83.4717 104.284 82.0979C104.668 81.2209 105.15 80.1178 105.667 78.9364C104.424 78.1658 103.27 77.4507 102.097 76.7234C104.298 74.2717 104.231 72.735 101.989 72.1426C99.066 71.3707 96.5041 73.6401 97.4054 76.5225C98.017 78.4786 99.4087 80.1908 100.5 82.0973C95.1598 88.5754 96.827 88.7499 99.3207 94.6319C99.6495 95.4075 100.614 95.9136 101.313 96.5322C103.558 97.1177 105.797 97.7012 107.671 98.1896C108.63 99.8774 109.43 101.284 110.439 103.06C113.112 101.663 115.755 100.805 117.612 99.0942C118.565 98.2157 118.114 95.8137 118.292 94.1486C121.492 94.5921 121.103 96.7888 120.85 98.9183C123.972 98.3683 123.981 95.8746 124.119 93.3703ZM113.373 99.1109C113.011 98.9571 113.016 97.9353 112.766 96.9478C113.975 97.5598 114.821 97.9879 116.867 99.0232C114.874 99.1214 114.011 99.3815 113.373 99.1109ZM125.759 64.5676C125.767 64.5868 125.771 64.6055 125.779 64.6248C125.751 64.655 125.721 64.6823 125.694 64.7127C125.693 64.7093 125.693 64.7062 125.692 64.7028C125.713 64.6556 125.738 64.6177 125.759 64.5676ZM125.692 64.7028C124.547 67.1984 121.983 65.6148 120.263 66.4549C120.101 66.0034 119.94 65.5518 119.779 65.1002L119.659 65.3449C119.625 65.2803 119.593 65.2127 119.564 65.1431C119.632 65.1306 119.698 65.1203 119.772 65.1015C120.91 62.8293 120.321 61.1931 117.825 59.725C117.785 59.7194 117.742 59.7135 117.702 59.708C117.704 59.6885 117.706 59.6692 117.709 59.6499L117.838 59.7267C116.652 57.5215 117.181 54.2763 113.997 53.2822C113.833 51.4457 113.817 49.5757 113.415 47.7928C113.289 47.2349 112.118 46.9127 111.425 46.4826C111.164 47.0578 110.903 47.633 110.641 48.2081C110.198 48.3575 109.754 48.5066 109.31 48.6562C109.402 46.7511 109.494 44.8392 109.607 42.4789C108.872 42.0247 107.629 41.2577 106.373 40.4818C106.346 40.4949 106.325 40.5087 106.3 40.5219C106.286 40.485 106.271 40.4477 106.257 40.4106L106.395 40.4695C105.763 38.6572 105.13 36.8449 104.498 35.0326C105.318 35.0614 106.141 35.0904 107.038 35.1217C107.029 32.3517 105.774 30.8309 103.01 30.7357C102.953 27.1314 101.557 25.7759 98.2766 26.1447C96.9058 23.2172 95.5345 20.2885 94.1176 17.2626C94.6859 17.2856 95.3261 17.3118 96.7127 17.3682C91.6063 10.5276 86.7345 4.22309 78.7691 0.635513C79.9625 0.696059 81.2413 0.499149 82.3347 0.861263C87.2575 2.49174 91.3995 5.36593 94.7734 9.29949C102.206 17.9652 109.361 26.8206 114.591 37.0753C117.076 41.946 119.866 46.6607 122.498 51.4568C124.759 55.5793 124.637 60.2849 125.692 64.7028ZM103.013 30.814C102.989 30.911 102.965 31.008 102.941 31.105C102.896 30.9767 102.85 30.8483 102.805 30.7199C102.878 30.7204 102.939 30.7332 103.01 30.7357C103.011 30.7626 103.013 30.7868 103.013 30.814ZM55.3845 89.3709C55.3775 89.4342 55.3703 89.4997 55.3633 89.5632C55.3303 89.5752 55.2974 89.5872 55.2645 89.5992C55.2857 89.5125 55.3056 89.4502 55.3264 89.3695C55.3458 89.3703 55.3651 89.3701 55.3845 89.3709ZM7.26277 120.396C7.41668 120.472 7.57058 120.548 7.72453 120.625C7.56861 120.553 7.41274 120.481 7.25686 120.409C0.183912 117.066 -1.08547 114.232 1.21903 107.696C2.57157 103.861 5.28803 101.04 8.28257 98.7412C11.2725 96.4454 14.8185 94.714 18.3512 93.3188C25.1356 90.6395 32.0404 88.2412 38.9829 85.9972C41.9083 85.0517 45.0422 84.704 48.1048 84.2397C55.5942 83.1049 63.0972 82.0602 71.2276 80.888C71.1295 82.8879 71.0656 84.1935 71.0016 85.4991C72.7994 85.9815 75.2889 83.887 76.4489 87.2014C76.6807 87.8637 78.931 87.8196 80.2378 88.0985C81.9836 87.0258 81.6268 83.9109 84.3953 83.8809C85.3038 86.4563 86.2123 89.0317 87.176 91.7638C88.8652 91.3718 90.1353 91.0769 91.3892 90.7859C91.7675 92.7239 90.7835 94.2412 89.0668 94.3314C86.0213 94.4919 85.5446 91.705 84.8044 89.5017C81.9593 89.6497 79.2869 91.0135 76.386 89.7299C75.2931 89.2463 73.8401 89.5766 72.5291 89.5859C72.0196 88.2243 71.51 86.8627 71.0006 85.501C69.3146 85.1441 67.7971 85.2982 66.7559 86.8972C64.4769 85.7125 62.511 85.4755 61.0634 86.3521C60.8512 86.4807 60.9675 87.1517 60.9317 87.5719C59.9708 87.8637 59.0098 88.1556 58.049 88.4474C56.2807 87.1558 55.8629 87.2883 55.3264 89.3695C50.4117 89.1742 45.5767 89.6118 41.0065 91.5504C40.4306 91.7949 40.1229 92.6714 39.731 93.3496C40.3445 93.6384 40.958 93.9273 41.5714 94.216C42.1928 94.5143 42.8143 94.8127 43.4357 95.1111C43.855 95.248 44.2744 95.3848 44.6939 95.5219C44.237 95.4706 43.78 95.4194 43.323 95.3681C42.7008 95.0706 42.0784 94.7729 41.4562 94.4754C40.8364 94.1738 40.2165 93.872 39.5968 93.5705L39.7013 93.3356C36.6883 93.6351 33.1223 92.4519 31.4217 96.2705C32.0466 96.5612 32.6714 96.8519 33.2963 97.1424C33.9159 97.4404 34.5353 97.7382 35.155 98.0362C35.2297 98.1221 35.3045 98.208 35.3791 98.2938C35.2675 98.2912 35.1559 98.2885 35.0443 98.2858C34.4271 97.9778 33.8098 97.6698 33.1925 97.3617C32.5726 97.0602 31.9527 96.7586 31.3327 96.457L31.4206 96.2701C23.0547 96.62 16.0916 100.51 9.36105 104.998C4.08967 108.513 4.08398 108.505 2.05749 113.95C3.77352 116.075 5.51822 118.235 7.26277 120.396ZM76.666 132.445C60.944 132.472 45.502 129.862 30.0066 127.862C24.5956 127.164 19.29 125.502 14.01 124.018C12.2841 123.533 10.7847 122.242 9.18512 121.306C10.0906 121.223 11.0862 120.878 11.8707 121.147C23.0233 124.977 34.4959 126.689 46.2591 127.388C57.6562 128.064 69.0001 129.636 81.0395 130.884C80.7735 136.171 80.2394 141.527 80.2914 146.878C80.3924 157.249 79.7978 167.643 80.9925 177.992C81.0007 178.063 80.7433 178.165 80.5291 178.261C74.6433 163.525 74.7195 148.266 76.666 132.445ZM71.5435 60.389C71.5627 60.4422 71.5818 60.4953 71.601 60.5483C71.5489 60.5675 71.4969 60.5866 71.4448 60.6056C71.4124 60.5783 71.3911 60.5501 71.3596 60.5227C71.4214 60.4782 71.4772 60.4328 71.5435 60.389ZM70.4989 66.1605C69.7756 64.056 69.216 62.0658 71.3596 60.5227C69.2293 58.6698 69.2323 56.6459 70.8981 54.4888C71.0498 53.4046 71.2015 52.3205 71.3532 51.2362C71.8979 50.5728 72.4503 49.9 73.28 48.8892C73.9394 50.3735 74.518 51.6758 75.0952 52.9748C77.2349 52.5912 78.0399 51.1915 76.7618 49.5007C75.2028 47.4384 73.4446 45.5787 72.9482 42.9382C69.8368 42.9933 68.5733 42.024 69.4775 40.0287C70.5451 37.673 72.1296 35.5559 73.3806 33.2755C73.6811 32.7276 73.5508 31.9434 73.6507 30.9506C71.9349 31.0304 70.4201 31.1011 69.1781 31.1589C66.7171 27.5248 70.4668 25.145 70.253 22.1514C68.9091 22.1716 68.4223 21.4517 68.4917 20.043C68.7296 15.2119 68.8993 10.3774 69.0941 5.54401C66.1975 7.60511 66.3618 10.9453 66.0159 13.8708C64.3911 27.6148 65.4745 41.3624 66.5788 55.0735C67.2312 63.1755 69.973 70.7517 73.8621 77.9053C73.0421 73.9007 71.8227 70.0126 70.4989 66.1605ZM70.6811 46.969C70.8842 48.3821 71.0811 49.7514 71.2777 51.1193C68.6003 49.163 68.6179 49.1366 70.6811 46.969ZM167.143 65.366C168.486 62.4507 171.06 62.1783 174.11 62.729C176.005 56.4621 177.366 55.7767 181.642 58.5962C184.427 54.7865 184.427 54.7865 189.708 53.7257C185.886 54.8438 185.592 59.0473 182.491 61.0395C181.313 60.7506 179.759 60.37 178.395 60.0355C175.126 63.7343 172.953 65.6463 171.875 65.6033C170.878 67.292 172.212 70.1885 169.174 70.82C167.217 67.2739 165.053 75.309 162.868 69.7857C162.267 71.7425 162.114 73.0629 161.474 74.0761C160.93 74.9371 159.836 75.9795 158.966 75.9964C157.112 76.0322 156.734 74.3104 156.927 72.878C157.399 69.3657 159.507 67.1885 163.286 67.3001C165.32 67.3602 166.29 67.2182 167.143 65.366ZM77.4413 20.8138C77.9798 19.3882 78.48 18.0638 78.985 16.7271C73.5104 12.8321 73.3192 12.0685 76.9205 7.374C77.7372 9.49393 76.2614 13.1147 80.3835 12.8023C80.9781 14.981 82.0158 17.126 80.4775 19.4416C85.8431 19.3633 85.8431 19.3633 84.9459 26.9274C86.1959 27.2223 87.4555 27.5196 89.425 27.9844C87.9494 33.8227 87.9494 33.8227 93.158 36.8227C92.6671 37.784 92.147 38.8027 91.6781 39.7211C85.8434 37.9631 85.7602 37.8311 85.8294 31.3684C83.8492 30.1246 81.3287 29.453 81.6831 26.1753C81.982 23.4109 78.9156 22.7562 77.4413 20.8138ZM136.056 115.473C136.132 117.544 136.182 118.908 136.249 120.741C139.358 120.194 142.404 120.192 144.831 123.287C144.387 126.106 143.268 127.689 140.437 127.154C140.479 126.266 140.521 125.372 140.6 123.693C136.822 125.34 133.659 122.661 129.809 123.217C130.185 121.537 130.558 119.868 131.082 117.522C128.696 118.072 126.945 118.475 125.001 118.923C124.761 118.079 124.249 117.29 124.462 116.862C125.94 113.891 127.948 112.81 130.67 113.554C132.53 114.062 134.315 114.842 136.056 115.473ZM101.238 96.6148C102.345 98.9671 103.293 101.343 102.299 104.007C102.029 104.577 101.759 105.148 101.489 105.718C101.509 105.77 101.526 105.813 101.546 105.863C101.495 105.882 101.445 105.9 101.395 105.919L101.488 105.716C99.7334 106.843 98.0024 108.011 96.2173 109.089C93.9186 110.477 91.6391 110.149 89.5523 108.653C87.2309 106.989 86.4122 104.61 87.0085 101.864C87.1017 101.435 88.1907 101.222 88.8191 100.909C88.9623 100.408 89.1054 99.9075 89.2485 99.4069C89.4386 99.494 89.6288 99.5813 89.8189 99.6683C89.5131 100.095 89.2075 100.521 88.9019 100.948C89.3564 102.045 89.8109 103.141 90.52 104.852C91.6165 103.366 92.4794 102.197 93.5576 100.736C95.0017 101.142 96.5185 101.569 98.0798 102.008C98.202 99.6337 98.1 97.1207 101.238 96.6148ZM101.185 96.4989C101.228 96.51 101.27 96.5212 101.313 96.5322C101.334 96.5512 101.358 96.5692 101.379 96.5885C101.329 96.5953 101.287 96.607 101.238 96.6148C101.22 96.5763 101.203 96.5375 101.185 96.4989ZM118.195 104.651C119.387 105.22 120.579 105.789 121.771 106.359C122.277 107.715 122.715 109.101 123.303 110.421C124.499 113.108 123.199 115.267 121.54 116.984C119.67 118.918 117.513 117.713 115.61 116.576C115.021 116.224 114.55 115.675 113.814 115.032C115.163 114.079 116.345 113.243 118.815 111.498C115.97 111.804 114.724 111.937 112.967 112.126C112.718 110.771 112.082 109.374 112.363 108.195C112.584 107.263 113.832 106.429 114.804 105.861C115.823 105.267 117.055 105.038 118.195 104.651ZM121.767 106.347C121.814 106.313 121.857 106.289 121.902 106.258C121.899 106.311 121.895 106.363 121.891 106.416C121.851 106.397 121.811 106.378 121.771 106.359C121.77 106.355 121.769 106.351 121.767 106.347ZM100.76 60.358C100.026 61.807 99.7157 63.4703 99.2297 65.0023C100.619 65.7645 101.672 66.3421 102.804 66.9627C102.989 69.2697 101.601 70.7684 99.6145 70.6154C98.2713 70.512 96.6477 69.1115 95.8552 67.8487C94.3375 65.4296 95.0743 63.2221 98.1346 61.5975C95.4123 59.8327 92.5121 58.2438 93.2295 54.6417C93.6627 52.4653 95.2987 51.5104 97.7751 51.7664C97.3293 53.0639 96.9 54.3132 96.4092 55.7422C97.8412 55.6914 99.1849 55.644 100.357 55.6024C101.967 57.2401 101.606 58.6877 100.76 60.358ZM92.5347 204.554C93.8936 206.496 94.9595 208.852 92.8249 211.139C89.8066 210.376 87.8297 208.693 86.8814 205.545C85.5056 200.978 83.7593 196.523 82.1709 192.021C82.4068 191.94 82.6426 191.858 82.8784 191.777C86.1158 196.023 89.4758 200.183 92.5347 204.554ZM47.4466 111.156C46.5499 110.431 45.8667 109.442 45.0906 108.568C46.1126 107.122 47.1765 105.617 49.2309 102.711C49.0693 105.114 48.8536 105.807 49.0305 106.378C49.2175 106.982 49.7781 107.47 50.1756 108.009C50.768 107.465 51.4625 106.99 51.9041 106.343C52.0876 106.074 51.7581 105.428 51.6162 104.968C51.1024 103.304 52.2394 102.696 53.4482 102.637C54.1817 102.601 55.2804 103.18 55.6524 103.813C57.1102 106.295 56.2733 109.823 54.023 111.567C52.1552 113.015 49.6294 112.921 47.4466 111.156ZM44.9526 108.763C44.9401 108.728 44.9274 108.692 44.9148 108.656C44.9642 108.616 45.0121 108.574 45.0618 108.534C45.0717 108.545 45.0809 108.557 45.0906 108.568C45.0448 108.633 44.9983 108.699 44.9526 108.763ZM43.029 103.31C43.7225 105.276 44.3196 106.969 44.9148 108.656C43.6968 109.64 42.5598 110.767 41.2149 111.525C38.6324 112.981 35.9605 113.456 33.4994 111.173C33.4837 111.18 33.468 111.186 33.4522 111.192C33.4531 111.173 33.454 111.154 33.4549 111.135L33.518 111.166C33.2105 110.247 32.903 109.328 32.5954 108.408C33.6932 107.723 34.7954 107.035 36.036 106.261C36.8165 106.625 37.1938 109.124 38.9719 107.319C39.2024 107.085 38.539 105.97 38.2016 105.013C39.673 104.494 41.1381 103.977 43.029 103.31ZM93.3218 129.122C96.2306 127.935 98.147 127.152 99.7475 126.499C103.838 128.755 103.764 132.095 102.754 135.242C101.883 137.96 99.5082 139.03 95.9852 137.951C95.3678 136.418 94.5892 134.485 93.3369 131.375C95.761 132.933 97.2728 133.905 99.1087 135.085C99.5314 133.926 100.104 133.118 99.8984 132.771C99.3709 131.879 98.6156 130.988 97.7314 130.478C96.7508 129.911 95.5263 129.768 93.3218 129.122ZM75.573 59.1637C75.5668 59.0956 75.5605 59.0275 75.5543 58.9596C75.6019 58.9423 75.6493 58.9249 75.6969 58.9076C75.6948 58.9724 75.6971 59.0389 75.6956 59.1039C75.6545 59.1253 75.6143 59.1414 75.573 59.1637ZM75.2 73.0147C75.9089 72.8359 76.5626 72.671 77.2138 72.5068C77.559 73.3826 77.9042 74.2584 78.2494 75.1344C79.1534 74.7943 80.0574 74.4544 80.9614 74.1145C81.1087 72.6133 81.2956 71.1143 81.3722 69.6095C81.4296 68.4828 81.7169 66.5992 81.2253 66.3409C78.5104 64.9152 79.5268 62.5492 79.2285 60.4457C78.891 58.0665 77.3445 58.2476 75.6956 59.1039C75.6311 62.0241 76.2041 65.2012 75.1825 67.7356C74.324 69.8652 73.9838 71.2612 75.2 73.0147ZM78.3588 66.8021C79.3591 69.5816 78.8492 71.0751 77.3058 72.2865C77.1345 71.45 76.8341 70.5986 76.9273 69.7928C77.0174 69.0148 77.6128 68.2953 78.3588 66.8021ZM102.033 177.378C100.821 178.944 99.9523 180.065 98.9228 181.394C100.356 184.392 102.135 187.561 100.036 190.867C99.4453 191.797 97.8548 192.092 96.4595 192.815C95.3629 189.469 100.431 187.134 96.9066 184.306C97.6548 181.371 98.4031 178.437 99.1838 175.376C98.3234 174.877 97.2823 174.274 95.937 173.495C96.7406 172.459 97.5156 171.461 98.7963 169.811C100.036 172.709 100.952 174.851 102.033 177.378ZM73.1088 100.377C73.2102 100.54 73.3194 100.701 73.3555 100.876C73.829 103.177 74.8953 105.394 77.4885 104.616C78.7335 104.242 79.3878 101.9 80.6954 99.842C81.986 99.766 83.4521 101.098 83.2766 103.104C83.1582 104.459 81.7386 105.819 80.6439 106.922C80.0264 107.544 78.8691 107.607 77.9882 107.997C76.01 108.873 73.9002 108.772 72.6976 107.123C71.1422 104.989 70.2017 102.421 73.1088 100.377ZM103.406 148.118C103.504 150.942 100.001 154.14 97.7657 153.373C96.3288 152.881 94.2795 152.014 94.6447 149.504C94.8084 148.381 94.4653 147.183 94.2882 145.361C96.2953 147.249 96.7304 150.695 101.319 149.13C100.124 146.378 99.0661 143.941 97.7807 140.981C99.1465 141.391 100.944 141.39 101.414 142.18C102.467 143.949 103.336 146.095 103.406 148.118ZM103.516 118.469C103.873 117.809 103.713 116.392 103.204 115.841C102.255 114.814 100.887 114.174 99.1488 113.007C105.017 111.252 106.724 113.473 106.059 120.707C99.0766 124.308 98.613 124.142 96.7109 117.363C98.1827 118.169 99.5896 119.183 101.16 119.678C101.796 119.878 103.152 119.14 103.516 118.469ZM67.5997 100.458C70.2833 102.277 69.9492 104.26 68.327 106.082C66.2504 108.414 62.1944 108.833 58.461 107.227C58.6351 105.713 58.8192 104.114 59.0181 102.386C60.6658 103.278 60.5316 106.195 63.6416 105.468C66.5741 104.783 65.439 101.875 67.5997 100.458ZM158.747 133.677C157.75 134.18 156.149 133.486 154.63 133.316C157.61 128.028 158.29 127.897 164.581 131.08C165.137 133.56 164.405 135.147 161.669 135.81C159.709 136.286 161.478 132.3 158.747 133.677ZM174.599 138.38C173.378 138.047 171.331 137.118 171.07 137.48C169.45 139.721 168.056 138.528 167.166 137.221C166.199 135.801 167.819 133.201 169.772 133.026C171.379 132.882 173.036 133.303 175.018 133.509C175.56 135.58 176.083 137.58 176.577 139.469C174.457 140.597 174.032 140.061 174.599 138.38ZM145.235 129.635C146.52 130.057 147.826 130.485 149.131 130.913C149.13 130.908 149.128 130.902 149.127 130.896C152.601 131.438 152.612 131.418 154.026 127.757C148.042 123.644 147.5 123.734 145.235 129.635ZM149.117 130.856C148.916 130.07 148.712 129.273 148.383 127.981C150.275 129.093 150.676 129.88 149.117 130.856ZM99.8779 166.864C95.9948 166.633 95.3173 164.104 95.1678 161.194C96.5378 162.113 97.8597 162.999 98.898 163.695C103.12 160.693 97.9769 159.291 97.9279 156.949C100.979 157.137 100.979 157.137 102.953 163.314C102.008 164.404 100.956 165.619 99.8779 166.864ZM149.42 80.9129C147.054 77.0663 147.155 75.3446 149.864 73.3087C151.468 72.1041 152.6 72.6189 156.637 76.7489C152.613 76.9418 152.613 76.9418 149.42 80.9129ZM115.986 89.7179C114.911 88.3632 113.836 87.0084 112.76 85.6536C112.963 85.3332 113.165 85.0128 113.368 84.6923C114.538 85.1321 115.709 85.5719 117.054 86.0774C117.627 85.1038 118.221 84.0936 119.221 82.3944C120.139 82.7987 121.119 83.2302 122.567 83.8676C120.771 87.2919 119.006 89.2144 115.986 89.7179ZM93.1559 38.9407C93.4979 41.9717 93.3496 43.5057 93.9006 44.7233C94.4309 45.8948 95.6844 46.7391 96.6855 47.7961C93.3114 49.5375 93.3114 49.5375 89.4981 45.696C90.4043 44.0225 91.3807 42.2192 93.1559 38.9407ZM182.948 140.977C182.354 142.015 181.761 143.052 180.831 144.678C179.972 142.823 179.335 141.446 178.694 140.063C180.386 138.069 182.33 137.026 184.49 138.165C185.704 138.804 186.397 140.431 188.332 142.896C185.443 141.866 184.207 141.426 182.948 140.977ZM20.5156 109.664C22.8533 109.195 24.8724 108.791 27.1858 108.327C28.5585 110.477 28.5585 110.477 24.6954 114.162C23.7432 113.733 22.5005 113.449 21.6702 112.705C21.0601 112.159 20.9901 111.009 20.5156 109.664ZM16.3709 111.546C15.5117 112.613 14.5376 113.824 13.5618 115.036C10.9756 115.14 9.35395 114.186 8.50822 110.191C11.385 113.229 13.937 106.074 16.3709 111.546ZM119.416 130.661C119.782 131.701 120.159 132.768 120.696 134.29C122.196 133.67 123.448 133.154 125.854 132.161C124.267 134.477 123.31 135.874 122.072 137.679C120.738 137.049 119.135 136.788 118.41 135.848C116.933 133.935 117.322 132.018 119.416 130.661ZM119.34 130.446C119.392 130.401 119.444 130.356 119.497 130.31C119.524 130.389 119.551 130.467 119.578 130.546C119.518 130.582 119.473 130.624 119.416 130.661C119.391 130.59 119.365 130.517 119.34 130.446ZM102.753 105.291C102.781 105.241 102.81 105.191 102.838 105.141C102.864 105.215 102.89 105.289 102.916 105.364C102.878 105.377 102.839 105.392 102.801 105.406C102.786 105.366 102.767 105.332 102.753 105.291ZM101.546 105.863C101.964 105.711 102.383 105.558 102.801 105.406C103.534 107.351 104.855 108.461 107.62 108.237C107.672 106.864 107.725 105.444 107.824 102.822C108.737 105.412 109.264 106.905 109.788 108.39C103.749 111.337 103.675 111.351 101.546 105.863ZM75.0069 52.9959C75.0388 52.9908 75.0638 52.9805 75.0952 52.9748C75.1068 53.0008 75.1184 53.0271 75.13 53.0531C75.0955 53.0972 75.0585 53.1347 75.0235 53.1774C75.018 53.117 75.0124 53.0564 75.0069 52.9959ZM70.8909 54.54C70.8933 54.5228 70.8957 54.5058 70.8981 54.4888C70.9169 54.4643 70.9294 54.4405 70.9486 54.4159C70.9563 54.4672 70.9724 54.5154 70.9833 54.5656C70.9518 54.5549 70.9227 54.5515 70.8909 54.54ZM75.0235 53.1774C75.2004 55.1048 75.3772 57.032 75.5543 58.9596C74.7099 59.2668 73.8655 59.5742 73.0211 59.8816C73.9504 57.5361 71.3902 56.4347 70.9833 54.5656C72.6955 55.1447 73.9678 54.4699 75.0235 53.1774ZM86.2455 121.034C86.9186 123.322 87.8892 125.125 87.4845 125.52C86.1658 126.81 84.5695 128.943 82.3874 126.51C84.7288 126.106 84.515 123.459 86.2455 121.034ZM94.5859 202.063C95.9411 198.458 96.7633 196.271 97.5855 194.083C97.8823 194.08 98.1792 194.076 98.4761 194.072C98.6209 195.502 99.2561 197.134 98.7741 198.307C98.2803 199.508 96.6929 200.26 94.5859 202.063ZM193.209 147.427C192.296 145.383 191.942 144.487 191.501 143.635C191.137 142.93 190.671 142.279 189.959 141.138C193.79 141.975 193.79 141.975 193.209 147.427ZM81.6233 80.062C81.438 78.108 81.2528 76.1541 81.0675 74.1999C81.673 73.6238 82.3037 73.0239 83.3537 72.0249C83.6506 75.1574 84.2635 77.8905 81.6233 80.062ZM80.9402 74.321C80.9468 74.2521 80.9547 74.1835 80.9614 74.1145C80.993 74.1026 81.0244 74.0908 81.056 74.079C81.0598 74.1193 81.0637 74.1595 81.0675 74.1999C81.0256 74.2398 80.982 74.2813 80.9402 74.321ZM117.477 125.179C117.955 126.534 118.388 127.76 118.818 128.979C117.332 129.019 115.809 129.06 113.502 129.123C115.225 127.414 116.167 126.478 117.477 125.179ZM122.112 81.5802C120.708 80.9725 119.863 80.6066 119.005 80.235C119.828 78.9218 119.665 76.3164 122.151 77.608C122.638 77.8609 122.156 79.9773 122.112 81.5802ZM80.4819 178.627C81.3827 181.18 82.2836 183.734 83.1845 186.288C81.516 183.949 78.599 181.924 80.4819 178.627ZM80.3783 178.333C80.4213 178.31 80.4753 178.286 80.5291 178.261C80.5509 178.316 80.569 178.371 80.5909 178.426C80.5483 178.494 80.5204 178.559 80.4819 178.627C80.4473 178.529 80.4128 178.431 80.3783 178.333ZM58.0066 88.4603C58.0208 88.456 58.0348 88.4517 58.049 88.4474C58.0945 88.4808 58.13 88.5029 58.1774 88.5381C58.1345 88.5538 58.0916 88.5693 58.0488 88.5849C58.0348 88.5434 58.0207 88.5019 58.0066 88.4603ZM58.0488 88.5849C58.3454 89.4603 58.6419 90.3356 58.9385 91.211C57.7029 91.6468 56.4599 92.0853 55.0305 92.5896C55.177 91.257 55.2719 90.3946 55.3633 89.5632C56.2584 89.2371 57.1536 88.9111 58.0488 88.5849ZM104.426 34.8253C104.45 34.8944 104.474 34.9636 104.498 35.0326C104.441 35.0306 104.383 35.0286 104.327 35.0266C104.309 34.9769 104.291 34.9269 104.274 34.8772C104.325 34.8598 104.375 34.8427 104.426 34.8253ZM102.941 31.105C103.385 32.3625 103.829 33.6199 104.274 34.8772C103.449 35.1583 102.624 35.4394 101.799 35.7203C102.18 34.182 102.56 32.6434 102.941 31.105ZM116.794 69.3869C117.973 69.5809 118.828 69.7218 119.653 69.8578C119.107 71.0477 118.562 72.2377 118.016 73.4278C117.625 72.1368 117.233 70.8396 116.794 69.3869ZM119.68 69.8004C119.753 69.7623 119.796 69.7202 119.86 69.6809C119.888 69.7557 119.913 69.8302 119.936 69.9043C119.843 69.8889 119.747 69.8732 119.653 69.8578C119.662 69.8386 119.671 69.8195 119.68 69.8004ZM81.4782 80.186C81.5305 80.1454 81.5734 80.1031 81.6233 80.062C81.6298 80.1308 81.6364 80.1997 81.6429 80.2686C81.6061 80.2796 81.5614 80.286 81.5218 80.2953C81.508 80.259 81.4896 80.2214 81.4782 80.186ZM81.5218 80.2953C81.6784 80.7063 81.9633 81.1609 81.8546 81.4823C81.6143 82.1933 81.1431 82.8363 80.6852 83.4458C80.6465 83.4974 79.6618 83.0356 79.6831 82.9029C79.8053 82.1389 80.0002 81.3463 80.379 80.6824C80.5282 80.4211 81.0916 80.3961 81.5218 80.2953ZM117.702 59.708C117.578 60.7666 117.455 61.8252 117.332 62.8838C116.895 63.0382 116.458 63.1926 116.022 63.3471C115.572 62.0719 115.12 60.7909 114.587 59.2787C115.976 59.4701 116.851 59.5905 117.702 59.708ZM115.913 63.3857C115.949 63.3727 115.985 63.36 116.022 63.3471C116.034 63.3817 116.046 63.4166 116.058 63.4511C115.771 64.0828 115.484 64.7143 115.196 65.3459C115.164 65.3976 115.13 65.4513 115.098 65.5031C115.059 65.4166 115.02 65.3301 114.98 65.2436C115.291 64.6243 115.602 64.005 115.913 63.3856L115.913 63.3857ZM117.4 62.8597C117.42 62.8997 117.438 62.9423 117.457 62.9843C117.41 62.9922 117.367 62.9954 117.317 63.006C117.322 62.9653 117.327 62.9246 117.332 62.8838C117.354 62.8758 117.377 62.8678 117.4 62.8597ZM118.46 158.724C117.298 159.623 116.137 160.521 114.975 161.42C114.702 159.121 115.974 158.004 118.014 157.474C118.163 157.891 118.311 158.308 118.46 158.724ZM118.624 158.598C118.625 158.609 118.626 158.619 118.628 158.631C118.589 158.711 118.55 158.791 118.512 158.871C118.494 158.822 118.477 158.773 118.46 158.724C118.514 158.682 118.569 158.64 118.624 158.598ZM114.989 161.614C114.961 161.673 114.933 161.732 114.905 161.792C114.876 161.708 114.848 161.624 114.819 161.541C114.871 161.5 114.923 161.46 114.975 161.42C114.983 161.487 114.979 161.545 114.989 161.614ZM156.166 111.462C156.476 112.332 156.786 113.202 157.096 114.073C156.25 114.356 155.403 114.64 154.557 114.924C155.093 113.77 155.629 112.616 156.166 111.462ZM157.161 114.051C157.172 114.073 157.187 114.089 157.199 114.111C157.173 114.119 157.145 114.131 157.12 114.138C157.112 114.117 157.104 114.095 157.096 114.073C157.118 114.065 157.14 114.058 157.161 114.051ZM187.549 129.66C187.617 129.693 187.685 129.727 187.753 129.761C187.655 129.795 187.556 129.83 187.458 129.864C187.405 129.829 187.351 129.791 187.299 129.756C187.382 129.724 187.466 129.691 187.549 129.66ZM184.126 127.591C185.458 128.5 186.389 129.135 187.299 129.756C185.873 130.302 184.449 130.791 184.126 127.591ZM114.905 161.792C115.193 162.628 115.481 163.463 115.769 164.3C114.946 164.593 114.123 164.886 113.301 165.179C113.836 164.05 114.37 162.921 114.905 161.792ZM61.1312 92.1751C61.9641 91.887 62.7967 91.5987 63.6297 91.3106C63.8565 92.0642 64.1018 92.8791 64.5988 94.5302C62.9547 93.4137 62.024 92.7814 61.1312 92.1751ZM63.5753 91.1302C63.6273 91.1028 63.6828 91.079 63.7389 91.0559C63.7642 91.1195 63.7894 91.1829 63.8146 91.2465C63.753 91.2679 63.6913 91.2891 63.6297 91.3106C63.6116 91.2504 63.5933 91.1898 63.5753 91.1302ZM113.453 122.127C111.722 121.415 110.91 121.081 110.053 120.728C111.953 118.389 112.346 119.81 113.453 122.127ZM62.684 88.3998C63.7607 88.5505 64.8375 88.7011 65.9141 88.8518C66.411 90.8094 64.7707 90.6282 63.7389 91.0559C63.3873 90.1705 63.0355 89.2851 62.684 88.3998ZM87.5219 78.5233C86.5332 80.0018 85.9068 80.9386 85.294 81.855C84.7499 80.4054 84.3859 79.0095 87.5219 78.5233ZM112.982 68.874C113.932 67.3599 114.524 66.4172 115.098 65.5031C115.713 66.8749 116.121 68.208 112.982 68.874ZM115.012 144.481C115.164 144.919 115.316 145.357 115.468 145.795C114.605 146.091 113.742 146.386 112.879 146.681C112.602 145.894 112.32 145.095 111.972 144.109C113.295 144.271 114.166 144.377 115.012 144.481ZM115.606 145.748C115.603 145.797 115.606 145.851 115.604 145.901C115.575 145.911 115.545 145.922 115.516 145.932C115.5 145.887 115.484 145.841 115.468 145.795C115.514 145.78 115.56 145.764 115.606 145.748L115.606 145.748L115.606 145.748L115.606 145.748L115.606 145.748ZM110.947 58.6767C111.887 57.1289 112.478 56.1552 113.065 55.1879C113.693 56.6838 114.189 58.1329 110.947 58.6767ZM177.733 123.941C177.711 123.972 177.689 124.004 177.668 124.035C177.651 123.987 177.635 123.939 177.619 123.892C177.648 123.883 177.677 123.874 177.706 123.865C177.715 123.891 177.724 123.916 177.733 123.941L177.688 123.922C177.71 123.931 177.733 123.941 177.733 123.941ZM177.668 124.035C177.958 124.896 178.249 125.756 178.539 126.617C177.713 126.825 176.846 127.043 175.286 127.435C176.384 125.867 177.033 124.941 177.668 124.035ZM178.696 126.578C178.755 126.618 178.814 126.659 178.873 126.699C178.782 126.731 178.691 126.763 178.599 126.795C178.599 126.795 178.608 126.775 178.62 126.749L178.599 126.795C178.579 126.736 178.559 126.676 178.539 126.617C178.592 126.604 178.644 126.591 178.696 126.578L178.696 126.578ZM87.8072 119.925C88.428 119.292 89.0516 118.657 90.4277 117.254C90.2234 118.922 90.1293 119.691 90.0351 120.46C89.2925 120.281 88.5498 120.103 87.8072 119.925ZM178.873 126.699C179.704 126.408 180.534 126.118 181.365 125.827C181.631 126.581 181.921 127.405 182.561 129.219C180.746 127.978 179.784 127.321 178.873 126.699ZM181.303 125.653C181.359 125.637 181.415 125.62 181.47 125.604C181.493 125.658 181.516 125.712 181.539 125.766C181.481 125.787 181.423 125.807 181.365 125.827C181.344 125.769 181.324 125.71 181.303 125.653ZM76.5879 0.770794C75.7888 1.05268 74.9898 1.33454 74.1907 1.61643C74.1319 1.44974 74.0731 1.28293 74.0142 1.11613C74.8134 0.834223 75.6124 0.552358 76.4115 0.270452C76.4703 0.437298 76.5291 0.604103 76.5879 0.770794ZM106.3 40.5219C106.696 41.5898 107.286 42.6854 105.97 43.5083C105.574 42.4596 104.697 41.3604 106.3 40.5219ZM72.7877 59.9665C72.8654 59.9381 72.9433 59.9099 73.0211 59.8816C72.9985 59.9384 72.9844 59.9923 72.9576 60.0507C72.9206 60.0643 72.8835 60.0779 72.8465 60.0915C72.8268 60.0498 72.8066 60.0081 72.7877 59.9665ZM71.601 60.5483C72.0162 60.3962 72.4313 60.2438 72.8465 60.0915C73.3611 61.1796 74.1109 62.3006 72.5206 63.0966C72.2141 62.2473 71.9075 61.3978 71.601 60.5483ZM78.1723 75.1634C78.198 75.1537 78.2237 75.144 78.2494 75.1344C78.259 75.1587 78.2687 75.1833 78.2783 75.2077C78.2526 75.2213 78.2331 75.2354 78.2086 75.2491C78.1968 75.2205 78.1837 75.1918 78.1723 75.1634ZM78.2086 75.2491C78.6621 76.3451 79.3336 77.4715 77.8589 78.2975C77.4275 77.2231 76.6586 76.113 78.2086 75.2491ZM119.564 65.1431C117.892 65.4522 117.898 63.9807 117.457 62.9843C119.161 62.7002 119.141 64.1434 119.564 65.1431ZM163.817 49.7514C164.076 51.3974 162.813 51.6005 161.669 51.9165C161.393 50.1942 162.697 50.0662 163.817 49.7514ZM161.549 51.9489C161.589 51.9376 161.629 51.9274 161.669 51.9165C161.674 51.9484 161.676 51.9764 161.682 52.0093C161.385 52.6342 161.089 53.2591 160.792 53.884C160.754 53.8973 160.714 53.9083 160.675 53.9209C160.668 53.8867 160.665 53.8568 160.657 53.821C160.954 53.197 161.252 52.573 161.549 51.949C161.549 51.949 161.577 51.9616 161.602 51.9729L161.549 51.9489ZM120.097 66.5356C120.15 66.5033 120.208 66.4819 120.263 66.4549C120.284 66.5135 120.305 66.5723 120.326 66.631C120.268 66.6607 120.221 66.6916 120.169 66.7219C120.145 66.6598 120.118 66.5974 120.097 66.5356ZM120.169 66.7219C120.571 67.7729 121.209 68.8539 119.86 69.6809C119.477 68.6368 118.746 67.5514 120.169 66.7219ZM151.908 58.4082C151.827 58.4992 151.745 58.5901 151.664 58.6809C151.664 58.681 151.424 58.5754 151.424 58.5754C151.572 58.5061 151.737 58.454 151.908 58.4082ZM158.329 56.1404C158.325 56.2446 158.32 56.349 158.316 56.4533C158.401 56.3851 158.485 56.3168 158.569 56.2485L158.569 56.2484C158.552 56.1749 158.557 56.1213 158.546 56.0533C158.471 56.08 158.398 56.1086 158.329 56.1404ZM158.497 56.2163L158.541 56.2362C158.529 56.2307 158.516 56.2247 158.497 56.2163ZM160.675 53.9209C161.05 55.7203 159.592 55.6796 158.546 56.0533C158.288 54.4327 159.588 54.2775 160.675 53.9209ZM175.803 48.6479C175.98 50.186 174.741 50.3401 173.718 50.7058C173.352 48.9855 174.77 49.0046 175.803 48.6479ZM166.321 53.607C165.894 54.1644 165.468 54.7217 165.042 55.2792C164.813 55.0313 164.584 54.7834 164.356 54.5356C165.011 54.226 165.666 53.9165 166.321 53.607ZM131.921 68.5359C131.931 68.6081 131.926 68.6672 131.942 68.7454C131.854 68.8211 131.765 68.8971 131.677 68.9728C131.68 68.8599 131.683 68.7469 131.686 68.634C131.76 68.5971 131.84 68.5654 131.921 68.5359ZM134.079 66.3662C134.524 68.3019 132.971 68.1568 131.921 68.5359C131.713 66.972 133.005 66.7679 134.079 66.3662ZM134.075 66.3409C134.091 66.3311 134.106 66.3203 134.122 66.3105C134.117 66.3258 134.112 66.3413 134.106 66.3566C134.098 66.36 134.088 66.3629 134.079 66.3662C134.077 66.3574 134.077 66.35 134.075 66.3409ZM72.3632 89.5887C72.4177 89.5896 72.474 89.5863 72.5291 89.5859C72.5421 89.6208 72.5552 89.6556 72.5682 89.6903C72.5126 89.7185 72.4538 89.7436 72.3941 89.7677C72.384 89.7082 72.3776 89.6522 72.3632 89.5887ZM72.3941 89.7677C72.6767 91.4334 71.3202 91.5169 70.2568 91.8832C69.8448 90.086 71.3783 90.1783 72.3941 89.7677ZM75.2992 98.9213C74.6583 99.2916 74.0173 99.6617 73.3764 100.032C73.7743 99.4308 74.1722 98.8296 74.5702 98.2285C74.8132 98.4595 75.0562 98.6904 75.2992 98.9213ZM73.1868 100.318C73.1585 100.338 73.1364 100.358 73.1088 100.377C73.0795 100.33 73.0485 100.284 73.023 100.236C73.1408 100.168 73.2586 100.1 73.3764 100.032C73.3132 100.128 73.2501 100.223 73.1868 100.318ZM87.8042 119.924C87.8052 119.925 87.8062 119.925 87.8072 119.925C87.8048 119.927 87.8025 119.93 87.8002 119.932C87.7991 119.93 87.798 119.927 87.7969 119.925C87.7996 119.924 87.8014 119.925 87.8042 119.924ZM86.5745 117.225C87.1068 118.401 87.4522 119.163 87.7969 119.925C85.7897 120.207 85.6724 119.279 86.5745 117.225ZM80.9826 124.171C81.4272 124.932 81.8718 125.693 82.3164 126.454C81.5825 125.934 80.8484 125.414 80.1146 124.894C80.4039 124.653 80.6933 124.412 80.9826 124.171ZM82.3681 126.491C82.3746 126.498 82.3809 126.503 82.3874 126.51C82.3755 126.512 82.3658 126.516 82.3538 126.518C82.3413 126.497 82.3288 126.475 82.3164 126.454C82.3336 126.466 82.3508 126.479 82.3681 126.491ZM112.584 137.649C112.726 138.054 112.868 138.46 113.01 138.865C112.167 139.16 111.324 139.455 110.481 139.75C110.29 138.199 111.502 137.986 112.584 137.649ZM113.169 138.81C113.206 138.877 113.247 138.917 113.285 138.976C113.214 139 113.143 139.026 113.073 139.046C113.052 138.986 113.031 138.926 113.01 138.865C113.063 138.847 113.116 138.828 113.169 138.81ZM116.206 139.3C115.167 139.725 114.114 140.268 113.285 138.976C114.316 138.632 115.388 137.971 116.206 139.3ZM109.29 189.873C108.521 190.136 107.751 190.4 106.981 190.663C107.616 189.992 108.25 189.32 108.885 188.649C109.02 189.057 109.155 189.465 109.29 189.873ZM109.441 189.821C109.441 189.829 109.439 189.837 109.439 189.845C109.407 189.906 109.374 189.966 109.341 190.027C109.324 189.976 109.307 189.924 109.29 189.873C109.341 189.855 109.391 189.838 109.441 189.821ZM97.5939 210.535C97.2308 210.801 96.8988 211.186 96.4938 211.292C96.2216 211.364 95.8463 211.04 95.4923 210.882C95.9071 210.592 96.2521 210.219 96.6665 210.11C96.9204 210.043 97.281 210.38 97.5939 210.535ZM70.0435 4.58831C69.763 4.83651 69.4826 5.08468 69.202 5.33288C69.2246 4.95951 69.247 4.58631 69.2695 4.21297C69.5275 4.33811 69.7855 4.46329 70.0435 4.58831ZM69.1939 5.4683C69.1583 5.49251 69.1288 5.51935 69.0941 5.54401C69.0958 5.50408 69.0972 5.46409 69.0988 5.42416C69.1332 5.39367 69.1677 5.36338 69.202 5.33288C69.1993 5.37798 69.1966 5.42308 69.1939 5.4683ZM70.4815 22.1502C70.3988 22.1564 70.33 22.1504 70.253 22.1514C70.2505 22.1173 70.2544 22.0841 70.2509 22.0498C70.3234 21.9805 70.3958 21.9111 70.4682 21.8417C70.4727 21.9446 70.4771 22.0475 70.4815 22.1502ZM71.1608 21.179C70.9299 21.3999 70.6991 21.6208 70.4682 21.8417C70.455 21.5332 70.4417 21.2248 70.4285 20.9162C70.6726 21.0038 70.9167 21.0914 71.1608 21.179ZM70.3624 28.6232C70.5499 28.7448 70.7372 28.8663 70.9246 28.9877C70.8206 29.18 70.7167 29.3723 70.6127 29.5645C70.4252 29.4483 70.1186 29.3606 70.0823 29.2085C70.0433 29.0449 70.2583 28.821 70.3624 28.6232ZM98.0825 26.1642C98.1497 26.1555 98.211 26.152 98.2766 26.1447C98.2983 26.191 98.3202 26.2378 98.3419 26.2842C98.2498 26.3571 98.1576 26.4299 98.0654 26.5026C98.0711 26.3898 98.0768 26.277 98.0825 26.1642ZM97.4223 27.0109C97.6367 26.8416 97.851 26.672 98.0654 26.5026C98.0508 26.7923 98.0361 27.0819 98.0215 27.3714C97.8218 27.2513 97.6221 27.1311 97.4223 27.0109ZM73.1525 42.9358C73.0818 42.9381 73.0171 42.9369 72.9482 42.9382C72.9413 42.9018 72.9292 42.8689 72.9228 42.8324C73.0011 42.7621 73.0794 42.6921 73.1578 42.6219C73.1561 42.7265 73.1543 42.8312 73.1525 42.9358ZM73.8317 42.0184C73.607 42.2196 73.3824 42.4207 73.1578 42.6219C73.163 42.3115 73.1682 42.0011 73.1734 41.6909C73.3928 41.7999 73.6122 41.9092 73.8317 42.0184ZM101.491 35.8256C101.594 35.7905 101.696 35.7554 101.799 35.7203C101.781 35.793 101.764 35.8658 101.746 35.9384C101.603 36.3536 101.46 36.7687 101.317 37.1839C101.375 36.7311 101.433 36.2784 101.491 35.8256ZM105.084 44.4662C105.315 44.2934 105.546 44.1207 105.778 43.948C105.759 44.2537 105.74 44.5594 105.722 44.865C105.509 44.7321 105.296 44.5992 105.084 44.4662ZM105.797 43.6247C105.867 43.5876 105.909 43.5466 105.97 43.5083C106 43.5872 106.028 43.6659 106.051 43.7441C105.96 43.812 105.869 43.88 105.778 43.948C105.784 43.8403 105.791 43.7325 105.797 43.6247ZM109.19 48.6966C109.23 48.6831 109.27 48.6697 109.31 48.6562C109.309 48.6873 109.307 48.7187 109.306 48.7497C109.024 49.3766 108.741 50.0035 108.459 50.6304C108.167 51.2535 107.875 51.8768 107.583 52.4999C107.503 52.5783 107.422 52.6568 107.341 52.7351C107.338 52.6208 107.335 52.5066 107.332 52.3923C107.641 51.7756 107.95 51.159 108.259 50.5423C108.569 49.9271 108.88 49.3118 109.19 48.6966ZM110.613 48.2713C110.622 48.2502 110.632 48.2291 110.641 48.2081C110.642 48.2081 110.642 48.208 110.642 48.208C110.663 48.2313 110.684 48.2549 110.705 48.2782C110.675 48.2759 110.644 48.2736 110.613 48.2713ZM111.515 49.1699C111.245 48.8726 110.975 48.5754 110.705 48.2782C111.091 48.3072 111.477 48.3362 111.864 48.3654C111.748 48.6335 111.631 48.9017 111.515 49.1699ZM72.341 63.1852C72.4069 63.1566 72.4614 63.1262 72.5206 63.0966C72.5451 63.1645 72.5696 63.2325 72.5941 63.3005C72.5011 63.3739 72.4082 63.4475 72.3152 63.521C72.3238 63.409 72.3324 63.2971 72.341 63.1852ZM71.6174 64.0726C71.85 63.8886 72.0827 63.7048 72.3152 63.521C72.2922 63.8217 72.269 64.1222 72.2459 64.4229C72.0365 64.3062 71.8269 64.1893 71.6174 64.0726ZM106.714 53.3441C106.923 53.1411 107.132 52.9381 107.341 52.7351C107.349 53.019 107.356 53.303 107.364 53.5867C107.147 53.506 106.931 53.425 106.714 53.3441ZM110.709 53.7129C110.613 53.9055 110.516 54.0998 110.419 54.2945C110.232 54.178 109.928 54.0913 109.888 53.9368C109.844 53.7662 110.042 53.5332 110.135 53.3273C110.322 53.4532 110.51 53.579 110.709 53.7129ZM113.913 53.2516C113.943 53.2606 113.968 53.2729 113.997 53.2822C113.997 53.2849 113.998 53.2875 113.998 53.2902C113.694 53.9109 113.39 54.5317 113.086 55.1523C113.079 55.164 113.072 55.1762 113.065 55.1879C113.057 55.1691 113.049 55.1504 113.041 55.1314C113.332 54.505 113.622 53.8783 113.913 53.2516ZM110.125 62.1121C109.963 62.1464 109.751 61.9487 109.561 61.8515C109.663 61.6564 109.766 61.4616 109.868 61.2666C110.061 61.3795 110.255 61.4925 110.448 61.6055C110.343 61.7846 110.263 62.0831 110.125 62.1121ZM77.7211 78.3842C77.7768 78.3566 77.8084 78.3257 77.8589 78.2975C77.8839 78.3596 77.9083 78.4217 77.9305 78.4836C77.6346 79.1041 77.3388 79.7246 77.0429 80.3452C76.9653 80.4155 76.8878 80.4857 76.8101 80.5558C76.8105 80.4514 76.8109 80.3471 76.8112 80.2426C77.1145 79.6231 77.4177 79.0038 77.7211 78.3842ZM46.6095 91.7765C46.508 91.9462 46.4067 92.1158 46.3052 92.2854C46.149 92.2597 45.9927 92.2341 45.8364 92.2082C45.9187 91.9731 46.0009 91.7383 46.0832 91.5033C46.2586 91.5944 46.434 91.6854 46.6095 91.7765ZM76.1196 81.1798C76.3497 80.9719 76.58 80.7638 76.8101 80.5558C76.8091 80.8645 76.8078 81.173 76.8067 81.4817C76.5777 81.381 76.3487 81.2806 76.1196 81.1798ZM170.712 47.1504C170.726 47.1509 170.74 47.1479 170.755 47.1481C170.797 47.1765 170.837 47.1955 170.88 47.2256C170.596 47.8522 170.312 48.4788 170.028 49.1054C169.939 49.1815 169.849 49.2576 169.76 49.3336C169.762 49.2193 169.764 49.1051 169.767 48.9907C170.082 48.3773 170.397 47.7639 170.712 47.1504ZM169.073 49.9176C169.302 49.7229 169.531 49.5283 169.76 49.3336C169.753 49.6245 169.747 49.9154 169.741 50.2065C169.518 50.1101 169.296 50.0139 169.073 49.9176ZM176.746 46.5977C176.758 46.5918 176.77 46.5881 176.783 46.5824C176.808 46.6069 176.833 46.6237 176.859 46.6496C176.584 47.2857 176.309 47.9219 176.034 48.5583C175.96 48.5912 175.882 48.6205 175.803 48.6479C175.795 48.5791 175.802 48.525 175.788 48.4504C176.107 47.8327 176.427 47.2152 176.746 46.5977ZM35.92 98.9157C35.7397 98.7085 35.5594 98.5011 35.3791 98.2938C35.6555 98.3006 35.9317 98.3073 36.2079 98.314C36.112 98.5145 36.016 98.7151 35.92 98.9157ZM51.3015 92.9585C51.4862 93.161 51.6709 93.3633 51.8556 93.5659C51.5798 93.5623 51.304 93.5587 51.0283 93.5553C51.1193 93.3564 51.2104 93.1576 51.3015 92.9585ZM66.7522 86.9018C66.7533 86.9001 66.7547 86.8989 66.7559 86.8972C66.836 86.9388 66.9132 86.972 66.9942 87.0161C66.6741 87.6336 66.3538 88.251 66.0336 88.8686L66.0334 88.8684C65.9937 88.8629 65.9539 88.8574 65.9141 88.8518C65.9098 88.8348 65.9085 88.8207 65.9038 88.8033C66.1866 88.1695 66.4693 87.5357 66.7522 86.9018ZM167.584 52.4391C167.349 52.63 167.115 52.8208 166.88 53.0116C166.897 52.7152 166.914 52.4187 166.931 52.1223C167.148 52.2279 167.366 52.3336 167.584 52.4391ZM166.861 53.3515C166.681 53.4366 166.501 53.5218 166.321 53.607C166.415 53.4836 166.509 53.3601 166.604 53.2367C166.696 53.1616 166.788 53.0866 166.88 53.0116C166.874 53.125 166.868 53.2383 166.861 53.3515ZM52.4513 93.8416C52.3316 93.8362 52.212 93.8308 52.0923 93.8254C52.0134 93.7388 51.9345 93.6523 51.8556 93.5659C51.9722 93.5673 52.0889 93.5687 52.2055 93.5702L52.2056 93.57C52.2875 93.6606 52.3694 93.7511 52.4513 93.8416ZM53.0181 94.4681C52.8292 94.2592 52.6403 94.0504 52.4513 93.8416C52.7425 93.8549 53.0339 93.8681 53.3252 93.8813C53.2228 94.0769 53.1204 94.2725 53.0181 94.4681ZM60.978 92.0711C61.0289 92.1056 61.0803 92.1405 61.1312 92.1751C61.05 92.2032 60.9688 92.2314 60.8876 92.2595C60.2572 91.9672 59.627 91.675 58.9968 91.3828C58.9773 91.3254 58.9579 91.2682 58.9385 91.211C58.9925 91.1919 59.047 91.1727 59.101 91.1537C59.7268 91.4595 60.3524 91.7652 60.978 92.0711ZM84.4022 83.8804C84.3998 83.8803 84.3978 83.8809 84.3953 83.8809C84.3948 83.8794 84.3942 83.8778 84.3937 83.8764C84.6676 83.2417 84.9415 82.6071 85.2154 81.9724C85.2413 81.9337 85.2681 81.8937 85.294 81.855C85.317 81.9163 85.3399 81.9776 85.3634 82.0391C85.0429 82.6529 84.7226 83.2667 84.4022 83.8804ZM151.43 58.8832C151.428 58.7806 151.426 58.678 151.424 58.5754L151.664 58.681C151.586 58.7483 151.508 58.8158 151.43 58.8832ZM150.669 59.5407C150.922 59.3215 151.176 59.1023 151.43 58.8832C151.436 59.1945 151.442 59.5059 151.448 59.8172C151.188 59.725 150.929 59.6329 150.669 59.5407ZM157.56 57.0668C157.812 56.8622 158.064 56.6578 158.316 56.4533C158.304 56.7669 158.292 57.0805 158.279 57.3942C158.04 57.285 157.8 57.1759 157.56 57.0668ZM172.923 52.0855C173.106 51.8229 173.29 51.5603 173.474 51.2976C173.457 51.5249 173.436 51.7514 173.393 51.9739C173.381 52.0387 173.087 52.0497 172.923 52.0855ZM173.511 50.7804C173.577 50.753 173.649 50.7306 173.718 50.7058C173.731 50.7676 173.74 50.8253 173.758 50.8917C173.663 51.027 173.569 51.1623 173.474 51.2976C173.487 51.1253 173.497 50.9525 173.511 50.7804ZM142.256 63.3667C142.322 63.3417 142.39 63.3191 142.459 63.2979C142.47 63.357 142.467 63.403 142.483 63.4661C142.404 63.5338 142.325 63.6014 142.246 63.6691C142.249 63.5683 142.253 63.4676 142.256 63.3667ZM141.505 64.3041C141.752 64.0925 141.999 63.8808 142.246 63.6691C142.235 63.9755 142.225 64.2818 142.214 64.588C141.978 64.4935 141.742 64.3987 141.505 64.3041ZM190.59 46.3318C190.591 46.3318 190.591 46.3317 190.592 46.3317C190.667 46.3687 190.743 46.4056 190.818 46.4426C190.717 46.4774 190.616 46.5123 190.514 46.5471C190.54 46.4754 190.565 46.4036 190.59 46.3318ZM189.447 46.914C189.803 46.7919 190.158 46.6695 190.514 46.5471C190.379 46.9307 190.243 47.3142 190.107 47.6978C189.887 47.4366 189.667 47.1752 189.447 46.914ZM117.962 73.5455C117.98 73.5062 117.998 73.467 118.016 73.4278C118.032 73.4826 118.049 73.5378 118.066 73.5927C118.026 73.6274 117.986 73.6621 117.946 73.6968C117.951 73.6464 117.956 73.5959 117.962 73.5455ZM117.157 74.3832C117.42 74.1545 117.683 73.9257 117.946 73.6968C117.911 74.0355 117.875 74.3742 117.84 74.7129C117.612 74.6031 117.385 74.4932 117.157 74.3832ZM130.991 69.5615C131.22 69.3653 131.448 69.1691 131.677 68.9728C131.669 69.2592 131.662 69.5457 131.654 69.8321C131.433 69.7419 131.212 69.6517 130.991 69.5615ZM69.3457 92.7802C69.5873 92.5899 69.8286 92.3996 70.07 92.2093C70.0463 92.5196 70.0226 92.83 69.9988 93.1404C69.7811 93.0203 69.5635 92.9003 69.3457 92.7802ZM70.0903 91.9432C70.1446 91.922 70.2006 91.9026 70.2568 91.8832C70.2686 91.9346 70.2754 91.981 70.2904 92.0355C70.217 92.0935 70.1435 92.1514 70.07 92.2093C70.0768 92.1207 70.0835 92.032 70.0903 91.9432ZM32.5594 108.301C32.5715 108.337 32.5834 108.373 32.5954 108.408C32.5556 108.433 32.5154 108.458 32.4756 108.483C32.4212 108.418 32.3668 108.354 32.3125 108.289C32.3948 108.293 32.4771 108.297 32.5594 108.301ZM31.7314 107.596C31.925 107.827 32.1188 108.058 32.3125 108.289C32.0009 108.274 31.6893 108.258 31.3776 108.243C31.4955 108.028 31.6135 107.812 31.7314 107.596ZM31.3134 110.83C31.4966 111.06 31.68 111.29 31.8633 111.52C31.5583 111.511 31.2534 111.502 30.9484 111.492C31.0701 111.272 31.1917 111.051 31.3134 110.83ZM32.1471 111.529C32.2087 111.566 32.2703 111.604 32.332 111.642C32.238 111.679 32.144 111.717 32.05 111.754C31.9878 111.676 31.9256 111.598 31.8633 111.52C31.9579 111.523 32.0525 111.526 32.1471 111.529ZM92.2224 89.8734C92.0007 90.0809 91.779 90.2887 91.5573 90.4961C91.5625 90.1995 91.5677 89.9028 91.5729 89.6061C91.7894 89.6953 92.0058 89.7842 92.2224 89.8734ZM91.5529 90.748C91.4987 90.7605 91.4434 90.7734 91.3892 90.7859C91.3814 90.7461 91.3819 90.7089 91.373 90.6688C91.4344 90.6111 91.4959 90.5537 91.5573 90.4961C91.5558 90.5801 91.5543 90.664 91.5529 90.748ZM9.13635 121.277C9.15271 121.286 9.16876 121.297 9.18512 121.306C9.16302 121.309 9.13979 121.314 9.11775 121.315C8.65339 121.085 8.18901 120.855 7.72453 120.625C8.19512 120.842 8.66576 121.059 9.13635 121.277ZM32.332 111.642C32.7053 111.492 33.0788 111.342 33.4522 111.192C33.4351 111.56 33.4178 111.927 33.4006 112.294C33.0444 112.077 32.6881 111.859 32.332 111.642ZM91.4778 97.2595C91.6498 97.2144 91.8915 97.4346 92.1009 97.5376C91.9712 97.7084 91.8628 97.992 91.6916 98.0372C91.5166 98.0831 91.2801 97.8952 91.0705 97.8094C91.2034 97.6152 91.3058 97.3049 91.4778 97.2595ZM177.163 71.7113C177.329 71.6717 177.547 71.8507 177.742 71.9351C177.621 72.1097 177.499 72.2842 177.366 72.4763C177.19 72.3863 177.011 72.2951 176.832 72.2036C176.941 72.0299 177.022 71.7449 177.163 71.7113ZM177.186 75.445C176.959 75.6416 176.731 75.8381 176.504 76.0347C176.511 75.7294 176.518 75.4242 176.525 75.119C176.745 75.2276 176.966 75.3363 177.186 75.445ZM175.549 78.1546C175.536 78.1635 175.523 78.1746 175.511 78.1834C175.488 78.1528 175.464 78.1358 175.442 78.1033C175.727 77.4733 176.012 76.8431 176.298 76.2132C176.367 76.1537 176.435 76.0942 176.504 76.0347C176.502 76.1252 176.5 76.2156 176.498 76.3061C176.182 76.9223 175.865 77.5385 175.549 78.1546ZM102.838 105.141C102.705 104.765 102.573 104.39 102.441 104.014C102.778 104.027 103.116 104.039 103.454 104.051C103.248 104.414 103.043 104.778 102.838 105.141ZM102.299 104.009C102.299 104.008 102.299 104.008 102.299 104.007C102.326 103.951 102.352 103.895 102.379 103.839C102.399 103.898 102.42 103.956 102.441 104.014C102.393 104.013 102.346 104.011 102.299 104.009ZM118.205 104.648C118.202 104.649 118.198 104.649 118.195 104.651C118.123 104.617 118.052 104.583 117.981 104.548C118.286 103.924 118.592 103.299 118.897 102.674C119.191 102.05 119.485 101.425 119.78 100.801C120.085 100.184 120.391 99.5663 120.696 98.949C120.751 98.9409 120.797 98.9276 120.85 98.9183C120.846 98.9498 120.842 98.9815 120.838 99.0131C120.556 99.6414 120.274 100.27 119.992 100.898C119.691 101.52 119.39 102.142 119.089 102.763C118.794 103.391 118.5 104.019 118.205 104.647L118.205 104.647C118.205 104.647 118.205 104.647 118.205 104.648ZM141.657 96.3639C141.624 96.3715 141.593 96.3848 141.56 96.3933C141.524 96.3512 141.489 96.3179 141.453 96.2719C141.525 96.2107 141.596 96.1495 141.667 96.0884C141.664 96.1802 141.66 96.272 141.657 96.3639ZM142.353 95.499C142.124 95.6955 141.895 95.892 141.667 96.0884C141.677 95.7859 141.688 95.4834 141.699 95.1809C141.917 95.287 142.135 95.3929 142.353 95.499ZM94.5804 113.69C94.4729 113.864 94.3654 114.037 94.2579 114.211C94.0933 114.109 93.8203 114.031 93.7926 113.901C93.7616 113.755 93.9528 113.562 94.0474 113.39C94.225 113.49 94.4028 113.59 94.5804 113.69ZM81.2609 120.983C81.4379 121.095 81.6148 121.207 81.7918 121.32C81.6936 121.507 81.5954 121.694 81.4972 121.881C81.4184 121.582 81.3396 121.282 81.2609 120.983ZM140.255 106.012C140.285 106.013 140.315 106.008 140.344 106.007C140.37 106.036 140.393 106.055 140.419 106.086C140.125 106.709 139.831 107.333 139.537 107.956C139.472 108.013 139.406 108.07 139.341 108.128C139.342 108.042 139.344 107.956 139.345 107.87C139.649 107.251 139.952 106.631 140.255 106.012ZM138.605 108.769C138.85 108.556 139.096 108.342 139.341 108.128C139.335 108.447 139.33 108.766 139.324 109.086C139.085 108.98 138.845 108.875 138.605 108.769ZM150.074 111.857C150.121 111.857 150.168 111.847 150.216 111.844C150.222 111.874 150.233 111.9 150.239 111.931C149.947 112.555 149.655 113.18 149.363 113.804C149.295 113.864 149.227 113.923 149.159 113.982C149.161 113.893 149.162 113.804 149.163 113.715C149.467 113.096 149.77 112.476 150.074 111.857ZM148.384 114.656C148.642 114.431 148.901 114.207 149.159 113.982C149.154 114.31 149.149 114.638 149.144 114.965C148.89 114.862 148.637 114.759 148.384 114.656ZM154.282 115.016C154.374 114.985 154.465 114.954 154.557 114.924C154.53 114.983 154.502 115.042 154.475 115.101C154.409 115.161 154.343 115.222 154.277 115.282C154.279 115.193 154.28 115.105 154.282 115.016ZM153.58 115.922C153.813 115.709 154.045 115.495 154.277 115.282C154.272 115.588 154.267 115.895 154.262 116.201C154.035 116.108 153.808 116.015 153.58 115.922ZM119.497 130.31C119.383 129.981 119.27 129.652 119.156 129.322C119.508 129.446 119.86 129.569 120.211 129.692C119.973 129.898 119.735 130.104 119.497 130.31ZM118.908 129.235C118.878 129.15 118.848 129.064 118.818 128.979C118.89 128.977 118.963 128.975 119.036 128.973C119.076 129.089 119.116 129.206 119.156 129.322C119.074 129.293 118.991 129.264 118.908 129.235L118.908 129.235ZM114.295 134.852C114.086 135.031 113.877 135.21 113.669 135.39C113.67 135.12 113.67 134.851 113.671 134.581C113.879 134.671 114.087 134.762 114.295 134.852ZM112.737 137.601C112.687 137.618 112.635 137.633 112.584 137.649C112.567 137.603 112.551 137.556 112.535 137.51C112.826 136.878 113.118 136.245 113.409 135.613C113.496 135.538 113.582 135.464 113.669 135.39C113.668 135.503 113.668 135.616 113.667 135.729C113.357 136.353 113.047 136.978 112.737 137.601ZM161.724 118.572C161.804 118.503 161.883 118.434 161.963 118.365C161.969 118.471 161.982 118.572 161.979 118.688C161.88 118.827 161.781 118.965 161.682 119.104C161.696 118.927 161.708 118.749 161.724 118.572ZM161.132 119.872C161.315 119.616 161.499 119.36 161.682 119.104C161.663 119.328 161.64 119.551 161.598 119.77C161.586 119.832 161.294 119.84 161.132 119.872ZM110.239 139.835C110.32 139.807 110.4 139.779 110.481 139.75C110.49 139.819 110.484 139.875 110.498 139.949C110.201 140.572 109.903 141.194 109.606 141.816C109.516 141.894 109.426 141.971 109.336 142.049C109.34 141.933 109.343 141.818 109.347 141.702C109.644 141.08 109.942 140.458 110.239 139.835ZM170.26 120.257C170.303 120.299 170.345 120.341 170.387 120.384C170.31 120.407 170.245 120.435 170.164 120.456C169.539 120.152 168.914 119.848 168.289 119.544C168.279 119.443 168.28 119.359 168.276 119.267C168.34 119.323 168.383 119.361 168.383 119.361C169.009 119.66 169.635 119.958 170.26 120.257ZM120.183 140.993C120.202 141.025 120.218 141.053 120.237 141.085C120.18 141.142 120.129 141.193 120.071 141.251C119.443 140.946 118.815 140.64 118.187 140.335L118.187 140.335C117.563 140.043 116.938 139.75 116.313 139.458C116.279 139.393 116.242 139.357 116.206 139.3C116.281 139.269 116.357 139.237 116.431 139.209C117.054 139.504 117.676 139.8 118.299 140.096C118.927 140.395 119.555 140.694 120.183 140.993ZM115.845 143.615C115.622 143.827 115.398 144.038 115.174 144.25C115.179 143.947 115.183 143.644 115.188 143.341C115.407 143.433 115.626 143.524 115.845 143.615ZM115.17 144.5C115.118 144.494 115.064 144.487 115.012 144.481C115.006 144.461 114.999 144.442 114.992 144.422C115.053 144.364 115.113 144.307 115.174 144.25C115.173 144.333 115.171 144.417 115.17 144.5ZM172.484 122.578C172.506 122.571 172.528 122.563 172.55 122.555C172.584 122.588 172.617 122.621 172.65 122.654C172.365 123.279 172.081 123.904 171.796 124.529C171.711 124.605 171.626 124.682 171.541 124.758C171.543 124.646 171.544 124.533 171.545 124.42C171.858 123.806 172.171 123.192 172.484 122.578ZM177.214 122.502C177.217 122.509 177.219 122.516 177.221 122.522C177.205 122.545 177.194 122.564 177.176 122.588C176.543 122.304 175.91 122.02 175.277 121.737C175.266 121.693 175.254 121.648 175.243 121.604C175.282 121.59 175.321 121.576 175.361 121.562C175.978 121.876 176.596 122.189 177.214 122.502ZM170.928 125.312C171.132 125.128 171.337 124.943 171.541 124.758C171.538 125.029 171.535 125.3 171.532 125.571C171.331 125.485 171.129 125.398 170.928 125.312ZM112.694 146.744C112.755 146.723 112.818 146.702 112.879 146.681C112.899 146.737 112.919 146.794 112.939 146.85C112.639 147.472 112.339 148.094 112.038 148.715C112.038 148.715 111.974 148.688 111.91 148.66C111.846 148.632 111.782 148.604 111.782 148.604C112.086 147.984 112.39 147.364 112.693 146.744L112.694 146.744ZM111.153 149.502C111.358 149.319 111.564 149.137 111.77 148.954C111.76 149.227 111.75 149.5 111.741 149.773C111.545 149.682 111.349 149.592 111.153 149.502ZM111.782 148.604L111.91 148.66L112.038 148.715C111.949 148.795 111.859 148.874 111.77 148.954C111.774 148.837 111.778 148.721 111.782 148.604ZM118.547 154.006C118.56 154.045 118.574 154.085 118.588 154.124C118.534 154.164 118.487 154.2 118.431 154.242C117.808 153.932 117.185 153.623 116.562 153.313C116.575 153.269 116.586 153.224 116.599 153.18C116.615 153.167 116.632 153.154 116.648 153.141C117.281 153.429 117.914 153.718 118.547 154.006ZM112.937 156.048C112.956 156.033 112.975 156.019 112.994 156.004C112.994 156.028 112.992 156.05 112.993 156.074C112.711 156.703 112.429 157.331 112.147 157.96C111.862 158.587 111.576 159.213 111.29 159.84C111.211 159.904 111.132 159.968 111.053 160.032C111.059 159.935 111.065 159.837 111.071 159.74C111.38 159.124 111.688 158.507 111.996 157.891C112.31 157.277 112.623 156.663 112.937 156.048ZM188.987 129.329C188.931 129.349 188.876 129.368 188.82 129.388C188.799 129.332 188.779 129.277 188.758 129.221C188.808 129.225 188.858 129.229 188.907 129.233C188.934 129.265 188.96 129.297 188.987 129.329L188.872 129.275C188.929 129.302 188.987 129.329 188.987 129.329ZM189.411 130.588C189.412 130.588 189.412 130.588 189.413 130.589C189.385 130.645 189.357 130.701 189.33 130.757C189.298 130.671 189.266 130.585 189.234 130.499C189.293 130.529 189.352 130.558 189.411 130.588ZM188.82 129.388C188.958 129.758 189.096 130.129 189.234 130.499C188.74 130.253 188.247 130.007 187.753 129.761C188.109 129.637 188.464 129.512 188.82 129.388ZM119.075 155.529C119.039 155.607 119.003 155.685 118.967 155.762C118.928 155.65 118.889 155.538 118.849 155.427C118.849 155.427 118.906 155.452 118.962 155.478C119.019 155.504 119.076 155.529 119.075 155.529ZM119.339 156.826C118.995 156.944 118.65 157.062 118.306 157.18C118.526 156.708 118.747 156.235 118.967 155.762C119.091 156.117 119.215 156.471 119.339 156.826ZM118.193 157.423C118.13 157.437 118.075 157.458 118.014 157.474C117.994 157.417 117.973 157.359 117.953 157.301C118.07 157.261 118.188 157.221 118.306 157.18C118.268 157.261 118.23 157.342 118.193 157.423ZM110.32 160.628C110.564 160.429 110.808 160.231 111.053 160.032C111.033 160.349 111.013 160.666 110.994 160.984C110.769 160.865 110.544 160.746 110.32 160.628ZM108.96 162.997C108.852 163.171 108.767 163.462 108.629 163.49C108.46 163.524 108.247 163.338 108.053 163.247C108.162 163.054 108.239 162.743 108.39 162.702C108.542 162.661 108.767 162.887 108.96 162.997ZM112.243 166.15C112.501 165.939 112.76 165.728 113.018 165.517C112.989 165.852 112.959 166.186 112.929 166.52C112.701 166.397 112.472 166.273 112.243 166.15ZM113.04 165.273C113.127 165.241 113.214 165.21 113.301 165.179C113.273 165.238 113.246 165.296 113.218 165.354C113.151 165.409 113.085 165.463 113.018 165.517C113.025 165.436 113.033 165.354 113.04 165.273ZM110.113 169.284C110.025 169.349 109.936 169.415 109.848 169.481C109.545 170.1 109.241 170.719 108.937 171.338C108.932 171.452 108.927 171.566 108.922 171.68C109.013 171.604 109.103 171.527 109.193 171.451L109.193 171.451C109.491 170.829 109.788 170.206 110.086 169.584C110.095 169.484 110.104 169.384 110.113 169.284ZM109.149 171.432L109.155 171.434C109.153 171.433 109.151 171.433 109.149 171.432ZM110.814 168.761C110.58 168.935 110.346 169.109 110.113 169.284C110.14 168.979 110.167 168.674 110.195 168.369C110.401 168.499 110.607 168.63 110.814 168.761ZM108.254 172.245C108.477 172.057 108.7 171.869 108.922 171.68C108.91 171.967 108.898 172.253 108.885 172.539C108.675 172.441 108.465 172.343 108.254 172.245ZM113.724 171.27C113.724 171.29 113.731 171.307 113.733 171.327C113.712 171.346 113.692 171.365 113.671 171.384C113.635 171.343 113.599 171.302 113.562 171.262C113.616 171.264 113.67 171.267 113.724 171.27ZM112.864 170.482C113.097 170.742 113.329 171.002 113.562 171.262C113.218 171.245 112.874 171.228 112.531 171.212C112.642 170.968 112.753 170.725 112.864 170.482ZM111.803 176.125C111.591 176.294 111.379 176.463 111.167 176.632C111.187 176.354 111.208 176.076 111.228 175.798C111.42 175.907 111.611 176.016 111.803 176.125ZM109.355 180.706C109.257 180.849 109.159 180.993 109.061 181.136C109.074 180.955 109.084 180.773 109.098 180.592C109.402 179.973 109.706 179.354 110.011 178.735C110.301 178.109 110.592 177.484 110.882 176.858C110.977 176.783 111.072 176.707 111.167 176.632C111.159 176.745 111.15 176.858 111.142 176.971C110.847 177.596 110.552 178.22 110.257 178.844C109.956 179.465 109.656 180.085 109.355 180.706ZM108.539 181.9C108.713 181.645 108.887 181.39 109.061 181.136C109.045 181.35 109.025 181.563 108.985 181.773C108.973 181.841 108.694 181.859 108.539 181.9ZM105.497 185.445C105.66 185.409 105.875 185.603 106.067 185.697C105.949 185.876 105.832 186.055 105.714 186.233C105.534 186.139 105.353 186.045 105.172 185.95C105.278 185.772 105.358 185.476 105.497 185.445ZM105.84 192.798C105.802 192.878 105.763 192.958 105.725 193.038C105.686 192.927 105.648 192.815 105.609 192.703L105.609 192.704C105.907 192.078 106.205 191.452 106.503 190.827C106.662 190.773 106.822 190.718 106.981 190.663C106.898 190.751 106.815 190.839 106.732 190.927L106.732 190.927C106.434 191.551 106.137 192.174 105.84 192.798C105.84 192.798 105.8 192.782 105.755 192.763L105.84 192.798ZM106.089 194.082C105.745 194.202 105.401 194.322 105.056 194.442C105.279 193.974 105.502 193.506 105.725 193.038C105.847 193.386 105.968 193.734 106.089 194.082ZM106.29 194.012C106.249 194.098 106.208 194.183 106.167 194.269C106.163 194.27 106.16 194.272 106.156 194.273C106.133 194.209 106.111 194.146 106.089 194.082C106.156 194.059 106.223 194.035 106.29 194.012ZM104.951 194.664C104.9 194.707 104.849 194.75 104.798 194.793C104.771 194.716 104.744 194.638 104.717 194.56C104.83 194.521 104.943 194.482 105.056 194.442C105.021 194.516 104.986 194.59 104.951 194.664ZM104.798 194.793C104.917 195.137 105.036 195.481 105.156 195.825C104.779 195.7 104.402 195.574 104.025 195.449C104.283 195.23 104.54 195.012 104.798 194.793ZM108.713 142.587C108.92 142.408 109.128 142.228 109.336 142.049C109.327 142.324 109.319 142.6 109.31 142.876C109.111 142.779 108.912 142.683 108.713 142.587Z" fill="#DAF6F0"/>
</svg>
