<svg width="35" height="35" viewBox="0 0 35 35" fill="none" xmlns="http://www.w3.org/2000/svg">
<path d="M31.3128 0H3.68722C1.65067 0 0 1.65782 0 3.68722V31.3128C0 33.3493 1.65782 35 3.68722 35H31.3128C33.3493 35 35 33.3422 35 31.3128V3.68722C35 1.65782 33.3422 0 31.3128 0ZM33.2493 31.3128H33.2493C33.2493 32.3775 32.3775 33.2493 31.3128 33.2493H3.68722C2.6225 33.2493 1.75071 32.3775 1.75071 31.3128V3.68722C1.75071 2.6225 2.6225 1.75071 3.68722 1.75071H31.3128C32.3775 1.75071 33.2493 2.6225 33.2493 3.68722V31.3128ZM24.067 12.7123C24.41 13.0553 24.41 13.6056 24.067 13.9486L15.6778 22.2877C15.5135 22.452 15.292 22.5449 15.0633 22.5449C14.8275 22.5449 14.606 22.452 14.4416 22.2877L10.933 18.7577C10.59 18.4147 10.59 17.8644 10.933 17.5214C11.276 17.1784 11.8263 17.1784 12.1693 17.5214L15.0633 20.4298L22.8307 12.7123C23.1737 12.3693 23.724 12.3693 24.067 12.7123Z" fill="#C0986D"/>
</svg>
