<svg width="75" height="75" viewBox="0 0 75 75" fill="none" xmlns="http://www.w3.org/2000/svg">
<path d="M74.7922 22.5629L74.7832 22.5509L58.8407 0.430658C58.6149 0.156505 58.2736 0 57.9014 0C57.8988 0 57.8963 0 57.8936 0C57.5259 0.00216269 57.1915 0.158163 56.975 0.428351L41.0308 22.5509C40.7646 22.9247 40.7058 23.4121 40.8859 23.7612C41.1005 24.1776 41.5867 24.2649 41.9568 24.2649H50.2973V73.8167C50.2973 74.5381 50.9035 74.9846 51.465 74.9846H64.1942C64.7409 74.9846 65.3788 74.5344 65.5167 73.7791V24.2804H73.8572C74.4821 24.2804 74.7627 23.9758 74.8881 23.7203C75.0679 23.3539 75.0276 22.8671 74.7922 22.5629ZM64.1787 21.9295C63.4575 21.9295 63.0111 22.5356 63.0111 23.0972V72.649H52.4622V23.0972C52.4622 22.3759 51.8562 21.9295 51.2947 21.9295H43.9842L57.7367 2.96876L71.4891 21.9295H64.1787ZM39.0455 35.0159H26.3163C25.5951 35.0159 25.1487 35.622 25.1487 36.1836V73.8167C25.1487 74.5381 25.7548 74.9846 26.3163 74.9846H39.0455C39.6071 74.9846 40.2131 74.5381 40.2131 73.8167V36.1836C40.2131 35.4623 39.6071 35.0159 39.0455 35.0159ZM37.8779 72.649H27.484V37.3668H37.8779V72.649ZM13.8969 40.5137H1.16767C0.44641 40.5137 0 41.1199 0 41.6814V73.8323C0 74.5536 0.606146 75 1.16767 75H13.8969C14.4584 75 15.0645 74.5536 15.0645 73.8323V41.6814C15.0645 40.9601 14.4584 40.5137 13.8969 40.5137ZM12.7292 72.649H2.33527V42.8491H12.7292V72.649Z" fill="#DAC6B0"/>
</svg>
