<svg width="18" height="23" viewBox="0 0 18 23" fill="none" xmlns="http://www.w3.org/2000/svg">
<path d="M8.97707 0.000495518C8.96642 0.00082549 8.95586 0.00148734 8.94529 0.00239524C8.94191 0.00272521 8.93845 0.00280913 8.93507 0.00322112C8.92079 0.00479087 8.9065 0.00702056 8.89239 0.00966224L8.8874 0.0106522C8.80247 0.0274979 8.72269 0.0639969 8.65847 0.118993L0.132995 7.40517C-0.0487865 7.56595 -0.0435468 7.82218 0.144573 7.97751C0.187251 8.01269 0.235844 8.03936 0.287395 8.05827L0.289339 8.05893C0.302269 8.06364 0.315283 8.06768 0.328467 8.07132L0.3332 8.07264C0.345285 8.07586 0.357454 8.0785 0.369708 8.08098C0.372581 8.08147 0.375286 8.08213 0.378159 8.08263C0.388976 8.08453 0.399878 8.08585 0.41078 8.08709C0.415174 8.08767 0.419569 8.08833 0.423964 8.08874C0.433006 8.08948 0.442049 8.0899 0.451091 8.09023C0.45743 8.09056 0.463768 8.09089 0.470106 8.09097C0.476867 8.09105 0.483628 8.09072 0.490389 8.09047C0.499093 8.09023 0.507713 8.09006 0.516333 8.08948C0.520221 8.08915 0.524108 8.08858 0.527996 8.08816C0.539404 8.08709 0.550729 8.08585 0.562053 8.08403L0.563236 8.08387C0.650874 8.06966 0.734877 8.0344 0.803668 7.97751L8.52012 1.38201L8.52012 22.5953C8.52021 22.738 8.60666 22.8632 8.73706 22.9354L8.73943 22.9367C8.75337 22.9444 8.76808 22.9512 8.78295 22.9575C8.80053 22.965 8.81853 22.9718 8.83721 22.9774L8.84143 22.9785C8.85817 22.9834 8.87524 22.9873 8.89264 22.9905C8.9038 22.9926 8.91504 22.9943 8.92645 22.9957C8.94538 22.9979 8.96465 22.9997 8.98417 23C8.98628 23.0001 8.98848 22.9998 8.99059 22.9999C9.01358 23 9.03682 22.9989 9.06048 22.9961C9.07451 22.9944 9.08854 22.9924 9.10274 22.9897C9.11499 22.9873 9.12733 22.9845 9.13967 22.9813L9.14322 22.9806C9.15015 22.9787 9.15725 22.9764 9.16418 22.9743C9.17077 22.9723 9.17736 22.9706 9.18404 22.9683C9.27936 22.9363 9.37613 22.8787 9.46748 22.7898L9.46748 1.38201L17.1839 7.97751C17.1959 7.98775 17.2084 7.99724 17.2214 8.00624C17.431 8.15587 17.7577 8.12739 17.9225 7.91599C18.0453 7.75835 18.0192 7.55042 17.8653 7.41425C17.8615 7.41087 17.8577 7.40756 17.8538 7.40434L9.32829 0.118167L9.3272 0.117342C9.31874 0.110157 9.3097 0.103387 9.30058 0.0967804C9.29812 0.0949646 9.29584 0.0930649 9.29339 0.0913311C9.25249 0.062677 9.20559 0.040134 9.15496 0.0245262C9.14896 0.0226265 9.14305 0.0207268 9.13696 0.019075C9.13003 0.0172592 9.12302 0.0156074 9.11592 0.0139557C9.10907 0.0123859 9.10223 0.010984 9.09538 0.00966223C9.08888 0.00850638 9.08245 0.00726851 9.07586 0.00627669C9.0631 0.00429495 9.05042 0.00280913 9.03758 0.00181731C9.03285 0.00140532 9.02803 0.0013214 9.0233 0.00107344C9.01349 0.000577533 9.00369 0.000247562 8.99389 0.000247562C8.99085 0.000247562 8.98806 -3.9288e-07 8.98501 -3.92747e-07C8.98231 8.16234e-05 8.97969 0.000413502 8.97707 0.000495518Z" fill="#C0986D"/>
</svg>
