<svg width="14" height="25" viewBox="0 0 14 25" fill="none" xmlns="http://www.w3.org/2000/svg">
<path d="M12.4156 0H1.58477C0.709319 0 0 0.725774 0 1.62143V23.3786C0 24.2742 0.709366 25 1.58477 25H12.4152C13.2907 25 14 24.2742 14 23.3786V1.62143C14.0004 0.725774 13.2911 0 12.4156 0ZM8.2548 23.8348C8.2548 24.0587 8.07713 24.24 7.85827 24.24H6.12499C5.90568 24.24 5.72846 24.0587 5.72846 23.8348V23.48C5.72846 23.2561 5.90568 23.0748 6.12499 23.0748H7.85827C8.07713 23.0748 8.2548 23.2561 8.2548 23.48V23.8348ZM12.9435 22.5677H0.924324V2.50001H12.9435V22.5677Z" fill="#F2DAC1"/>
</svg>
