<svg width="22" height="22" viewBox="0 0 22 22" fill="none" xmlns="http://www.w3.org/2000/svg">
<path d="M3.2749 0.252973L20.1088 9.01209C21.2066 9.58328 21.6335 10.9362 21.0623 12.034C20.8499 12.4422 20.517 12.7751 20.1088 12.9875L3.2749 21.7466C2.17713 22.3178 0.824169 21.8909 0.252973 20.7931C0.0867742 20.4737 0 20.1189 0 19.7589V2.24066C0 1.00318 1.00318 0 2.24066 0C2.54928 0 2.85402 0.0637526 3.13593 0.186629L3.2749 0.252973ZM2.47933 1.78196L2.40315 1.74978C2.3509 1.73248 2.29605 1.72358 2.24066 1.72358C1.95508 1.72358 1.72358 1.95508 1.72358 2.24066V19.7589C1.72358 19.842 1.74361 19.9238 1.78196 19.9976C1.91377 20.2509 2.226 20.3494 2.47933 20.2176L19.3132 11.4585C19.4074 11.4095 19.4843 11.3326 19.5333 11.2384C19.6651 10.9851 19.5666 10.6729 19.3132 10.5411L2.47933 1.78196Z" fill="white"/>
</svg>
