<svg width="12" height="10" viewBox="0 0 12 10" fill="none" xmlns="http://www.w3.org/2000/svg">
<path d="M11.7833 1.38019L10.73 0.235535C10.5858 0.0786133 10.4105 0 10.2039 0C9.99744 0 9.82172 0.0786133 9.67731 0.235535L4.59851 5.76636L2.32269 3.28271C2.17792 3.12585 2.0025 3.04712 1.79608 3.04712C1.5896 3.04712 1.41418 3.12585 1.26947 3.28271L0.216675 4.42737C0.0723267 4.58484 0 4.77539 0 5.00006C0 5.22455 0.0723267 5.41559 0.216675 5.57263L3.0191 8.61981L4.07239 9.76453C4.21667 9.92188 4.39209 10 4.59851 10C4.80499 10 4.98041 9.92188 5.12506 9.76453L6.17792 8.61981L11.7833 2.52533C11.9276 2.3681 12 2.17731 12 1.95288C12 1.72839 11.9276 1.5376 11.7833 1.38019Z" fill="#C0986D"/>
</svg>
