<svg width="206" height="294" viewBox="0 0 206 294" fill="none" xmlns="http://www.w3.org/2000/svg">
<path d="M89.3344 6.87226C89.8055 11.1411 89.7624 15.3559 88.7302 19.5387C88.4627 20.6382 90.194 20.9156 90.4575 19.8293C91.5242 15.5011 91.5672 11.1202 91.0765 6.70992C90.9513 5.58727 89.2096 5.74966 89.3344 6.87226ZM74.3266 20.7238C75.2774 20.1249 76.3165 21.5398 75.3619 22.1373C74.9946 22.552 74.8109 23.0263 74.8097 23.5688C74.6505 24.6816 72.9258 24.3987 73.0827 23.278C73.2283 22.2879 73.4206 21.2917 74.3266 20.7238ZM71.3218 28.1107C71.2253 28.236 71.1293 28.3673 71.0319 28.4959C70.541 29.5139 68.9444 28.7982 69.434 27.7778C69.7579 27.1042 70.0151 26.7772 70.7004 26.4741C71.7368 26.0175 72.3494 27.6603 71.3218 28.1107ZM21.9417 116.322C21.825 117.464 21.7111 118.614 21.5953 119.759C21.4798 120.881 19.755 120.584 19.8665 119.467C19.9833 118.324 20.099 117.179 20.2148 116.034C20.3289 114.906 22.0534 115.204 21.9417 116.322ZM489.05 25.1624C428.683 0.290166 371.46 47.3721 329.043 85.5164C286.219 124.031 240.106 176.569 179.168 183.042C168.499 184.175 156.775 182.97 145.037 179.879C134.532 179.443 119.23 183.422 126.944 196.326C132.301 205.289 145.045 204.505 153.818 203.361C164.285 201.997 173.672 197.893 184.262 197.213C191.279 196.759 210.655 196.465 204.854 208.374C204.361 209.387 202.759 208.679 203.256 207.656C209.496 194.84 174.663 199.897 169.386 201.39C158.052 204.598 141.571 209.956 130.837 202.281C115.481 191.3 126.817 180.494 140.1 178.464C108.158 168.606 77.1843 145.066 68.2091 116.228C58.3504 84.5504 87.0646 32.5364 122.086 32.1738C124.323 32.1507 124.675 35.6388 122.413 35.6631C107.158 35.8222 95.4119 44.9463 86.8827 57.0169C94.0908 55.1085 101.808 65.2739 99.9895 73.5596C98.3944 80.8299 92.9976 86.7417 91.4411 94.4245C90.1725 100.69 86.5492 121.927 98.5465 119.442C99.6516 119.212 99.8054 120.96 98.7113 121.189C89.4571 123.106 88.313 113.621 88.3227 106.428C88.3333 100.27 89.5648 94.0358 91.092 88.0991C91.4465 86.7056 91.9059 85.347 92.44 84.0141C93.4506 82.1134 94.5295 80.2498 95.6656 78.4249C99.8536 71.4627 93.4042 51.975 85.0024 59.7923C79.1255 68.9106 74.9553 79.3611 72.3856 88.8046C64.8072 116.68 81.4483 137.901 102.296 154.251C123.581 170.948 151.842 180.6 178.839 179.556C212.043 178.267 245.567 153.539 270.572 133.738C330.202 86.5278 402.477 -14.2914 490.487 21.9672C492.58 22.8296 491.137 26.0217 489.05 25.1624ZM490.416 30.5111C492.628 30.9444 492.059 34.4006 489.835 33.9661C395.573 15.5642 349.689 126.235 307.232 189.933C305.977 191.815 303.261 189.595 304.505 187.735C347.784 122.809 394.342 11.7557 490.416 30.5111ZM52.8938 244.753C120.664 323.232 216.185 262.462 280.68 212.737C282.475 211.356 284.536 214.192 282.753 215.566C216.339 266.763 119.186 326.862 50.0648 246.825C48.5852 245.11 51.4278 243.059 52.8938 244.753ZM495.703 27.586C493.59 28.3882 492.349 25.1199 494.462 24.3176C496.575 23.5153 497.816 26.7836 495.703 27.586ZM464.387 72.3258C461.604 85.4613 468.289 94.6231 480.848 97.7918C491.912 100.581 501.88 94.9123 508.494 86.5023C520.55 71.1735 520.136 44.3921 502.021 34.1882C500.066 33.0895 501.487 29.8831 503.457 30.9932C525.181 43.2307 524.969 76.9659 507.353 93.1698C488.971 110.083 455.025 99.6109 460.932 71.7453C461.398 69.5437 464.858 70.1055 464.387 72.3258ZM485.526 66.1458C480.773 63.3106 475.89 63.0918 471.219 66.1876C469.336 67.4301 467.267 64.6082 469.144 63.3592C474.807 59.6144 481.121 59.4621 486.962 62.9508C488.878 64.0902 487.466 67.2989 485.526 66.1458ZM47.2248 51.5187C47.8813 42.0173 43.6847 34.4383 35.3848 33.0883C35.1949 32.9874 34.9816 32.9666 34.7741 33.014C33.1507 32.8138 31.3955 32.8178 29.4787 33.111C26.4057 33.5829 24.2743 35.4866 22.7826 38.0953C22.4156 38.2436 22.155 38.6068 22.2672 39.0657C19.2054 45.4234 19.4252 55.1473 19.8014 60.0423C21.6462 83.8715 32.5791 104.772 41.26 126.711C41.3793 127.015 41.5587 127.23 41.761 127.401C43.2374 130.968 45.0938 134.417 47.5231 137.67C48.8747 139.477 51.7049 137.416 50.3519 135.604C31.8224 110.792 45.3394 78.9438 47.2248 51.5187ZM33.267 42.776C35.0792 47.4031 38.0937 51.696 40.2471 56.0408C40.7461 57.0444 42.3867 56.427 41.889 55.4173C39.9331 51.4786 37.2079 47.5848 35.3872 43.4356C36.8778 43.9582 38.5127 44.6587 40.2823 45.5252C41.4098 47.3324 42.5452 49.137 43.6358 50.9686C43.5763 53.9432 43.3791 56.9053 42.885 59.8453C40.2371 75.3005 36.3225 92.8497 37.5976 109.248C34.5365 102.308 31.4915 95.3045 29.0287 88.1692C29.4752 88.0416 29.855 87.6077 29.6701 87.0359C29.1776 85.5427 29.2173 84.1454 29.514 82.6159C29.7269 81.4999 28 81.2181 27.784 82.3267C27.6907 82.8115 27.6271 83.285 27.5885 83.7534C26.1786 79.1371 25.0544 74.4614 24.3795 69.7057C24.3648 69.6019 24.3501 69.4953 24.3353 69.3913C25.6301 73.6025 27.6057 77.5479 30.4654 80.93C31.1889 81.7849 32.6086 80.7584 31.8789 79.8941C28.8563 76.3217 26.8423 72.1515 25.6119 67.6575C25.3899 66.8483 24.4366 66.9893 24.0777 67.5565C23.6867 64.7341 23.3318 61.837 23.1518 58.9388C24.7791 63.4774 26.331 68.1721 29.2829 72.0162C29.9687 72.9086 31.3849 71.8804 30.6937 70.9815C28.3118 67.8739 26.8834 64.1812 25.5637 60.4895C26.2003 61.0483 27.3028 60.1289 26.7898 59.2498C25.4645 56.9831 24.1551 54.7298 23.1307 52.3152C23.1964 51.3421 23.287 50.3745 23.4294 49.4193C23.4304 49.3635 23.4387 49.3166 23.4404 49.2615C24.1691 50.9908 24.9534 52.6956 25.8444 54.3522C26.3709 55.3309 28.0166 54.726 27.4838 53.7297C26.1345 51.2221 25.0296 48.6051 23.9933 45.957C24.1635 45.4651 24.371 45.0187 24.6207 44.6247C26.1409 47.9123 27.8243 51.1147 29.6886 54.2433C30.2681 55.2105 31.6773 54.1705 31.1048 53.2066C29.1788 49.9754 27.4539 46.6646 25.9128 43.2566C26.7183 42.6856 27.7145 42.3506 28.9139 42.2658C32.2616 48.269 34.9486 54.606 38.1588 60.6908C38.6787 61.6748 40.3216 61.0626 39.7979 60.0684C36.7087 54.2223 34.0931 48.1448 30.9467 42.3359C31.6717 42.4224 32.4373 42.5599 33.267 42.776ZM43.6777 47.2909C43.6825 47.4179 43.6691 47.5429 43.6735 47.6697C43.5557 47.4802 43.439 47.2899 43.3211 47.1004C43.4426 47.1672 43.555 47.2227 43.6777 47.2909ZM44.4163 147.031C32.849 134.616 30.5464 118.97 22.3057 104.985C19.142 99.6137 14.2947 95.5642 10.4535 102.575C9.36569 104.559 12.5686 105.978 13.6482 104.011C16.7231 98.4016 23.2699 115.364 24.2503 118.112C25.0332 120.303 25.8624 122.453 26.7245 124.578C26.1275 124.103 25.0182 124.673 25.3564 125.563C26.1263 127.591 26.8834 129.615 27.1963 131.776C27.2134 131.89 27.2562 131.982 27.3024 132.069C21.5867 125.51 16.4475 118.598 13.5541 110.061C12.8326 107.92 9.55898 109.169 10.2857 111.302C14.9587 125.095 25.2693 134.819 34.7064 145.473C35.802 146.708 37.6296 145.907 37.9093 144.725C39.0661 146.218 40.2717 147.687 41.5901 149.102C43.1057 150.732 45.9547 148.681 44.4163 147.031ZM27.7798 127.12C29.7859 131.768 32.089 136.217 34.8494 140.424C32.4088 137.742 29.9491 135.09 27.5794 132.383C28.1337 132.739 29.0619 132.44 28.9437 131.611C28.7154 130.068 28.2821 128.585 27.7798 127.12ZM12.4927 105.71C12.5381 105.45 12.6887 105.21 13.0107 105.088C13.3315 104.966 13.657 104.842 13.9731 104.722C15.0326 104.32 15.6551 105.959 14.5956 106.362C14.2795 106.482 13.954 106.605 13.6332 106.727C13.392 106.819 13.1785 106.794 12.9974 106.712C13.6498 108.757 10.4977 109.927 9.71005 107.852C9.67008 107.747 9.62826 107.637 9.58823 107.531C8.87684 105.658 11.3598 104.482 12.4927 105.71ZM105.686 4.38831C104.49 4.11422 103.306 3.95481 102.131 3.85842C102.138 3.8762 102.152 3.88521 102.158 3.90409C103.83 8.78112 103.06 13.8365 101.414 18.6109C101.045 19.68 99.4501 18.9523 99.816 17.8928C101.306 13.5761 102.036 8.93721 100.519 4.52647C100.419 4.23316 100.477 3.97934 100.611 3.77852C99.2059 3.7504 97.8187 3.84001 96.4518 4.04329C97.353 8.60114 96.4394 13.2191 95.7506 17.8194C95.5867 18.934 93.8573 18.6473 94.0255 17.5279C94.6772 13.1595 95.6363 8.69812 94.744 4.34587C91.1148 5.13625 87.6441 6.69972 84.382 8.8193C84.7227 8.87168 85.0097 9.10555 85.0065 9.5654C84.9619 12.6421 85.0449 15.7163 84.552 18.7682C84.3727 19.8828 82.6468 19.5947 82.8219 18.4787C83.2922 15.5787 83.2211 12.6577 83.2592 9.72977C83.2602 9.65696 83.286 9.59932 83.3008 9.53454C81.8363 10.5561 80.4217 11.6971 79.0533 12.9236C79.5276 12.9455 80.0154 13.2983 79.9543 13.9097C79.7228 16.1999 79.4876 18.4889 79.2561 20.7792C79.1434 21.9 77.4174 21.6063 77.5311 20.4877C77.7603 18.2182 77.99 15.9487 78.2204 13.6818C67.997 23.2702 60.7601 37.9719 58.8968 49.3777C58.5349 51.6028 55.0767 51.0293 55.4433 48.7936C59.0271 26.8691 80.6227 -4.94634 106.265 0.930919C108.453 1.43632 107.897 4.89379 105.686 4.38831ZM100.615 22.843C84.8872 31.0464 65.1575 40.0751 59.0023 58.1586C58.2751 60.2989 55.0868 58.8426 55.8075 56.7222C60.1567 43.9441 71.3428 36.2094 81.984 28.785C86.2889 25.7787 99.5367 21.2957 106.009 15.6684C106.177 12.2619 106.579 8.91231 105.895 5.53645C105.674 4.43319 107.415 4.27649 107.638 5.37634C108.202 8.16315 108.045 10.9427 107.868 13.7424C108.946 12.4116 109.605 11.0269 109.624 9.58582C109.537 9.46748 109.47 9.32751 109.462 9.13736C109.45 8.8492 109.438 8.56109 109.426 8.27294C109.373 8.0601 109.378 7.85221 109.296 7.6371C109.1 7.12285 109.151 6.66339 109.344 6.2881C109.316 5.61153 109.289 4.93495 109.261 4.25837C109.212 3.13522 110.96 2.96488 111.006 4.09742C111.023 4.50369 111.04 4.9109 111.056 5.31744C111.675 5.32897 112.279 5.64084 112.567 6.39506C115.641 14.4301 106.724 19.6516 100.615 22.843ZM232.235 220.491C234.03 219.109 236.092 221.942 234.307 223.32C199.122 250.46 139.636 282.394 96.6369 254.912C94.7307 253.692 96.9573 250.985 98.839 252.186C140.135 278.579 198.586 246.451 232.235 220.491ZM208.508 145.086C191.065 151.32 172.705 153.413 157.877 147.721C153.305 147.456 148.922 144.638 144.624 143.346C142.347 142.668 138.273 142.382 138.481 145.79C138.601 147.755 140.561 149.669 141.8 151.037C144.221 153.713 154.401 161.43 146.805 164.074C145.744 164.442 145.116 162.805 146.182 162.432C150.66 160.875 143.72 155.481 142.071 153.827C139.826 151.571 136.915 148.857 136.709 145.474C136.354 139.691 142.635 140.82 148.624 142.778C141.38 137.613 135.527 129.802 131.824 118.721C123.281 93.1825 132.953 56.1847 164.479 56.8197C166.707 56.8655 167.066 60.3541 164.806 60.309C132.838 59.6582 128.356 97.3263 136.299 121.082C146.927 152.87 181.538 151.011 207.267 141.817C209.389 141.055 210.634 144.324 208.508 145.086ZM165.754 98.7282C161.294 98.1907 157.314 94.5287 157.299 89.9119C157.276 84.4232 162.762 82.1022 167.476 82.1101C169.709 82.1167 170.067 85.6053 167.803 85.5994C164.838 85.5924 160.774 86.37 160.787 90.1102C160.802 93.4681 164.316 95.0328 167.128 95.3703C179.343 96.8256 184.759 82.4498 177.504 74.0009C176.03 72.2779 178.874 70.2314 180.333 71.9284C190.329 83.5809 180.831 100.531 165.754 98.7282ZM289.557 93.3242C285.291 96.0106 281.101 98.726 276.399 100.586C274.299 101.421 273.059 98.1489 275.157 97.3151C279.572 95.5671 283.484 93.0175 287.485 90.4974C289.387 89.2992 291.461 92.119 289.557 93.3242ZM45.6681 283.079C40.0422 278.903 35.9237 272.83 31.7018 267.339C27.541 261.916 18.8891 247.649 10.5037 250.004C8.34658 250.614 7.09078 247.346 9.26169 246.733C15.9563 244.851 21.5606 249.949 25.7736 254.595C33.2092 262.804 38.9009 273.707 47.8683 280.348C49.6862 281.699 47.4751 284.417 45.6681 283.079ZM33.9776 276.434C34.4174 276.634 34.8638 276.835 35.3064 277.034C37.3654 277.964 35.9271 281.154 33.8696 280.229C33.427 280.03 32.9813 279.829 32.5387 279.63C30.48 278.703 31.917 275.51 33.9776 276.434ZM47.0215 284.695C52.6264 287.886 58.7097 289.006 65.0521 289.669C67.2959 289.907 66.7081 293.359 64.47 293.128C57.8572 292.433 51.4269 291.215 45.5855 287.89C43.6399 286.785 45.0581 283.58 47.0215 284.695ZM12.0157 251.962C14.352 257.547 19.0021 261.525 22.8182 266.084C24.2734 267.817 21.4326 269.874 19.9941 268.154C15.9428 263.315 11.2227 259.14 8.74508 253.204C7.87385 251.12 11.147 249.886 12.0157 251.962ZM5.95821 171.344C4.99584 171.71 4.03347 172.075 3.0711 172.441C0.958341 173.243 -0.282722 169.975 1.83004 169.172C2.79241 168.807 3.75478 168.442 4.71715 168.076C6.83019 167.274 8.07126 170.542 5.95821 171.344ZM99.5931 113.642C99.354 110.558 99.9794 106.375 102.367 104.144C105.238 101.459 107.582 105.312 108.551 107.737C108.97 108.786 107.332 109.405 106.912 108.359C106.458 107.216 105.919 105.674 104.754 105.055C103.899 104.6 103.079 105.929 102.742 106.505C101.559 108.543 101.156 111.156 101.338 113.479C101.425 114.601 99.6863 114.771 99.5931 113.642ZM118.967 123.973C120.723 123.289 120.758 120.053 120.829 118.569C120.883 117.444 122.611 117.743 122.559 118.858C122.45 121.125 122.135 123.671 120.278 125.207C118.88 126.372 116.87 125.868 115.425 125.106C111.501 123.04 108.386 118.152 107.91 113.788C107.789 112.669 109.531 112.498 109.655 113.624C110.042 117.19 112.337 120.569 115.08 122.785C116.12 123.626 117.606 124.498 118.967 123.973ZM105.96 175.357C107.032 175.666 106.758 177.397 105.671 177.087C97.1786 174.659 89.4939 170.99 83.5829 164.268C80.1905 160.408 79.798 154.587 86.0693 154.738C87.1811 154.766 87.3618 156.51 86.2318 156.48C77.5646 156.272 88.8933 167.129 90.6869 168.484C95.1519 171.853 100.639 173.836 105.96 175.357ZM114.833 178.009C112.986 177.592 111.149 177.22 109.254 177.1C108.134 177.026 108.429 175.305 109.545 175.374C111.326 175.485 113.052 175.827 114.791 176.216C110.987 175.029 107.459 173.272 104.054 171.002C97.9341 166.922 93.8865 160.493 87.6509 156.615C86.6949 156.014 87.8062 154.66 88.7519 155.248C93.4816 158.195 96.9037 162.616 100.981 166.344C106.132 171.067 112.398 174.234 119.248 175.544C120.352 175.756 120.068 177.487 118.957 177.269C117.705 177.03 116.493 176.718 115.301 176.364C116.162 176.762 115.867 178.245 114.833 178.009ZM287.816 146.3C291.796 156.239 312.999 128.653 315.587 124.986C326.612 109.381 336.646 93.902 351.717 81.8534C352.604 81.1465 353.631 82.5662 352.752 83.2668C332.345 99.5816 321.967 123.18 304.283 141.75C300.258 145.983 289.935 156.297 286.177 146.922C285.756 145.875 287.396 145.255 287.816 146.3ZM245.394 161.935C245.609 160.83 247.34 161.116 247.119 162.226C245.325 171.433 257.274 160.814 259.722 158.645C262.877 155.847 265.663 152.664 268.735 149.774C271.114 147.543 284.347 134.067 286.475 142.768C286.74 143.852 285.105 144.484 284.836 143.391C283.438 137.67 268.286 152.617 266.973 153.924C264.204 156.682 261.517 159.437 258.541 161.987C254.377 165.555 243.189 173.216 245.394 161.935ZM90.1746 249.532C85.4846 244.989 77.09 232.156 83.8797 226.059C95.4646 215.661 108.48 235.458 117.916 238.961C118.975 239.356 118.251 240.952 117.197 240.558C107.077 236.802 101.708 224.801 89.8562 225.404C76.8884 226.067 86.575 243.618 91.2765 248.167C92.0783 248.949 90.9851 250.314 90.1746 249.532ZM40.0096 242.849C37.7296 239.548 36.4256 235.607 34.7143 232.007C33.6794 229.825 32.4726 227.562 30.5736 226.012C29.7868 225.367 27.1083 224.113 27.6857 226.019C29.1969 230.979 33.7445 235.094 36.7535 239.182C37.4205 240.093 36.005 241.124 35.3377 240.219C33.2848 237.425 31.0204 234.801 29.0371 231.949C27.8689 230.262 24.7445 226.421 26.0338 224.154C27.3956 221.75 31.7944 224.484 32.8982 225.783C36.8853 230.474 37.9658 236.817 41.4257 241.812C42.0653 242.743 40.6513 243.775 40.0096 242.849ZM231.223 143.758C224.006 147.333 216.973 151.202 209.494 154.215C203.955 156.444 197.985 156.821 192.718 159.882C190.966 164.367 191.453 166.196 194.191 165.362C195.601 165.059 196.978 164.654 198.329 164.141C200.114 163.518 201.834 162.686 203.534 161.852C209.937 158.686 216.716 155.636 222.518 151.472C223.437 150.81 224.471 152.227 223.554 152.885C220.872 154.809 191.785 173.488 188.75 165.495C186.736 160.192 193.759 157.181 197.373 155.875C202.108 154.155 207.036 153.313 211.725 151.426C218.222 148.813 224.332 145.222 230.601 142.119C231.611 141.624 232.228 143.265 231.223 143.758ZM236.879 141.579C234.649 143.53 232.396 145.435 230.688 147.878C230.038 148.802 228.679 147.698 229.323 146.777C231.12 144.213 233.509 142.211 235.843 140.166C236.698 139.42 237.723 140.84 236.879 141.579ZM123.775 152.329C125.499 152.641 127.366 153.291 128.838 154.258C131.579 156.071 133.158 159.044 135.788 160.97C136.704 161.638 135.596 162.996 134.691 162.333C131.815 160.225 130.167 156.785 126.896 155.188C125.672 154.591 124.347 154.214 123.011 153.973C121.042 153.611 119.658 154.001 120.537 156.223C120.956 157.274 119.317 157.897 118.897 156.846C117.355 152.935 120.339 151.701 123.775 152.329Z" fill="#DAF6F0"/>
</svg>
