<svg width="235" height="271" viewBox="0 0 235 271" fill="none" xmlns="http://www.w3.org/2000/svg">
<path d="M148.982 21.2506C159.304 31.3306 168.813 43.232 173.869 51.7634C169.002 54.0918 164.408 56.7651 160.128 59.7874C155.732 53.5357 148.496 44.0277 141.13 35.6508C137.1 31.068 132.995 26.7808 129.268 23.5431C127.406 21.9247 125.602 20.5374 123.922 19.5025C122.272 18.486 120.594 17.7163 119.003 17.5027L118.737 17.4669L118.471 17.5027C116.826 17.7237 115.082 18.5404 113.368 19.6168C111.62 20.7138 109.741 22.1854 107.799 23.8994C103.913 27.3291 99.6347 31.8579 95.469 36.6517C87.9311 45.326 80.6365 55.0134 76.5154 60.9784C72.3318 57.8766 67.8319 55.1204 63.0548 52.7083C67.8515 44.2965 77.4119 32.1735 87.9049 21.8265C93.5246 16.2849 99.3498 11.3149 104.78 7.72673C110.262 4.10445 115.07 2.07477 118.737 2.00035C122.338 2.07346 127.042 4.03206 132.411 7.54118C137.731 11.0183 143.445 15.8436 148.982 21.2506ZM232.999 63.4488V65.4488H233V250.811V262.504V269H172.684V262.504V250.811V98.4479C177.485 94.2212 182.92 90.6741 188.91 87.8279V250.811V252.811H190.91H214.774H216.774V250.811V70.5653V68.2801L214.509 68.5829C194.444 71.266 177.327 79.2241 165.054 92.3082C152.771 105.403 145.486 123.476 144.821 146.11L144.82 146.139V146.168V250.811V262.504V269H90.1794V262.504V250.811V146.168V146.139L90.1785 146.109C89.5136 123.476 82.2286 105.403 69.9457 92.3082C57.6727 79.2242 40.5559 71.266 20.4911 68.5829L18.226 68.28V70.5653V250.811V252.811H20.226H44.09H46.09V250.811V87.8278C52.0799 90.6738 57.5152 94.222 62.316 98.4485V250.811V262.504V269H2V262.504V250.811V69.6436V63.4488V53.4638C2 52.93 2.04265 52.6116 2.09064 52.4281C2.09729 52.4027 2.10352 52.3818 2.10905 52.3649C2.12734 52.3589 2.15031 52.352 2.17864 52.3447C2.36673 52.296 2.68999 52.2535 3.2284 52.2535L3.23551 52.2535C33.3603 52.1465 59.7018 60.0566 78.1996 75.6794C96.64 91.2539 107.501 114.671 106.407 146.099L106.405 146.133V146.168V250.811V252.811H108.405H126.594H128.594V250.811V146.168V146.133L128.593 146.099C127.499 114.671 138.359 91.2539 156.8 75.6794C175.298 60.0566 201.639 52.1465 231.764 52.2535H231.771C232.31 52.2535 232.633 52.296 232.821 52.3447C232.849 52.352 232.872 52.3589 232.89 52.3649C232.896 52.3818 232.902 52.4027 232.909 52.4281C232.957 52.6116 232.999 52.93 232.999 53.4638V63.4488ZM2.13319 52.3044C2.13322 52.3044 2.13262 52.3056 2.13131 52.3078C2.13251 52.3054 2.13317 52.3043 2.13319 52.3044ZM2.05188 52.3874C2.04966 52.3887 2.04843 52.3893 2.04837 52.3893C2.04831 52.3893 2.04942 52.3886 2.05188 52.3874Z" stroke="white" stroke-opacity="0.36" stroke-width="4"/>
</svg>
