<svg width="149" height="93" viewBox="0 0 149 93" fill="none" xmlns="http://www.w3.org/2000/svg">
<path d="M67.3237 -141.205C76.5712 -132.169 85.0948 -121.593 89.9195 -113.762C86.0404 -111.844 82.3462 -109.689 78.8608 -107.295C74.6651 -113.194 68.171 -121.673 61.5631 -129.192C57.7584 -133.521 53.8601 -137.597 50.3018 -140.69C48.5236 -142.236 46.7773 -143.584 45.1273 -144.601C43.5223 -145.59 41.7862 -146.407 40.0629 -146.639L39.6632 -146.693L39.2635 -146.639C37.4822 -146.399 35.6817 -145.533 34.0182 -144.488C32.3054 -143.412 30.4876 -141.985 28.6354 -140.349C24.9285 -137.076 20.8685 -132.773 16.9362 -128.245C10.2049 -120.495 3.67972 -111.89 -0.307343 -106.201C-3.71541 -108.657 -7.33428 -110.876 -11.1408 -112.86C-6.53208 -120.599 2.0434 -131.381 11.4544 -140.667C16.708 -145.85 22.1293 -150.474 27.1555 -153.797C32.2567 -157.17 36.5465 -158.928 39.6632 -158.999C42.7215 -158.929 46.9165 -157.234 51.9099 -153.969C56.8322 -150.75 62.1479 -146.262 67.3237 -141.205ZM145.999 -102.297V-99.2973H146V74.0031V85.0051V90H91.5157V85.0051V74.0031V-68.8569C95.4218 -72.2408 99.7774 -75.1474 104.537 -77.5619V74.0031V77.0031H107.537H129.979H132.979V74.0031V-95.6009V-99.029L129.581 -98.5744C110.506 -96.0223 94.1543 -88.4398 82.4041 -75.9061C70.6392 -63.3567 63.7068 -46.0765 63.0748 -24.5497L63.0735 -24.5056V-24.4616V74.0031V85.0051V90H13.9261V85.0051V74.0031V-24.4616V-24.5057L13.9248 -24.5497C13.2928 -46.0765 6.36042 -63.3567 -5.4044 -75.906C-17.1546 -88.4398 -33.5063 -96.0223 -52.5811 -98.5744L-55.979 -99.029V-95.6009V74.0031V77.0031H-52.979H-30.5367H-27.5367V74.0031V-77.5621C-22.7774 -75.1476 -18.4214 -72.2402 -14.5156 -68.8564V74.0031V85.0051V90H-69V85.0051V74.0031V-96.4682V-102.297V-111.693C-69 -111.7 -69 -111.707 -69 -111.713C-68.9881 -111.713 -68.9761 -111.713 -68.9639 -111.713L-68.9533 -111.714C-40.8063 -111.814 -16.3191 -104.417 0.8181 -89.9351C17.8697 -75.5254 27.9672 -53.8346 26.949 -24.5659L26.9471 -24.5138V-24.4616V74.0031V77.0031H29.9471H47.0524H50.0524V74.0031V-24.4616V-24.5138L50.0506 -24.5659C49.0324 -53.8346 59.1299 -75.5254 76.1815 -89.9351C93.3187 -104.417 117.806 -111.814 145.953 -111.713H145.964C145.976 -111.713 145.988 -111.713 145.999 -111.713C145.999 -111.707 145.999 -111.7 145.999 -111.693V-102.297Z" stroke="#C0986D" stroke-opacity="0.1" stroke-width="6"/>
</svg>
