<svg width="161" height="230" viewBox="0 0 161 230" fill="none" xmlns="http://www.w3.org/2000/svg">
<path d="M148.283 21.966C158.193 31.6427 167.325 42.9852 172.447 51.3417C168.204 53.4278 164.17 55.779 160.371 58.3985C155.917 52.1286 148.96 43.0414 141.881 34.9904C137.838 30.3922 133.699 26.0678 129.924 22.7882C128.038 21.1492 126.189 19.7245 124.447 18.651C122.749 17.6053 120.93 16.7525 119.136 16.5116L118.737 16.4579L118.337 16.5116C116.483 16.7607 114.596 17.6647 112.836 18.7698C111.027 19.9059 109.102 21.4152 107.137 23.1497C103.204 26.621 98.8931 31.1868 94.7142 35.9957C87.4979 44.2999 80.5044 53.528 76.2795 59.5661C72.565 56.8784 68.6128 54.4565 64.4495 52.2986C69.3369 44.0427 78.5243 32.4811 88.607 22.5385C94.1988 17.0245 99.9731 12.1017 105.331 8.56104C110.765 4.9706 115.366 3.07615 118.737 3.00057C122.045 3.07479 126.545 4.90171 131.864 8.37825C137.112 11.8081 142.774 16.5865 148.283 21.966ZM231.999 63.4488V66.4488H232V250.811V262.504V268H173.684V262.504V250.811V98.902C177.942 95.2055 182.702 92.0423 187.91 89.4291V250.811V253.811H190.91H214.774H217.774V250.811V70.5653V67.1374L214.376 67.5918C194.128 70.2993 176.784 78.3414 164.325 91.624C151.85 104.922 144.492 123.241 143.822 146.08L143.82 146.124V146.168V250.811V262.504V268H91.1794V262.504V250.811V146.168V146.124L91.1781 146.08C90.5071 123.241 83.1491 104.922 70.6751 91.624C58.2158 78.3414 40.8716 70.2993 20.6236 67.5918L17.226 67.1374V70.5653V250.811V253.811H20.226H44.09H47.09V250.811V89.4289C52.2984 92.0422 57.0584 95.2062 61.316 98.9025V250.811V262.504V268H3V262.504V250.811V69.6436V63.4488V53.4638C3 53.3893 3.00091 53.3203 3.00258 53.2565C3.07164 53.2546 3.14676 53.2535 3.2284 53.2535L3.23906 53.2535C33.2005 53.1471 59.2876 61.0156 77.5543 76.4434C95.7352 91.7987 106.492 114.908 105.407 146.064L105.405 146.116V146.168V250.811V253.811H108.405H126.594H129.594V250.811V146.168V146.116L129.592 146.064C128.508 114.908 139.264 91.7987 157.445 76.4434C175.712 61.0156 201.799 53.1471 231.761 53.2535H231.771C231.853 53.2535 231.928 53.2546 231.997 53.2565C231.999 53.3203 231.999 53.3892 231.999 53.4638V63.4488Z" stroke="#C0986D" stroke-opacity="0.1" stroke-width="6"/>
</svg>
