<svg width="260" height="341" viewBox="0 0 260 341" fill="none" xmlns="http://www.w3.org/2000/svg">
<path d="M188.017 26.3708C201.237 39.2668 213.412 54.5391 219.734 65.3579C213.278 68.4089 207.203 71.9391 201.568 75.9539C196.074 68.1123 186.807 55.918 177.373 45.1998C172.304 39.4413 167.15 34.066 162.482 30.0136C160.148 27.9879 157.9 26.2617 155.816 24.9794C153.762 23.7155 151.721 22.7903 149.824 22.5356L149.558 22.4999L149.292 22.5356C147.329 22.7991 145.208 23.7813 143.072 25.1209C140.903 26.481 138.559 28.3131 136.125 30.4594C131.255 34.7534 125.883 40.4328 120.643 46.457C110.971 57.5757 101.617 70.02 96.4989 77.4653C90.992 73.3443 85.0412 69.7034 78.7032 66.5407C84.6856 55.8824 96.9248 40.3297 110.358 27.0972C117.45 20.11 124.814 13.8317 131.691 9.29206C138.62 4.71806 144.784 2.09345 149.558 2.00033C154.246 2.09183 160.278 4.62515 167.067 9.05715C173.805 13.4569 181.028 19.553 188.017 26.3708ZM293.999 79.8377V81.8377H294V315.596V330.309V339H216.989V330.309V315.596V123.645C223.315 118.05 230.512 113.392 238.465 109.699V315.596V317.596H240.465H270.524H272.524V315.596V88.7925V86.5076L270.259 86.8101C245.081 90.1735 223.639 100.143 208.277 116.504C192.905 132.876 183.766 155.492 182.932 183.865L182.931 183.894V183.924V315.596V330.309V339H113.068V330.309V315.596V183.924V183.894L113.068 183.865C112.233 155.492 103.095 132.876 87.7225 116.504C72.3603 100.143 50.9186 90.1735 25.7409 86.8101L23.4761 86.5076V88.7925V315.596V317.596H25.4761H55.5346H57.5346V315.596V109.699C65.4878 113.391 72.6854 118.051 79.0107 123.646V315.596V330.309V339H2V330.309V315.596V87.6327V79.8377V67.2736C2 65.7908 2.25865 65.5221 2.27149 65.5094C2.28839 65.4926 2.56876 65.2341 4.06641 65.2341L4.07351 65.2341C42.1031 65.0992 75.4147 75.0741 98.8339 94.8336C122.196 114.545 135.929 144.169 134.546 183.854L134.545 183.889V183.924V315.596V317.596H136.545H159.455H161.455V315.596V183.924V183.889L161.454 183.854C160.071 144.169 173.804 114.545 197.166 94.8336C220.585 75.0741 253.896 65.0992 291.926 65.2341H291.933C293.431 65.2341 293.711 65.4926 293.728 65.5093C293.741 65.5221 293.999 65.7908 293.999 67.2736V79.8377Z" stroke="#FBF2E9" stroke-width="4"/>
</svg>
