<svg width="235" height="271" viewBox="0 0 235 271" fill="none" xmlns="http://www.w3.org/2000/svg">
<path d="M76.9837 63.8472C71.9115 59.8893 66.3256 56.4676 60.2995 53.5819C69.3085 36.2554 101.681 0.290297 118.737 0C135.496 0.285451 167.042 35.0136 176.682 52.66C170.545 55.4368 164.842 58.7496 159.649 62.6032C151.337 50.4704 128.209 20.7574 118.737 19.4849C108.923 20.8035 84.4467 52.6552 76.9837 63.8472ZM234.999 63.4488V53.4638C234.999 50.9985 234.251 50.2535 231.771 50.2535C170.868 50.0372 124.369 82.2261 126.594 146.168V250.811H108.405V146.168C110.631 82.2261 64.1311 50.0372 3.2284 50.2535C0.748514 50.2535 0 50.9985 0 53.4638V63.4488V69.6436V250.811V262.504V271H64.316V262.504V250.811V97.5527C58.4562 92.2532 51.663 87.9681 44.09 84.7326V250.811H20.226V70.5653C59.6232 75.8335 86.8738 101.726 88.1794 146.168V250.811V262.504V271H146.82V262.504V250.811V146.168C148.126 101.726 175.376 75.8335 214.774 70.5653V250.811H190.91V84.7326C183.337 87.9687 176.545 92.2521 170.684 97.5521V250.811V262.504V271H235V262.504V250.811V63.4488H234.999Z" fill="white"/>
</svg>
