<svg width="237" height="294" viewBox="0 0 237 294" fill="none" xmlns="http://www.w3.org/2000/svg">
<path d="M88.7036 6.97767C89.1746 11.2465 89.1316 15.4613 88.0993 19.6441C87.8318 20.7436 89.5631 21.021 89.8266 19.9347C90.8933 15.6065 90.9363 11.2256 90.4456 6.81532C90.3204 5.69268 88.5787 5.85507 88.7036 6.97767ZM73.6957 20.8292C74.6465 20.2303 75.6856 21.6453 74.731 22.2427C74.3638 22.6574 74.18 23.1317 74.1788 23.6742C74.0197 24.787 72.2949 24.5041 72.4518 23.3835C72.5974 22.3933 72.7898 21.3971 73.6957 20.8292ZM70.691 28.2161C70.5945 28.3414 70.4985 28.4727 70.401 28.6013C69.9101 29.6193 68.3135 28.9036 68.8032 27.8832C69.127 27.2096 69.3842 26.8826 70.0695 26.5795C71.1059 26.1229 71.7186 27.7657 70.691 28.2161ZM21.3108 116.427C21.1941 117.57 21.0802 118.72 20.9645 119.865C20.8489 120.987 19.1242 120.69 19.2356 119.572C19.3524 118.43 19.4682 117.284 19.5839 116.139C19.6981 115.012 21.4226 115.309 21.3108 116.427ZM488.419 25.2678C428.053 0.395573 370.829 47.4775 328.412 85.6218C285.588 124.136 239.475 176.675 178.537 183.147C167.868 184.28 156.145 183.076 144.407 179.984C133.901 179.548 118.599 183.528 126.313 196.431C131.67 205.395 144.414 204.61 153.187 203.467C163.654 202.102 173.041 197.998 183.631 197.318C190.648 196.864 210.024 196.57 204.223 208.479C203.73 209.493 202.128 208.785 202.625 207.761C208.865 194.945 174.032 200.002 168.755 201.496C157.422 204.704 140.94 210.061 130.206 202.386C114.85 191.405 126.186 180.6 139.469 178.569C107.527 168.712 76.5535 145.171 67.5782 116.333C57.7195 84.6558 86.4337 32.6418 121.456 32.2792C123.692 32.2561 124.044 35.7442 121.782 35.7685C106.527 35.9276 94.781 45.0517 86.2519 57.1223C93.46 55.2139 101.177 65.3793 99.3587 73.665C97.7636 80.9353 92.3667 86.8472 90.8103 94.5299C89.5417 100.796 85.9184 122.033 97.9157 119.548C99.0208 119.317 99.1745 121.065 98.0804 121.295C88.8263 123.211 87.6822 113.726 87.6919 106.534C87.7025 100.376 88.9339 94.1412 90.4612 88.2045C90.8156 86.811 91.275 85.4524 91.8091 84.1195C92.8197 82.2188 93.8986 80.3552 95.0348 78.5303C99.2227 71.5681 92.7734 52.0804 84.3715 59.8978C78.4946 69.016 74.3244 79.4665 71.7548 88.91C64.1764 116.785 80.8174 138.007 101.665 154.357C122.95 171.054 151.211 180.706 178.208 179.662C211.413 178.372 244.936 153.644 269.941 133.843C329.571 86.6332 401.846 -14.186 489.856 22.0726C491.95 22.935 490.506 26.1271 488.419 25.2678ZM489.785 30.6165C491.997 31.0498 491.429 34.506 489.204 34.0715C394.942 15.6696 349.058 126.34 306.601 190.039C305.346 191.921 302.63 189.7 303.874 187.84C347.153 122.914 393.712 11.8611 489.785 30.6165ZM52.263 244.858C120.033 323.338 215.554 262.568 280.049 212.842C281.845 211.461 283.905 214.297 282.122 215.671C215.708 266.868 118.555 326.967 49.4339 246.931C47.9543 245.216 50.797 243.164 52.263 244.858ZM495.072 27.6914C492.959 28.4936 491.718 25.2253 493.831 24.423C495.944 23.6207 497.185 26.889 495.072 27.6914ZM463.757 72.4312C460.973 85.5667 467.658 94.7285 480.217 97.8972C491.281 100.687 501.25 95.0177 507.863 86.6077C519.919 71.2789 519.505 44.4975 501.39 34.2936C499.436 33.1949 500.856 29.9885 502.826 31.0987C524.55 43.3361 524.338 77.0713 506.722 93.2752C488.34 110.189 454.394 99.7163 460.302 71.8507C460.767 69.6491 464.227 70.2109 463.757 72.4312ZM484.895 66.2512C480.142 63.416 475.259 63.1972 470.588 66.293C468.705 67.5356 466.636 64.7136 468.513 63.4646C474.177 59.7198 480.49 59.5675 486.332 63.0562C488.247 64.1956 486.836 67.4043 484.895 66.2512ZM46.5939 51.6241C47.2504 42.1227 43.0538 34.5437 34.7539 33.1937C34.564 33.0928 34.3507 33.072 34.1433 33.1195C32.5198 32.9192 30.7646 32.9232 28.8479 33.2164C25.7749 33.6883 23.6434 35.592 22.1518 38.2007C21.7848 38.349 21.5241 38.7122 21.6363 39.1711C18.5745 45.5288 18.7943 55.2527 19.1705 60.1478C21.0153 83.9769 31.9482 104.877 40.6292 126.816C40.7485 127.12 40.9279 127.336 41.1302 127.507C42.6065 131.074 44.4629 134.522 46.8923 137.775C48.2439 139.582 51.074 137.521 49.721 135.709C31.1916 110.897 44.7085 79.0492 46.5939 51.6241ZM32.6362 42.8815C34.4484 47.5085 37.4628 51.8014 39.6163 56.1462C40.1153 57.1498 41.7559 56.5324 41.2581 55.5228C39.3023 51.584 36.577 47.6903 34.7563 43.541C36.2469 44.0636 37.8818 44.7641 39.6515 45.6306C40.7789 47.4378 41.9144 49.2424 43.0049 51.074C42.9455 54.0486 42.7483 57.0107 42.2542 59.9507C39.6062 75.4059 35.6916 92.9551 36.9668 109.353C33.9057 102.413 30.8606 95.4099 28.3978 88.2746C28.8444 88.147 29.2241 87.7131 29.0392 87.1414C28.5468 85.6481 28.5865 84.2508 28.8832 82.7214C29.096 81.6053 27.3692 81.3235 27.1532 82.4321C27.0598 82.9169 26.9962 83.3904 26.9576 83.8588C25.5477 79.2425 24.4235 74.5668 23.7486 69.8111C23.7339 69.7074 23.7192 69.6007 23.7045 69.4967C24.9993 73.7079 26.9749 77.6533 29.8345 81.0354C30.5581 81.8904 31.9777 80.8638 31.2481 79.9995C28.2255 76.4271 26.2115 72.2569 24.981 67.7629C24.759 66.9537 23.8057 67.0947 23.4468 67.6619C23.0558 64.8395 22.7009 61.9424 22.5209 59.0442C24.1483 63.5828 25.7001 68.2775 28.652 72.1216C29.3378 73.014 30.754 71.9858 30.0628 71.0869C27.6809 67.9794 26.2525 64.2866 24.9328 60.5949C25.5694 61.1537 26.672 60.2343 26.1589 59.3552C24.8337 57.0885 23.5243 54.8352 22.4998 52.4206C22.5655 51.4475 22.6561 50.4799 22.7985 49.5247C22.7995 49.4689 22.8079 49.422 22.8095 49.3669C23.5383 51.0963 24.3225 52.801 25.2136 54.4576C25.7401 55.4363 27.3858 54.8314 26.8529 53.8351C25.5036 51.3275 24.3988 48.7105 23.3624 46.0624C23.5326 45.5705 23.7402 45.1241 23.9899 44.7301C25.51 48.0178 27.1934 51.2201 29.0578 54.3487C29.6373 55.3159 31.0464 54.2759 30.4739 53.312C28.548 50.0808 26.8231 46.77 25.282 43.362C26.0875 42.791 27.0836 42.456 28.283 42.3712C31.6308 48.3745 34.3177 54.7114 37.5279 60.7962C38.0479 61.7802 39.6908 61.168 39.167 60.1738C36.0779 54.3277 33.4622 48.2502 30.3159 42.4413C31.0409 42.5278 31.8064 42.6653 32.6362 42.8815ZM43.0468 47.3963C43.0517 47.5233 43.0382 47.6483 43.0427 47.7751C42.9248 47.5856 42.8081 47.3953 42.6903 47.2058C42.8117 47.2726 42.9242 47.3281 43.0468 47.3963ZM43.7855 147.136C32.2182 134.722 29.9155 119.075 21.6749 105.091C18.5111 99.7191 13.6639 95.6696 9.82266 102.68C8.73483 104.664 11.9377 106.084 13.0174 104.117C16.0923 98.507 22.6391 115.47 23.6194 118.217C24.4024 120.409 25.2315 122.558 26.0936 124.683C25.4966 124.209 24.3873 124.778 24.7255 125.669C25.4955 127.697 26.2525 129.72 26.5654 131.881C26.5826 131.995 26.6254 132.087 26.6716 132.175C20.9559 125.615 15.8166 118.703 12.9233 110.166C12.2018 108.025 8.92812 109.274 9.65487 111.407C14.3278 125.201 24.6384 134.924 34.0755 145.579C35.1712 146.813 36.9988 146.012 37.2785 144.83C38.4352 146.323 39.6409 147.793 40.9592 149.208C42.4748 150.837 45.3239 148.786 43.7855 147.136ZM27.1489 127.225C29.155 131.873 31.4581 136.322 34.2186 140.53C31.7779 137.848 29.3182 135.195 26.9485 132.489C27.5029 132.844 28.4311 132.545 28.3128 131.717C28.0846 130.174 27.6513 128.691 27.1489 127.225ZM11.8618 105.815C11.9073 105.555 12.0578 105.315 12.3799 105.193C12.7007 105.071 13.0262 104.948 13.3422 104.828C14.4018 104.425 15.0242 106.065 13.9647 106.467C13.6486 106.587 13.3231 106.711 13.0023 106.832C12.7611 106.924 12.5476 106.9 12.3666 106.818C13.019 108.862 9.86683 110.032 9.07919 107.958C9.03922 107.852 8.9974 107.742 8.95737 107.637C8.24598 105.763 10.7289 104.587 11.8618 105.815ZM105.055 4.49372C103.859 4.21963 102.676 4.06021 101.5 3.96383C101.508 3.9816 101.521 3.99062 101.527 4.00949C103.199 8.88653 102.429 13.9419 100.783 18.7163C100.414 19.7854 98.8193 19.0577 99.1851 17.9982C100.675 13.6815 101.405 9.04261 99.8881 4.63188C99.7878 4.33856 99.846 4.08475 99.9798 3.88393C98.5751 3.8558 97.1879 3.94542 95.8209 4.14869C96.7222 8.70655 95.8085 13.3245 95.1197 17.9248C94.9558 19.0394 93.2264 18.7527 93.3946 17.6333C94.0464 13.2649 95.0055 8.80353 94.1131 4.45127C90.4839 5.24166 87.0132 6.80513 83.7511 8.92471C84.0918 8.97708 84.3788 9.21096 84.3757 9.6708C84.331 12.7475 84.414 15.8217 83.9212 18.8736C83.7419 19.9882 82.0159 19.7001 82.1911 18.5841C82.6613 15.6841 82.5902 12.7632 82.6283 9.83518C82.6293 9.76237 82.6551 9.70473 82.6699 9.63995C81.2054 10.6615 79.7909 11.8025 78.4224 13.029C78.8967 13.0509 79.3845 13.4037 79.3235 14.0151C79.092 16.3054 78.8568 18.5943 78.6253 20.8846C78.5125 22.0055 76.7865 21.7117 76.9002 20.5931C77.1295 18.3236 77.3592 16.0541 77.5895 13.7872C67.3661 23.3756 60.1292 38.0773 58.266 49.4832C57.904 51.7082 54.4459 51.1347 54.8124 48.899C58.3962 26.9745 79.9918 -4.84094 105.634 1.03633C107.822 1.54173 107.266 4.99919 105.055 4.49372ZM99.9841 22.9484C84.2563 31.1518 64.5266 40.1805 58.3714 58.264C57.6442 60.4043 54.456 58.948 55.1767 56.8276C59.5258 44.0495 70.7119 36.3148 81.3531 28.8904C85.6581 25.8841 98.9059 21.4012 105.378 15.7738C105.546 12.3674 105.948 9.01772 105.264 5.64186C105.043 4.53859 106.784 4.3819 107.007 5.48175C107.571 8.26856 107.414 11.0481 107.237 13.8478C108.315 12.517 108.974 11.1323 108.994 9.69123C108.906 9.57289 108.839 9.43292 108.831 9.24276C108.819 8.95461 108.807 8.6665 108.795 8.37835C108.742 8.16551 108.748 7.95761 108.665 7.74251C108.469 7.22826 108.52 6.7688 108.714 6.39351C108.686 5.71694 108.658 5.04035 108.63 4.36378C108.582 3.24062 110.33 3.07029 110.375 4.20283C110.392 4.60909 110.409 5.01631 110.425 5.42285C111.044 5.43438 111.649 5.74625 111.936 6.50047C115.01 14.5355 106.093 19.757 99.9841 22.9484ZM231.604 220.596C233.4 219.215 235.462 222.048 233.677 223.425C198.491 250.565 139.005 282.499 96.006 255.018C94.0998 253.797 96.3264 251.091 98.2081 252.292C139.504 278.685 197.955 246.556 231.604 220.596ZM207.877 145.191C190.434 151.425 172.074 153.519 157.246 147.827C152.675 147.561 148.291 144.743 143.993 143.451C141.716 142.773 137.642 142.488 137.85 145.896C137.97 147.86 139.93 149.774 141.169 151.142C143.59 153.819 153.77 161.535 146.174 164.179C145.113 164.548 144.485 162.911 145.551 162.537C150.029 160.98 143.089 155.586 141.441 153.932C139.196 151.676 136.284 148.962 136.078 145.579C135.723 139.797 142.004 140.926 147.993 142.883C140.749 137.718 134.896 129.907 131.193 118.827C122.65 93.2879 132.322 56.2901 163.849 56.9251C166.077 56.9709 166.435 60.4595 164.175 60.4144C132.207 59.7636 127.725 97.4317 135.668 121.188C146.296 152.975 180.907 151.116 206.636 141.923C208.758 141.16 210.003 144.43 207.877 145.191ZM165.123 98.8336C160.663 98.2961 156.683 94.6341 156.668 90.0173C156.646 84.5286 162.131 82.2076 166.845 82.2155C169.078 82.2221 169.437 85.7107 167.172 85.7048C164.207 85.6978 160.143 86.4754 160.156 90.2156C160.172 93.5735 163.685 95.1382 166.497 95.4757C178.712 96.931 184.128 82.5552 176.873 74.1063C175.399 72.3833 178.243 70.3368 179.703 72.0338C189.699 83.6863 180.2 100.636 165.123 98.8336ZM288.926 93.4296C284.661 96.116 280.47 98.8314 275.768 100.691C273.668 101.526 272.428 98.2544 274.526 97.4205C278.941 95.6725 282.853 93.1229 286.854 90.6028C288.756 89.4046 290.831 92.2244 288.926 93.4296ZM45.0373 283.184C39.4114 279.009 35.2928 272.936 31.071 267.445C26.9101 262.022 18.2583 247.754 9.87284 250.11C7.71572 250.719 6.45992 247.451 8.63083 246.839C15.3254 244.956 20.9297 250.055 25.1428 254.701C32.5783 262.909 38.27 273.813 47.2374 280.453C49.0553 281.804 46.8442 284.523 45.0373 283.184ZM33.3467 276.54C33.7865 276.74 34.2329 276.94 34.6755 277.139C36.7345 278.069 35.2963 281.26 33.2388 280.334C32.7962 280.135 32.3504 279.935 31.9078 279.736C29.8491 278.808 31.2861 275.616 33.3467 276.54ZM46.3907 284.801C51.9956 287.992 58.0789 289.112 64.4213 289.775C66.6651 290.012 66.0773 293.465 63.8391 293.233C57.2264 292.538 50.796 291.321 44.9546 287.996C43.0091 286.891 44.4272 283.685 46.3907 284.801ZM11.3848 252.068C13.7211 257.653 18.3712 261.631 22.1873 266.189C23.6425 267.922 20.8018 269.979 19.3633 268.26C15.3119 263.421 10.5919 259.245 8.11422 253.31C7.24299 251.226 10.5161 249.991 11.3848 252.068ZM5.32736 171.45C4.36498 171.815 3.40261 172.181 2.44024 172.546C0.327481 173.348 -0.913581 170.08 1.19918 169.278C2.16155 168.912 3.12392 168.547 4.08629 168.182C6.19934 167.379 7.4404 170.647 5.32736 171.45ZM98.9622 113.748C98.7232 110.664 99.3485 106.481 101.736 104.249C104.608 101.564 106.951 105.418 107.921 107.842C108.339 108.891 106.701 109.51 106.282 108.465C105.827 107.321 105.288 105.78 104.124 105.161C103.268 104.705 102.448 106.035 102.111 106.61C100.928 108.648 100.525 111.262 100.707 113.584C100.794 114.706 99.0554 114.877 98.9622 113.748ZM118.336 124.079C120.092 123.395 120.127 120.158 120.198 118.674C120.252 117.55 121.98 117.848 121.928 118.964C121.819 121.231 121.504 123.776 119.648 125.313C118.249 126.478 116.239 125.973 114.794 125.211C110.87 123.146 107.755 118.257 107.279 113.893C107.158 112.775 108.9 112.604 109.024 113.73C109.412 117.296 111.707 120.674 114.449 122.891C115.489 123.732 116.975 124.604 118.336 124.079ZM105.329 175.462C106.401 175.772 106.127 177.502 105.04 177.192C96.5477 174.765 88.863 171.096 82.9521 164.373C79.5597 160.514 79.1672 154.692 85.4384 154.843C86.5503 154.871 86.731 156.615 85.6009 156.585C76.9338 156.378 88.2625 167.234 90.056 168.589C94.5211 171.958 100.008 173.941 105.329 175.462ZM114.202 178.115C112.355 177.698 110.518 177.326 108.623 177.205C107.503 177.131 107.798 175.411 108.914 175.48C110.695 175.591 112.422 175.932 114.16 176.322C110.356 175.134 106.828 173.377 103.423 171.107C97.3032 167.028 93.2557 160.598 87.02 156.72C86.0641 156.12 87.1754 154.766 88.1211 155.353C92.8507 158.3 96.2728 162.722 100.35 166.45C105.501 171.173 111.767 174.339 118.617 175.65C119.721 175.861 119.437 177.592 118.326 177.375C117.074 177.136 115.862 176.823 114.67 176.47C115.531 176.867 115.236 178.35 114.202 178.115ZM287.185 146.405C291.165 156.344 312.369 128.758 314.957 125.091C325.981 109.486 336.016 94.0074 351.086 81.9588C351.973 81.2519 353 82.6716 352.122 83.3722C331.714 99.687 321.336 123.286 303.652 141.856C299.627 146.088 289.304 156.403 285.546 147.027C285.125 145.98 286.765 145.36 287.185 146.405ZM244.763 162.04C244.978 160.935 246.709 161.221 246.488 162.332C244.694 171.539 256.643 160.919 259.091 158.75C262.247 155.952 265.032 152.769 268.104 149.879C270.483 147.648 283.716 134.173 285.844 142.874C286.109 143.957 284.474 144.59 284.205 143.496C282.807 137.775 267.656 152.723 266.343 154.03C263.573 156.788 260.886 159.543 257.91 162.092C253.746 165.661 242.558 173.322 244.763 162.04ZM89.5437 249.637C84.8538 245.095 76.4592 232.261 83.2489 226.164C94.8337 215.766 107.849 235.563 117.285 239.066C118.344 239.461 117.62 241.058 116.566 240.664C106.446 236.907 101.077 224.906 89.2253 225.509C76.2576 226.172 85.9441 243.723 90.6456 248.272C91.4474 249.055 90.3543 250.419 89.5437 249.637ZM39.3788 242.955C37.0987 239.654 35.7947 235.713 34.0835 232.112C33.0485 229.931 31.8417 227.667 29.9427 226.117C29.1559 225.473 26.4774 224.218 27.0548 226.124C28.566 231.085 33.1136 235.199 36.1226 239.287C36.7897 240.198 35.3742 241.229 34.7068 240.324C32.6539 237.53 30.3895 234.906 28.4063 232.054C27.238 230.367 24.1136 226.527 25.4029 224.259C26.7648 221.855 31.1636 224.59 32.2674 225.888C36.2544 230.58 37.3349 236.923 40.7948 241.918C41.4344 242.848 40.0205 243.881 39.3788 242.955ZM230.592 143.864C223.375 147.439 216.342 151.308 208.863 154.32C203.324 156.55 197.354 156.927 192.087 159.988C190.335 164.473 190.822 166.301 193.56 165.468C194.97 165.165 196.347 164.759 197.698 164.246C199.483 163.623 201.204 162.792 202.903 161.957C209.306 158.792 216.085 155.742 221.887 151.577C222.806 150.915 223.84 152.332 222.923 152.99C220.241 154.914 191.154 173.593 188.119 165.601C186.105 160.298 193.129 157.287 196.742 155.98C201.477 154.26 206.405 153.418 211.094 151.532C217.591 148.918 223.701 145.328 229.97 142.224C230.98 141.729 231.597 143.37 230.592 143.864ZM236.248 141.684C234.018 143.635 231.765 145.54 230.057 147.984C229.407 148.908 228.048 147.804 228.692 146.882C230.489 144.318 232.878 142.316 235.212 140.271C236.068 139.525 237.092 140.946 236.248 141.684ZM123.145 152.435C124.868 152.746 126.736 153.397 128.207 154.363C130.948 156.176 132.527 159.149 135.157 161.076C136.073 161.743 134.965 163.102 134.06 162.439C131.184 160.33 129.536 156.89 126.266 155.293C125.042 154.697 123.716 154.319 122.38 154.078C120.411 153.716 119.028 154.107 119.906 156.329C120.325 157.379 118.686 158.002 118.266 156.951C116.724 153.04 119.708 151.807 123.145 152.435Z" fill="#DAF6F0"/>
</svg>
