<svg width="75" height="63" viewBox="0 0 75 63" fill="none" xmlns="http://www.w3.org/2000/svg">
<path d="M6.98307 23.4412V54.3253H14.3308V23.4411C14.3308 22.8051 14.8556 22.2876 15.5007 22.2876C16.1459 22.2876 16.6707 22.8052 16.6709 23.4412V55.2798C16.6709 55.9445 16.3087 56.6322 15.7028 56.6322H6.015C5.37408 56.6322 4.64325 55.9118 4.64325 55.2798V23.4412C4.64325 22.8052 5.1681 22.2878 5.81309 22.2878C6.45822 22.2878 6.98307 22.8052 6.98307 23.4412ZM23.5741 22.2878C22.9291 22.2878 22.4042 22.8052 22.4042 23.4412V55.2798C22.4042 55.9118 23.1349 56.6322 23.776 56.6322H33.4636C34.0697 56.6322 34.4318 55.9445 34.4318 55.2798V23.4412C34.4317 22.8052 33.9067 22.2876 33.2617 22.2876C32.6166 22.2876 32.0917 22.8051 32.0917 23.4411V54.3253H24.7439V23.4412C24.7439 22.8052 24.219 22.2878 23.5741 22.2878ZM3.02834 63H71.5678V60.6929H3.02834V63ZM74.974 17.4126C74.8505 17.981 74.3478 18.426 73.829 18.426H1.17096C0.652193 18.426 0.149203 17.9805 0.0260288 17.4125C-0.0929462 16.858 0.207256 16.2333 0.695622 16.0198L37.0244 0.100611C37.1777 0.0335367 37.3389 0 37.5 0C37.6611 0 37.8221 0.0335367 37.9752 0.100468L74.3048 16.0199C74.7926 16.2333 75.093 16.8581 74.974 17.4126ZM68.3163 16.119L37.5 2.61546L6.68359 16.119H68.3163ZM59.0957 22.2878C58.4506 22.2878 57.9257 22.8052 57.9257 23.4412V55.2798C57.9257 55.9118 58.6564 56.6322 59.2975 56.6322H68.9853C69.5913 56.6322 69.9535 55.9445 69.9535 55.2798V23.4412C69.9533 22.8052 69.4283 22.2876 68.7832 22.2876C68.1382 22.2876 67.6134 22.8051 67.6134 23.4411V54.3253H60.2655V23.4412C60.2655 22.8052 59.7407 22.2878 59.0957 22.2878ZM41.3349 22.2878C40.6899 22.2878 40.1651 22.8052 40.1651 23.4412V55.2798C40.1651 55.9118 40.8957 56.6322 41.5368 56.6322H51.2245C51.8305 56.6322 52.1927 55.9445 52.1927 55.2798V23.4412C52.1925 22.8052 51.6675 22.2876 51.0225 22.2876C50.3774 22.2876 49.8526 22.8051 49.8526 23.4411V54.3253H42.5047V23.4412C42.5047 22.8052 41.9799 22.2878 41.3349 22.2878Z" fill="#DAC6B0"/>
</svg>
