<svg width="75" height="75" viewBox="0 0 75 75" fill="none" xmlns="http://www.w3.org/2000/svg">
<path d="M58.893 22.1368C59.3428 22.5692 59.357 23.287 58.9248 23.7365L28.6178 55.2559C28.4054 55.4768 28.1079 55.6035 27.8017 55.6035H27.7254C27.4441 55.6035 27.1498 55.4539 26.9377 55.203L13.6028 39.4436C13.1997 38.9669 13.2591 38.2514 13.7361 37.8478C13.9422 37.6733 14.1978 37.5799 14.4647 37.5799C14.4965 37.5799 14.5284 37.5812 14.5604 37.584C14.8615 37.6091 15.135 37.7501 15.3306 37.9813L27.8555 52.784L57.2924 22.1691C57.7254 21.7194 58.4435 21.7046 58.893 22.1368ZM75 37.5C75 47.5163 71.0988 56.9331 64.0147 64.0161C56.9328 71.0991 47.5164 75 37.5 75C27.4837 75 18.0668 71.0987 10.984 64.0148C3.90089 56.9327 0 47.5163 0 37.5C0 27.4837 3.90125 18.0669 10.9853 10.9839C18.0674 3.90089 27.4838 0 37.5 0C47.5163 0 56.9332 3.90132 64.0159 10.9852L64.016 10.9853C71.0991 18.0673 75 27.4837 75 37.5ZM72.737 37.5C72.737 28.0882 69.0713 19.2398 62.4152 12.5851C55.7603 5.92868 46.9119 2.26299 37.5 2.26299C28.0881 2.26299 19.2397 5.92868 12.5849 12.5848C5.92868 19.2398 2.26299 28.0882 2.26299 37.5C2.26299 46.912 5.92868 55.7603 12.5848 62.4151C19.2398 69.0713 28.0882 72.737 37.5 72.737C46.9118 72.737 55.7602 69.0713 62.4152 62.4152C69.0713 55.7602 72.737 46.912 72.737 37.5Z" fill="#DAC6B0"/>
</svg>
