<svg width="75" height="75" viewBox="0 0 75 75" fill="none" xmlns="http://www.w3.org/2000/svg">
<path d="M71.5562 72.6805V56.4434H62.3725V13.1444V11.9846V0H35.5868V10.8248H12.6275V56.4434H3.44385V72.6805H0V75H75V72.6805H71.5562ZM12.6275 72.6805H5.73985V58.7629H12.6275V72.6805ZM37.8826 2.31967H60.0765V10.8248H37.8826V2.31967ZM14.9235 41.7527H60.0766V44.0722H60.0765H14.9235V41.7527ZM19.5152 39.433V32.4743H26.4029V39.433H19.5152ZM34.0562 39.433V32.4743H40.9439V39.433H34.0562ZM48.5969 39.433V32.4743H55.4846V39.433H48.5969ZM41.7092 72.6805H33.2909V65.7218H36.3522V69.2011H38.648V65.7218H41.7092V72.6805ZM60.0766 72.6805H60.0765H44.0051V65.7218H46.6837V63.4021H28.3163V65.7216H30.9949V72.6803H14.9235V60.3092H60.0766V72.6805ZM19.5152 57.9898V51.0311H26.4029V57.9898H19.5152ZM34.0562 57.9898V51.0311H40.9439V57.9898H34.0562ZM48.5969 57.9898V51.0311H55.4846V57.9898H48.5969ZM60.0768 57.9898H60.0765H57.7806V48.7114H46.3011V57.9898H43.2399V48.7114H31.7603V57.9898H28.6991V48.7114H17.2195V57.9898H14.9237V46.3919H60.0768V57.9898ZM60.0768 39.433H60.0765H57.7806V30.1547H46.3011V39.433H43.2399V30.1547H31.7603V39.433H28.6991V30.1547H17.2195V39.433H14.9237V27.0619H60.0768V39.433ZM19.5152 24.7423V17.7836H26.4029V24.7423H19.5152ZM34.0562 24.7423V17.7836H40.9439V24.7423H34.0562ZM48.5969 24.7423V17.7836H55.4846V24.7423H48.5969ZM60.0768 24.7423H60.0765H57.7806V15.464H46.3011V24.7423H43.2399V15.464H31.7603V24.7423H28.6991V15.464H17.2195V24.7423H14.9237V13.1444H60.0768V24.7423ZM69.2602 72.6805H62.3725V58.7629H69.2602V72.6805ZM40.5612 5.41246H43.6225V7.73198H40.5612V5.41246ZM45.1531 5.41246H48.2143V7.73198H45.1531V5.41246ZM49.7449 5.41246H52.8062V7.73198H49.7449V5.41246ZM54.3368 5.41246H57.398V7.73198H54.3368V5.41246ZM25.6377 62.629H17.2194V70.361H25.6377V62.629ZM23.3419 68.0413H19.5154V64.9485H23.3419V68.0413ZM57.7806 62.629H49.3623V70.361H57.7806V62.629ZM55.4848 68.0413H51.6583V64.9485H55.4848V68.0413Z" fill="#DAC6B0"/>
</svg>
