<svg width="75" height="75" viewBox="0 0 75 75" fill="none" xmlns="http://www.w3.org/2000/svg">
<path d="M46.8809 37.3882C46.8809 36.7478 47.4018 36.2269 48.0422 36.2269H52.8342C53.4745 36.2269 53.9955 36.7478 53.9955 37.3882C53.9955 38.0285 53.4745 38.5495 52.8342 38.5495H48.0422C47.4018 38.5495 46.8809 38.0285 46.8809 37.3882ZM48.0422 29.9241H52.8342C53.4745 29.9241 53.9955 29.4031 53.9955 28.7628C53.9955 28.1224 53.4745 27.6015 52.8342 27.6015H48.0422C47.4018 27.6015 46.8809 28.1224 46.8809 28.7628C46.8809 29.4031 47.4018 29.9241 48.0422 29.9241ZM48.0422 47.175H52.8342C53.4745 47.175 53.9955 46.6539 53.9955 46.0136C53.9955 45.3732 53.4745 44.8523 52.8342 44.8523H48.0422C47.4018 44.8523 46.8809 45.3732 46.8809 46.0136C46.8809 46.6539 47.4018 47.175 48.0422 47.175ZM35.1041 55.8004H39.896C40.5364 55.8004 41.0573 55.2795 41.0573 54.6391C41.0573 53.9988 40.5364 53.4778 39.896 53.4778H35.1041C34.4637 53.4778 33.9427 53.9988 33.9427 54.6391C33.9427 55.2795 34.4637 55.8004 35.1041 55.8004ZM35.1041 47.175H39.896C40.5364 47.175 41.0573 46.6539 41.0573 46.0136C41.0573 45.3732 40.5364 44.8523 39.896 44.8523H35.1041C34.4637 44.8523 33.9427 45.3732 33.9427 46.0136C33.9427 46.6539 34.4637 47.175 35.1041 47.175ZM48.0422 55.8004H52.8342C53.4745 55.8004 53.9955 55.2795 53.9955 54.6391C53.9955 53.9988 53.4745 53.4778 52.8342 53.4778H48.0422C47.4018 53.4778 46.8809 53.9988 46.8809 54.6391C46.8809 55.2795 47.4018 55.8004 48.0422 55.8004ZM60.9803 29.9241H65.7723C66.4127 29.9241 66.9336 29.4031 66.9336 28.7628C66.9336 28.1224 66.4127 27.6015 65.7723 27.6015H60.9803C60.34 27.6015 59.819 28.1224 59.819 28.7628C59.819 29.4031 60.34 29.9241 60.9803 29.9241ZM73.8387 67.8854H1.16135C0.521001 67.8854 0 68.4063 0 69.0467C0 69.687 0.521001 70.2081 1.16135 70.2081H73.8387C74.4791 70.2081 75 69.687 75 69.0467C75 68.4063 74.4791 67.8854 73.8387 67.8854ZM73.8387 72.6773H1.16135C0.521001 72.6773 0 73.1984 0 73.8387C0 74.4791 0.521001 75 1.16135 75H73.8387C74.4791 75 75 74.4791 75 73.8387C75 73.1984 74.4791 72.6773 73.8387 72.6773ZM60.9803 55.8004H65.7723C66.4127 55.8004 66.9336 55.2795 66.9336 54.6391C66.9336 53.9988 66.4127 53.4778 65.7723 53.4778H60.9803C60.34 53.4778 59.819 53.9988 59.819 54.6391C59.819 55.2795 60.34 55.8004 60.9803 55.8004ZM60.9803 47.175H65.7723C66.4127 47.175 66.9336 46.6539 66.9336 46.0136C66.9336 45.3732 66.4127 44.8523 65.7723 44.8523H60.9803C60.34 44.8523 59.819 45.3732 59.819 46.0136C59.819 46.6539 60.34 47.175 60.9803 47.175ZM35.1041 29.9241H39.896C40.5364 29.9241 41.0573 29.4031 41.0573 28.7628C41.0573 28.1224 40.5364 27.6015 39.896 27.6015H35.1041C34.4637 27.6015 33.9427 28.1224 33.9427 28.7628C33.9427 29.4031 34.4637 29.9241 35.1041 29.9241ZM60.9803 38.5495H65.7723C66.4127 38.5495 66.9336 38.0285 66.9336 37.3882C66.9336 36.7478 66.4127 36.2269 65.7723 36.2269H60.9803C60.34 36.2269 59.819 36.7478 59.819 37.3882C59.819 38.0285 60.34 38.5495 60.9803 38.5495ZM35.1041 38.5495H39.896C40.5364 38.5495 41.0573 38.0285 41.0573 37.3882C41.0573 36.7478 40.5364 36.2269 39.896 36.2269H35.1041C34.4637 36.2269 33.9427 36.7478 33.9427 37.3882C33.9427 38.0285 34.4637 38.5495 35.1041 38.5495ZM9.22773 29.9241H14.0196C14.66 29.9241 15.181 29.4031 15.181 28.7628C15.181 28.1224 14.66 27.6015 14.0196 27.6015H9.22773C8.58738 27.6015 8.06638 28.1224 8.06638 28.7628C8.06638 29.4031 8.58738 29.9241 9.22773 29.9241ZM22.1659 55.8004H26.9578C27.5981 55.8004 28.1191 55.2795 28.1191 54.6391C28.1191 53.9988 27.5981 53.4778 26.9578 53.4778H22.1659C21.5255 53.4778 21.0045 53.9988 21.0045 54.6391C21.0045 55.2795 21.5255 55.8004 22.1659 55.8004ZM9.22773 38.5495H14.0196C14.66 38.5495 15.181 38.0285 15.181 37.3882C15.181 36.7478 14.66 36.2269 14.0196 36.2269H9.22773C8.58738 36.2269 8.06638 36.7478 8.06638 37.3882C8.06638 38.0285 8.58738 38.5495 9.22773 38.5495ZM75 5.95331V64.2548C75 64.8952 74.4791 65.4162 73.8387 65.4162H1.16135C0.521001 65.4162 0 64.8952 0 64.2548V5.95331C0 5.31296 0.521001 4.79189 1.16135 4.79189H5.19125V3.5573C5.19125 1.59586 6.78704 0 8.74854 0C10.71 0 12.3058 1.59586 12.3058 3.5573V4.79189H24.3589V3.5573C24.3589 1.59586 25.9547 0 27.9161 0C29.8777 0 31.4734 1.59586 31.4734 3.5573V4.79189H43.5266V3.5573C43.5266 1.59586 45.1223 0 47.0838 0C49.0452 0 50.6411 1.59586 50.6411 3.5573V4.79189H62.6942V3.5573C62.6942 1.59586 64.29 0 66.2515 0C68.2129 0 69.8088 1.59586 69.8088 3.5573V4.79189H73.8387C74.4791 4.79189 75 5.31296 75 5.95331ZM65.0169 8.34918C65.0169 9.02991 65.5707 9.58377 66.2515 9.58377C66.9322 9.58377 67.4861 9.02991 67.4861 8.34918V3.5573C67.4861 2.87657 66.9322 2.3227 66.2515 2.3227C65.5707 2.3227 65.0169 2.87657 65.0169 3.5573V8.34918ZM45.8492 8.34918C45.8492 9.02991 46.403 9.58377 47.0838 9.58377C47.7646 9.58377 48.3185 9.02991 48.3185 8.34918V3.5573C48.3185 2.87657 47.7646 2.3227 47.0838 2.3227C46.403 2.3227 45.8492 2.87657 45.8492 3.5573V8.34918ZM26.6816 8.34918C26.6816 9.02991 27.2354 9.58377 27.9161 9.58377C28.597 9.58377 29.1508 9.02991 29.1508 8.34918V3.5573C29.1508 2.87657 28.597 2.3227 27.9161 2.3227C27.2354 2.3227 26.6816 2.87657 26.6816 3.5573V8.34918ZM7.51388 8.34918C7.51388 9.02991 8.06774 9.58377 8.74854 9.58377C9.42927 9.58377 9.98313 9.02991 9.98313 8.34918V3.5573C9.98313 2.87657 9.42927 2.3227 8.74854 2.3227C8.06774 2.3227 7.51388 2.87657 7.51388 3.5573V8.34918ZM72.6773 21.8577H2.32263V63.0935H72.6773V21.8577ZM72.6773 7.11459H69.8088V8.34918C69.8088 10.3106 68.2129 11.9065 66.2515 11.9065C64.29 11.9065 62.6942 10.3106 62.6942 8.34918V7.11459H50.6411V8.34918C50.6411 10.3106 49.0452 11.9065 47.0838 11.9065C45.1223 11.9065 43.5266 10.3106 43.5266 8.34918V7.11459H31.4734V8.34918C31.4734 10.3106 29.8777 11.9065 27.9161 11.9065C25.9547 11.9065 24.3589 10.3106 24.3589 8.34918V7.11459H12.3058V8.34918C12.3058 10.3106 10.71 11.9065 8.74854 11.9065C6.78704 11.9065 5.19125 10.3106 5.19125 8.34918V7.11459H2.32263V19.535H72.6773V7.11459ZM9.22773 47.175H14.0196C14.66 47.175 15.181 46.6539 15.181 46.0136C15.181 45.3732 14.66 44.8523 14.0196 44.8523H9.22773C8.58738 44.8523 8.06638 45.3732 8.06638 46.0136C8.06638 46.6539 8.58738 47.175 9.22773 47.175ZM22.1659 47.175H26.9578C27.5981 47.175 28.1191 46.6539 28.1191 46.0136C28.1191 45.3732 27.5981 44.8523 26.9578 44.8523H22.1659C21.5255 44.8523 21.0045 45.3732 21.0045 46.0136C21.0045 46.6539 21.5255 47.175 22.1659 47.175ZM9.22773 55.8004H14.0196C14.66 55.8004 15.181 55.2795 15.181 54.6391C15.181 53.9988 14.66 53.4778 14.0196 53.4778H9.22773C8.58738 53.4778 8.06638 53.9988 8.06638 54.6391C8.06638 55.2795 8.58738 55.8004 9.22773 55.8004ZM22.1659 38.5495H26.9578C27.5981 38.5495 28.1191 38.0285 28.1191 37.3882C28.1191 36.7478 27.5981 36.2269 26.9578 36.2269H22.1659C21.5255 36.2269 21.0045 36.7478 21.0045 37.3882C21.0045 38.0285 21.5255 38.5495 22.1659 38.5495ZM22.1659 29.9241H26.9578C27.5981 29.9241 28.1191 29.4031 28.1191 28.7628C28.1191 28.1224 27.5981 27.6015 26.9578 27.6015H22.1659C21.5255 27.6015 21.0045 28.1224 21.0045 28.7628C21.0045 29.4031 21.5255 29.9241 22.1659 29.9241Z" fill="#DAC6B0"/>
</svg>
