<svg width="69" height="78" viewBox="0 0 69 78" fill="none" xmlns="http://www.w3.org/2000/svg">
<path d="M58.401 10.1038C51.9396 3.5883 43.3485 0 34.2105 0C25.0726 0 16.4814 3.5883 10.0201 10.1038C3.55851 16.6196 0 25.2825 0 34.4971C0 50.7533 11.2704 64.7878 26.9275 68.2078L34.2105 78L41.4938 68.2077C57.1506 64.7876 68.4211 50.7533 68.4211 34.4971C68.4211 25.2825 64.8625 16.6196 58.401 10.1038Z" fill="#C0986D"/>
<path d="M28.5482 21.3426C27.8394 20.783 27.0587 20.2992 26.2166 19.8912C27.4756 17.4415 31.9998 12.3565 34.3834 12.3154C36.7255 12.3558 41.1342 17.2659 42.4814 19.7609C41.6238 20.1534 40.8268 20.6218 40.101 21.1667C38.9394 19.4513 35.7071 15.2502 34.3834 15.0703C33.0118 15.2568 29.5912 19.7602 28.5482 21.3426ZM50.6315 21.2862V19.8745C50.6315 19.5259 50.5269 19.4206 50.1804 19.4206C41.669 19.39 35.1704 23.9411 35.4815 32.9817V47.7768H32.9395V32.9817C33.2506 23.9411 26.752 19.39 18.2407 19.4206C17.8941 19.4206 17.7895 19.5259 17.7895 19.8745V21.2862V22.1621V47.7768V49.4299V50.6312H26.7779V49.4299V47.7768V26.1081C25.959 25.3588 25.0096 24.7529 23.9512 24.2955V47.7768H20.6161V22.2924C26.122 23.0373 29.9304 26.6981 30.1129 32.9817V47.7768V49.4299V50.6312H38.3082V49.4299V47.7768V32.9817C38.4906 26.6981 42.299 23.0373 47.8049 22.2924V47.7768H44.4699V24.2955C43.4115 24.753 42.4622 25.3586 41.6432 26.108V47.7768V49.4299V50.6312H50.6316V49.4299V47.7768V21.2862H50.6315Z" fill="white"/>
</svg>
