<svg width="30" height="34" viewBox="0 0 30 34" fill="none" xmlns="http://www.w3.org/2000/svg">
<path d="M25.6066 4.40422C22.7735 1.56413 19.0067 0 15 0C10.9933 0 7.22648 1.56413 4.39341 4.40422C1.56027 7.24445 0 11.0206 0 15.0372C0 22.1232 4.94164 28.2408 11.8067 29.7316L15 34L18.1934 29.7316C25.0584 28.2407 30 22.1232 30 15.0372C30 11.0206 28.4397 7.24445 25.6066 4.40422Z" fill="#9DC197"/>
<path d="M13.0398 18.5036C13.0398 18.3085 13.1876 18.1507 13.3701 18.1507H16.6299C16.8124 18.1507 16.9602 18.3085 16.9602 18.5036C16.9602 18.6987 16.8124 18.8565 16.6299 18.8565H13.3701C13.1876 18.8565 13.0398 18.6987 13.0398 18.5036ZM19.765 8.43237H10.235C10.0524 8.43237 9.90466 8.59024 9.90466 8.7853C9.90466 8.98036 10.0524 9.13822 10.235 9.13822H19.765C19.9476 9.13822 20.0953 8.98036 20.0953 8.7853C20.0953 8.59024 19.9476 8.43237 19.765 8.43237ZM23 10.683V12.8634C23 13.3147 22.6565 13.6816 22.2342 13.6816H22.1112C21.9286 13.6816 21.7809 13.5238 21.7809 13.3287C21.7809 13.1337 21.9286 12.9758 22.1112 12.9758H22.2342C22.2922 12.9758 22.3394 12.9254 22.3394 12.8634V10.683C22.3394 10.621 22.2922 10.5706 22.2342 10.5706H21.4359V21.4179C21.4359 21.6717 21.3059 21.9081 21.1009 22.0345V23.6471C21.1009 23.8421 20.9532 24 20.7706 24H18.6202C18.4376 24 18.2899 23.8421 18.2899 23.6471V22.8503C18.2899 22.6552 18.4376 22.4974 18.6202 22.4974C18.8027 22.4974 18.9505 22.6552 18.9505 22.8503V23.2941H20.4403V22.1287H9.55966V23.2941H11.0495V22.8503C11.0495 22.6552 11.1973 22.4974 11.3798 22.4974C11.5624 22.4974 11.7101 22.6552 11.7101 22.8503V23.6471C11.7101 23.8421 11.5624 24 11.3798 24H9.22935C9.0468 24 8.89905 23.8421 8.89905 23.6471V22.0345C8.69406 21.9081 8.56411 21.6717 8.56411 21.4179V10.5706H7.76581C7.70779 10.5706 7.66061 10.621 7.66061 10.683V12.8634C7.66061 12.9254 7.70779 12.9758 7.76581 12.9758H7.8888C8.07136 12.9758 8.21911 13.1337 8.21911 13.3287C8.21911 13.5238 8.07136 13.6816 7.8888 13.6816H7.76581C7.34345 13.6816 7 13.3147 7 12.8634V10.683C7 10.2317 7.34345 9.86474 7.76581 9.86474H8.56411V8.96383C8.56411 7.88108 9.3887 7 10.4028 7H19.5972C20.6113 7 21.4359 7.88108 21.4359 8.96383V9.86474H22.2342C22.6565 9.86474 23 10.2317 23 10.683ZM11.5268 20.6468H9.22471V21.4179L20.7706 21.4229L20.7745 20.6468H18.4732C17.8289 20.6468 17.3052 20.0872 17.3052 19.3987V18.5036C17.3052 18.3085 17.4529 18.1507 17.6355 18.1507H20.1C20.2825 18.1507 20.4303 18.3085 20.4303 18.5036C20.4303 18.6987 20.2825 18.8565 20.1 18.8565H17.9658V19.3987C17.9658 19.6979 18.194 19.9418 18.4732 19.9418H20.7753V10.5706H15.3303V17.0274H20.1C20.2825 17.0274 20.4303 17.1853 20.4303 17.3803C20.4303 17.5754 20.2825 17.7333 20.1 17.7333H9.90002C9.71746 17.7333 9.56971 17.5754 9.56971 17.3803C9.56971 17.1853 9.71746 17.0274 9.90002 17.0274H14.6697V10.5706H9.22471V19.9418H11.5268C11.806 19.9418 12.0342 19.6979 12.0342 19.3987V18.8565H9.90002C9.71746 18.8565 9.56971 18.6987 9.56971 18.5036C9.56971 18.3085 9.71746 18.1507 9.90002 18.1507H12.3645C12.5471 18.1507 12.6948 18.3085 12.6948 18.5036V19.3987C12.6948 20.0872 12.1711 20.6468 11.5268 20.6468ZM20.7753 9.86474V8.96383C20.7753 8.27037 20.247 7.70585 19.5972 7.70585H10.4028C9.75304 7.70585 9.22471 8.27037 9.22471 8.96383V9.86474H20.7753Z" fill="white"/>
</svg>
