<svg width="30" height="34" viewBox="0 0 30 34" fill="none" xmlns="http://www.w3.org/2000/svg">
<path d="M25.6066 4.40422C22.7735 1.56413 19.0067 0 15 0C10.9933 0 7.22648 1.56413 4.39341 4.40422C1.56027 7.24445 0 11.0206 0 15.0372C0 22.1232 4.94164 28.2408 11.8067 29.7316L15 34L18.1934 29.7316C25.0584 28.2407 30 22.1232 30 15.0372C30 11.0206 28.4397 7.24445 25.6066 4.40422Z" fill="#BBBD65"/>
<path d="M12.9162 7.64739V12.9539C12.9162 13.2173 12.6997 13.4317 12.4336 13.4317C12.1675 13.4317 11.951 13.2173 11.951 12.9539V7.64739C11.951 7.38394 12.1675 7.16954 12.4336 7.16954C12.6997 7.16954 12.9162 7.38394 12.9162 7.64739ZM17.4294 18.3783C17.6955 18.3783 17.9121 18.1633 17.9121 17.8999V17.1812C17.9121 16.9177 17.6955 16.7028 17.4294 16.7028C17.1634 16.7028 16.9474 16.9177 16.9474 17.1812V17.8999C16.9474 18.1633 17.1634 18.3783 17.4294 18.3783ZM12.4336 14.1846C12.1675 14.1846 11.951 14.399 11.951 14.6624V17.4501C11.951 17.7136 12.1675 17.9285 12.4336 17.9285C12.6997 17.9285 12.9162 17.7136 12.9162 17.4501V14.6624C12.9162 14.399 12.6997 14.1846 12.4336 14.1846ZM20.3362 19.4574C20.521 19.4574 20.6713 19.6062 20.6713 19.7892C20.6713 20.0527 20.8878 20.2676 21.1539 20.2676C21.42 20.2676 21.6365 20.0527 21.6365 19.7892C21.6365 19.0793 21.0532 18.5017 20.3362 18.5017C20.0701 18.5017 19.8542 18.7156 19.8542 18.979C19.8542 19.2425 20.0701 19.4574 20.3362 19.4574ZM13.3877 21.4239C13.1216 21.4239 12.9051 21.6389 12.9051 21.9023C12.9051 22.0853 12.7548 22.2341 12.57 22.2341C12.3852 22.2341 12.2349 22.0853 12.2349 21.9023C12.2349 21.1924 11.6521 20.6148 10.9352 20.6148C10.2182 20.6148 9.63485 21.1924 9.63485 21.9023C9.63485 22.0853 9.48455 22.2341 9.29975 22.2341C9.1155 22.2341 8.96521 22.0853 8.96521 21.9023C8.96521 21.6389 8.74868 21.4239 8.4826 21.4239C8.21653 21.4239 8 21.6389 8 21.9023C8 22.6122 8.58336 23.1909 9.30031 23.1909C10.0173 23.1909 10.6001 22.6122 10.6001 21.9023C10.6001 21.7193 10.7503 21.5716 10.9352 21.5716C11.12 21.5716 11.2702 21.7193 11.2702 21.9023C11.2702 22.6122 11.853 23.1909 12.57 23.1909C13.2869 23.1909 13.8703 22.6122 13.8703 21.9023C13.8703 21.6389 13.6538 21.4239 13.3877 21.4239ZM21.5174 22.2341C21.2513 22.2341 21.0348 22.4491 21.0348 22.7125C21.0348 22.8955 20.8845 23.0432 20.6997 23.0432C20.5154 23.0432 20.3652 22.8955 20.3652 22.7125C20.3652 22.0026 19.7818 21.4239 19.0648 21.4239C18.3479 21.4239 17.7645 22.0026 17.7645 22.7125C17.7645 22.8955 17.6142 23.0432 17.43 23.0432C17.2452 23.0432 17.0949 22.8955 17.0949 22.7125C17.0949 22.4491 16.8784 22.2341 16.6123 22.2341C16.3462 22.2341 16.1297 22.4491 16.1297 22.7125C16.1297 23.4224 16.7131 24 17.43 24C18.147 24 18.7298 23.4224 18.7298 22.7125C18.7298 22.5295 18.88 22.3807 19.0648 22.3807C19.2497 22.3807 19.3999 22.5295 19.3999 22.7125C19.3999 23.4224 19.9827 24 20.6997 24C21.4166 24 22 23.4224 22 22.7125C22 22.4491 21.7835 22.2341 21.5174 22.2341ZM16.2772 17.4501V14.6624C16.2772 14.399 16.0607 14.1846 15.7946 14.1846C15.5285 14.1846 15.312 14.399 15.312 14.6624V17.4501C15.312 17.7136 15.5285 17.9285 15.7946 17.9285C16.0607 17.9285 16.2772 17.7136 16.2772 17.4501ZM15.9761 19.4574C15.7918 19.4574 15.6415 19.6062 15.6415 19.7892C15.6415 20.4991 15.0582 21.0767 14.3412 21.0767C13.6243 21.0767 13.0409 20.4991 13.0409 19.7892C13.0409 19.6062 12.8906 19.4574 12.7064 19.4574C12.5216 19.4574 12.3713 19.6062 12.3713 19.7892C12.3713 20.0527 12.1547 20.2676 11.8887 20.2676H10.8439C10.5778 20.2676 10.3618 20.0527 10.3618 19.7892C10.3618 19.6062 10.2115 19.4574 10.0267 19.4574C9.84191 19.4574 9.69162 19.6062 9.69162 19.7892C9.69162 20.0527 9.47509 20.2676 9.20902 20.2676C8.94294 20.2676 8.72641 20.0527 8.72641 19.7892C8.72641 19.0793 9.30977 18.5006 10.0267 18.5006C10.1397 18.5006 10.2522 18.5161 10.3618 18.5447V6.47785C10.3618 6.2144 10.5783 6 10.8444 6H19.0192C19.2853 6 19.5018 6.2144 19.5018 6.47785V20.5983C19.5018 20.8618 19.2853 21.0767 19.0192 21.0767H17.6115C16.8945 21.0767 16.3112 20.4991 16.3112 19.7892C16.3112 19.6062 16.1609 19.4574 15.9761 19.4574ZM15.9766 18.5017C16.6936 18.5017 17.2764 19.0793 17.2764 19.7892C17.2764 19.9722 17.4267 20.1199 17.6115 20.1199H18.5366V6.95569H17.9121V15.5167C17.9121 15.7802 17.6955 15.9945 17.4294 15.9945C17.1634 15.9945 16.9474 15.7802 16.9474 15.5167V6.95569H14.5967V15.5167C14.5967 15.7802 14.3802 15.9945 14.1141 15.9945C13.848 15.9945 13.6315 15.7802 13.6315 15.5167V6.95569H11.3265V19.3108H11.499C11.6955 18.8269 12.1781 18.5017 12.7064 18.5017C13.4233 18.5017 14.0067 19.0793 14.0067 19.7892C14.0067 19.9722 14.157 20.1199 14.3412 20.1199C14.526 20.1199 14.6763 19.9722 14.6763 19.7892C14.6763 19.0793 15.2597 18.5017 15.9766 18.5017ZM15.7946 13.4317C16.0607 13.4317 16.2772 13.2173 16.2772 12.9539V7.64739C16.2772 7.38394 16.0607 7.16954 15.7946 7.16954C15.5285 7.16954 15.312 7.38394 15.312 7.64739V12.9539C15.312 13.2173 15.5285 13.4317 15.7946 13.4317ZM14.1141 16.7028C13.848 16.7028 13.6315 16.9177 13.6315 17.1812V17.8999C13.6315 18.1633 13.848 18.3783 14.1141 18.3783C14.3802 18.3783 14.5967 18.1633 14.5967 17.8999V17.1812C14.5967 16.9177 14.3802 16.7028 14.1141 16.7028Z" fill="white"/>
</svg>
