<svg width="30" height="33" viewBox="0 0 30 33" fill="none" xmlns="http://www.w3.org/2000/svg">
<path d="M25.6066 4.27468C22.7735 1.51813 19.0067 0 15 0C10.9933 0 7.22648 1.51813 4.39341 4.27468C1.56027 7.03138 0 10.6964 0 14.5949C0 21.4725 4.94164 27.4102 11.8067 28.8572L15 33L18.1934 28.8571C25.0584 27.4101 30 21.4725 30 14.5949C30 10.6964 28.4397 7.03138 25.6066 4.27468Z" fill="#D88CB0"/>
<path d="M9.62285 20C10.3841 20 10.784 19.7933 11.1359 19.6106C11.4579 19.4449 11.7319 19.304 12.3108 19.304C12.8905 19.304 13.1645 19.4449 13.4813 19.6089C13.8376 19.7933 14.2366 20 14.9996 20C15.7617 20 16.1616 19.7933 16.5152 19.6106C16.8363 19.4449 17.1095 19.304 17.6884 19.304C18.2681 19.304 18.5421 19.4449 18.8589 19.6089C19.2151 19.7933 19.6142 20 20.3771 20C21.1393 20 21.5391 19.7933 21.8911 19.6106C22.2011 19.4518 22.4657 19.3151 23 19.3049V18.5662C22.2807 18.5781 21.8945 18.778 21.5528 18.9556C21.2309 19.1213 20.9569 19.2622 20.3771 19.2622C19.7983 19.2622 19.5243 19.1213 19.2074 18.9573C18.8512 18.7728 18.4505 18.5662 17.6884 18.5662C16.9254 18.5662 16.5264 18.7728 16.1736 18.9556C15.8533 19.1213 15.5793 19.2622 14.9996 19.2622C14.4207 19.2622 14.1467 19.1213 13.8299 18.9573C13.4728 18.7728 13.0729 18.5662 12.3108 18.5662C11.5495 18.5662 11.1496 18.7728 10.7977 18.9556C10.4757 19.1213 10.2017 19.2622 9.62285 19.2622C9.04314 19.2622 8.76912 19.1213 8.45229 18.9573C8.1072 18.7788 7.72101 18.5781 7 18.5662V19.3049C7.53433 19.3151 7.79893 19.4518 8.10377 19.6089C8.46085 19.7933 8.86074 20 9.62285 20Z" fill="white"/>
<path d="M20.8199 15.3783C20.253 15.3945 19.9421 15.6149 19.6912 15.7942C19.4592 15.9573 19.2948 16.0734 18.924 16.0734C18.5532 16.0734 18.3888 15.9573 18.1602 15.7959C17.8964 15.608 17.5719 15.3775 16.9614 15.3775C16.3517 15.3775 16.0271 15.608 15.7668 15.7942C15.5373 15.9564 15.3712 16.0734 14.9996 16.0734C14.6288 16.0734 14.4635 15.9564 14.2358 15.795C13.972 15.608 13.6466 15.3775 13.0378 15.3775C12.4272 15.3775 12.1027 15.608 11.8424 15.7942C11.612 15.9564 11.4468 16.0734 11.076 16.0734C10.7044 16.0734 10.5382 15.9564 10.3096 15.7942C10.0579 15.6149 9.74702 15.3945 9.18014 15.3783V16.117C9.50554 16.1298 9.66396 16.2417 9.87803 16.3937C10.1409 16.5807 10.4655 16.8113 11.076 16.8113C11.6857 16.8113 12.0102 16.5807 12.2705 16.3945C12.5026 16.2314 12.667 16.1153 13.0378 16.1153C13.4086 16.1153 13.573 16.2314 13.8016 16.3928C14.0653 16.5807 14.3899 16.8113 14.9996 16.8113C15.6101 16.8113 15.9347 16.5807 16.195 16.3945C16.4253 16.2323 16.5906 16.1153 16.9614 16.1153C17.333 16.1153 17.4983 16.2323 17.726 16.3937C17.9889 16.5807 18.3135 16.8113 18.924 16.8113C19.5345 16.8113 19.8591 16.5807 20.1194 16.3945C20.336 16.2417 20.4945 16.1298 20.8199 16.117V15.3783Z" fill="white"/>
<path d="M20.3771 12.8843C19.7949 12.8843 19.5208 12.7421 19.204 12.5777C18.8495 12.395 18.4496 12.1887 17.6884 12.1887C16.9263 12.1887 16.5264 12.3954 16.1736 12.5777C15.8567 12.7421 15.5827 12.8843 14.9996 12.8843C14.4173 12.8843 14.1433 12.7421 13.8264 12.5777C13.4719 12.395 13.072 12.1887 12.3108 12.1887C11.5504 12.1887 11.1505 12.395 10.7986 12.5769C10.4792 12.7421 10.2051 12.8843 9.62285 12.8843C9.03971 12.8843 8.76569 12.7421 8.44886 12.5777C8.10634 12.4005 7.72015 12.2007 7 12.1892V12.9278C7.5369 12.9381 7.80235 13.0756 8.1072 13.2336C8.46171 13.4163 8.8616 13.6225 9.62285 13.6225C10.3832 13.6225 10.7831 13.4163 11.1351 13.2344C11.4545 13.0692 11.7285 12.927 12.3108 12.927C12.8939 12.927 13.1679 13.0692 13.4848 13.2336C13.8376 13.4159 14.2375 13.6225 14.9996 13.6225C15.7608 13.6225 16.1607 13.4163 16.5127 13.2344C16.8321 13.0692 17.1061 12.927 17.6884 12.927C18.2715 12.927 18.5455 13.0692 18.8623 13.2336C19.2151 13.4159 19.615 13.6225 20.3771 13.6225C21.1384 13.6225 21.5383 13.4163 21.8902 13.2344C22.1976 13.0756 22.4631 12.9381 23 12.9278V12.1892C22.2816 12.2007 21.8954 12.4001 21.5537 12.5769L21.5212 12.5196L21.5511 12.5777C21.2343 12.7421 20.9603 12.8843 20.3771 12.8843Z" fill="white"/>
<path d="M18.924 9.69556C18.5524 9.69556 18.3871 9.57857 18.1585 9.41674C17.8956 9.23057 17.571 9 16.9614 9C16.3525 9 16.028 9.23057 15.7668 9.41588C15.5373 9.57814 15.3721 9.69556 14.9996 9.69556C14.6271 9.69556 14.4627 9.57814 14.234 9.41588C13.9712 9.23015 13.6458 9 13.0378 9C12.4281 9 12.1036 9.23057 11.8424 9.41588C11.6129 9.57814 11.4485 9.69556 11.076 9.69556C10.7035 9.69556 10.5382 9.57814 10.3088 9.41588C10.0579 9.2374 9.74702 9.01665 9.18014 9.00085V9.73954C9.5064 9.75278 9.66567 9.8655 9.87974 10.0179C10.1409 10.2032 10.4663 10.4338 11.076 10.4338C11.6848 10.4338 12.0094 10.2032 12.2705 10.0179C12.5009 9.85525 12.6661 9.73826 13.0378 9.73826C13.4094 9.73826 13.5747 9.85525 13.8033 10.0171C14.0662 10.2032 14.3907 10.4338 14.9996 10.4338C15.6093 10.4338 15.9338 10.2032 16.195 10.0179C16.4245 9.85568 16.5897 9.73826 16.9614 9.73826C17.3347 9.73826 17.4991 9.85568 17.7277 10.0179C17.9898 10.2032 18.3143 10.4338 18.924 10.4338C19.5337 10.4338 19.8582 10.2032 20.1194 10.0179C20.3343 9.8655 20.4936 9.75278 20.8199 9.73954V9.00085C20.253 9.01665 19.9421 9.2374 19.6912 9.41588C19.4609 9.57857 19.2956 9.69556 18.924 9.69556Z" fill="white"/>
</svg>
