<svg width="30" height="34" viewBox="0 0 30 34" fill="none" xmlns="http://www.w3.org/2000/svg">
<path d="M25.6066 4.40422C22.7735 1.56413 19.0067 0 15 0C10.9933 0 7.22648 1.56413 4.39341 4.40422C1.56027 7.24445 0 11.0206 0 15.0372C0 22.1232 4.94164 28.2408 11.8067 29.7316L15 34L18.1934 29.7316C25.0584 28.2407 30 22.1232 30 15.0372C30 11.0206 28.4397 7.24445 25.6066 4.40422Z" fill="#C49FDB"/>
<path d="M8.65965 12.2336V18.9065H10.0213V12.2336C10.0213 12.041 10.1736 11.8847 10.3618 11.8847C10.5499 11.8847 10.7022 12.041 10.7022 12.2336V19.2119C10.7022 19.4045 10.5925 19.6044 10.4043 19.6044H8.3618C8.17362 19.6044 7.97884 19.4045 7.97884 19.2119V12.2336C7.97884 12.041 8.13109 11.8848 8.31922 11.8848C8.50741 11.8848 8.65965 12.041 8.65965 12.2336ZM12.0639 11.8848C11.8757 11.8848 11.7235 12.041 11.7235 12.2336V19.2119C11.7235 19.4045 11.9183 19.6044 12.1064 19.6044H14.149C14.3371 19.6044 14.4469 19.4045 14.4469 19.2119V12.2336C14.4468 12.041 14.2945 11.8847 14.1064 11.8847C13.9182 11.8847 13.766 12.041 13.766 12.2336V18.9065H12.4043V12.2336C12.4043 12.041 12.252 11.8848 12.0639 11.8848ZM15.8085 11.8848C15.6203 11.8848 15.4681 12.041 15.4681 12.2336V19.2119C15.4681 19.4045 15.6629 19.6044 15.8511 19.6044H17.8936C18.0818 19.6044 18.1915 19.4045 18.1915 19.2119V12.2336C18.1914 12.041 18.0391 11.8847 17.851 11.8847C17.6628 11.8847 17.5106 12.041 17.5106 12.2336V18.9065H16.1489V12.2336C16.1489 12.041 15.9967 11.8848 15.8085 11.8848ZM19.5531 11.8848C19.365 11.8848 19.2127 12.041 19.2127 12.2336V19.2119C19.2127 19.4045 19.4076 19.6044 19.5957 19.6044H21.6382C21.8264 19.6044 21.9361 19.4045 21.9361 19.2119V12.2336C21.9361 12.041 21.7838 11.8847 21.5956 11.8847C21.4075 11.8847 21.2552 12.041 21.2552 12.2336V18.9065H19.8935V12.2336C19.8935 12.041 19.7413 11.8848 19.5531 11.8848ZM22.9926 10.9322C22.959 11.0934 22.8204 11.2305 22.6595 11.2305H7.34051C7.17963 11.2305 7.041 11.0934 7.00741 10.9322C6.97416 10.7711 7.05526 10.586 7.20218 10.5193L14.8617 7.03014C14.9501 6.98995 15.0498 6.98995 15.1383 7.03014L22.7977 10.5193C22.9447 10.586 23.0258 10.7711 22.9926 10.9322ZM21.0554 10.5327L15 7.77432L8.94457 10.5327H21.0554ZM7.63837 21H22.2765V20.3022H7.63837V21Z" fill="white"/>
</svg>
