<svg width="30" height="30" viewBox="0 0 30 30" fill="none" xmlns="http://www.w3.org/2000/svg">
<path d="M16.2288 15L29.7456 1.48318C30.0848 1.14406 30.0848 0.593482 29.7456 0.254358C29.4065 -0.0848283 28.8559 -0.0847651 28.5167 0.254422L15 13.7711L1.48328 0.254422C1.14409 -0.0847651 0.593514 -0.0848282 0.25439 0.254358C-0.0847968 0.593482 -0.0847968 1.14406 0.25439 1.48318L13.7712 15L0.25439 28.5168C-0.0847968 28.8559 -0.0847968 29.4065 0.25439 29.7456C0.593514 30.0848 1.14403 30.0848 1.48322 29.7456L15 16.2288L28.5168 29.7456C28.856 30.0848 29.4065 30.0848 29.7456 29.7456C30.0848 29.4065 30.0848 28.8559 29.7456 28.5168L16.2288 15Z" fill="black" fill-opacity="0.43"/>
</svg>
