<svg width="16" height="16" viewBox="0 0 16 16" fill="none" xmlns="http://www.w3.org/2000/svg">
<rect width="16" height="16" fill="#C0986D"/>
<path d="M5.54517 3.76958C5.2457 3.5359 4.9159 3.33388 4.56012 3.16351C5.09202 2.14054 7.00331 0.0171393 8.01029 0C8.99976 0.0168532 10.8622 2.06723 11.4314 3.10908C11.0691 3.27302 10.7324 3.46861 10.4257 3.69613C9.93503 2.9798 8.56952 1.22553 8.01029 1.1504C7.43087 1.22825 5.98579 3.10879 5.54517 3.76958ZM14.8745 3.74605V3.15653C14.8745 3.01098 14.8303 2.967 14.6839 2.967C11.0882 2.95423 8.34279 4.85468 8.4742 8.62986V14.808H7.40031V8.62986C7.53173 4.85468 4.78634 2.95423 1.19061 2.967C1.04419 2.967 1 3.01098 1 3.15653V3.74605V4.1118V14.808V15.4984V16H4.79725V15.4984V14.808V5.75957C4.45129 5.44668 4.05021 5.19369 3.6031 5.00266V14.808H2.19415V4.16622C4.52019 4.47726 6.12908 6.00596 6.20616 8.62986V14.808V15.4984V16H9.66836V15.4984V14.808V8.62986C9.74543 6.00596 11.3543 4.47726 13.6804 4.16622V14.808H12.2714V5.00266C11.8243 5.19372 11.4233 5.44662 11.0773 5.75954V14.808V15.4984V16H14.8745V15.4984V14.808V3.74605H14.8745Z" fill="white"/>
</svg>
