<svg width="334" height="319" viewBox="0 0 334 319" fill="none" xmlns="http://www.w3.org/2000/svg">
<path d="M-189.67 288.726C-189.67 288.726 -254.442 221.02 -200.624 147.719C-152.873 82.6817 -97.2 87.1277 -56.3531 113.52C-38.9563 124.761 26.0311 115.549 82.8614 60.3603C143.364 1.60526 305.197 30.4668 277.119 152.065C261.486 219.769 331.311 221.701 294.625 288.868L-189.67 288.726Z" fill="#FCECDB"/>
<path d="M333.458 0L244.048 29.5702L261.997 44.5295V44.5298L184.631 125.52L116.816 67.2917L-153.886 289.096L-151.502 289.133H-84.0669L116.151 125.083L187.645 186.469L296.088 72.9436L296.089 72.9425L315.463 89.0892L333.458 0Z" fill="#C0986D"/>
<path d="M16.3911 235.166L-4.14805 233.4C-4.14805 233.4 -2.96056 220.737 -6.57377 203.847C-9.23975 191.371 -14.5254 176.591 -24.8396 162.9C-42.4295 139.555 -94.6777 126.494 -94.6777 126.494V123.472L-92.7994 123.269C-92.7994 123.269 -93.6089 122.704 -94.6777 122.377V115.232C-93.1339 115.211 -90.9235 115.303 -88.7401 115.814C-89.964 115.509 -92.574 114.91 -94.6777 114.748V110.991C-18.9919 113.015 5.69155 158.732 13.4271 194.112C18.3809 216.757 16.3911 235.166 16.3911 235.166Z" fill="#82B378"/>
<path d="M106.281 228.521L16.391 235.166C15.9258 221.321 12.3122 207.003 8.81745 196.148C5.32291 185.293 1.94204 177.899 1.94204 177.899C-24.9488 118.977 -94.6779 110.991 -94.6779 110.991L-17.2858 79.2969C20.1014 82.1104 46.3309 100.066 64.6766 122.612C100.607 166.768 106.281 228.521 106.281 228.521Z" fill="#A8D29F"/>
<path opacity="0.5" d="M106.281 228.521L16.3911 235.166L-4.14808 233.4C-4.14808 233.4 -2.96059 220.737 -6.57379 203.848C-2.29165 201.269 2.80023 198.693 8.81755 196.148C10.3979 195.479 11.9342 194.801 13.4271 194.112C70.6603 167.696 65.3289 126.548 64.6767 122.612C100.608 166.768 106.281 228.521 106.281 228.521Z" fill="#82B378"/>
<path d="M99.2118 235.443L19.1037 233.894L19.3862 232.351C19.4289 232.117 23.5429 208.63 13.9382 181.925C8.31117 166.28 -0.862068 152.594 -13.3267 141.246C-28.9426 127.029 -49.8113 116.447 -75.3536 109.794L-79.2885 108.77L-16.7631 83.8861L-16.523 83.8805C-15.8467 83.8653 0.257133 83.6222 20.9574 93.4122C33.0906 99.1509 44.2614 107.169 54.1591 117.244C66.5079 129.814 76.8954 145.637 85.0337 164.274C85.6763 165.706 100.893 199.867 100.089 220.379L100.088 220.404L99.2118 235.443ZM22.2438 231.288L96.6995 232.728L97.4253 220.263C97.7438 212.069 95.2878 199.99 90.3223 185.332C86.5502 174.195 82.6351 165.44 82.5962 165.353C74.5988 147.04 64.4171 131.511 52.3286 119.185C42.6703 109.338 31.7767 101.498 19.95 95.8849C7.11742 89.7942 -4.07188 87.6719 -10.5494 86.9349C-13.9503 86.548 -17.3924 87.0059 -20.5727 88.2714L-63.9056 105.517C-66.166 106.416 -66.0512 109.647 -63.7354 110.393C-42.6626 117.178 -25.1189 126.886 -11.471 139.33C1.31858 150.991 10.7258 165.058 16.4885 181.14C21.611 195.435 22.8419 208.707 22.9721 217.323C23.0734 224.008 22.5614 228.932 22.2438 231.288Z" fill="#82B378"/>
<path d="M56.1078 143.398C56.1078 156.594 48.3764 164.569 35.1795 164.569C21.9825 164.569 8.31726 156.594 8.31726 143.398C8.31726 130.2 15.6263 122.308 28.8233 122.308C42.0204 122.308 56.1078 130.2 56.1078 143.398Z" fill="#82B378"/>
<path d="M176.095 278.174V286.06C176.095 286.688 175.904 287.271 175.575 287.757C175.228 288.267 174.731 288.669 174.148 288.894C173.97 288.964 173.784 289.016 173.592 289.05C173.418 289.082 173.239 289.099 173.056 289.099H47.4519C45.8324 289.099 44.4986 287.815 44.4162 286.216C44.4144 286.164 44.4129 286.112 44.4129 286.06V278.174C44.4129 278.122 44.4144 278.07 44.4162 278.018C44.4986 276.419 45.8324 275.135 47.4519 275.135H173.056C173.239 275.135 173.418 275.152 173.592 275.184C173.784 275.218 173.97 275.27 174.148 275.34C174.731 275.565 175.228 275.967 175.575 276.478C175.904 276.963 176.095 277.546 176.095 278.174Z" fill="#FFB93E"/>
<path d="M114.417 289.099H47.1258C45.6811 289.099 44.4902 287.815 44.4162 286.216C44.4144 286.164 44.4129 286.112 44.4129 286.06V278.174C44.4129 278.122 44.4144 278.07 44.4162 278.018C44.4902 276.419 45.6811 275.135 47.1258 275.135H106.153C107.096 279.246 109.293 284.931 114.417 289.099Z" fill="#FFA412"/>
<path d="M160.812 275.135H159.384V289.099H160.812V275.135Z" fill="#FFA412"/>
<path d="M155.979 275.135H154.552V289.099H155.979V275.135Z" fill="#FFA412"/>
<path d="M150.185 275.135H148.757V289.099H150.185V275.135Z" fill="#FFA412"/>
<path d="M141.302 275.135H139.875V289.099H141.302V275.135Z" fill="#FFA412"/>
<path d="M131.91 275.135H130.482V289.099H131.91V275.135Z" fill="#FFA412"/>
<path d="M117.51 275.135H116.083V289.099H117.51V275.135Z" fill="#FFA412"/>
<path d="M104.028 275.135H102.601V289.099H104.028V275.135Z" fill="#FFA412"/>
<path d="M91.9896 275.135H90.5621V289.099H91.9896V275.135Z" fill="#FFA412"/>
<path d="M165.411 275.135H163.984V289.099H165.411V275.135Z" fill="#FFA412"/>
<path d="M168.45 275.135H167.023V289.099H168.45V275.135Z" fill="#FFA412"/>
<path d="M171.384 275.135H169.957V289.099H171.384V275.135Z" fill="#FFA412"/>
<path d="M173.592 275.184V289.05C173.418 289.082 173.239 289.099 173.056 289.099H172.164V275.135H173.056C173.239 275.135 173.418 275.152 173.592 275.184Z" fill="#FFA412"/>
<path d="M175.575 276.478V287.757C175.228 288.267 174.731 288.669 174.148 288.894V275.341C174.731 275.566 175.228 275.967 175.575 276.478Z" fill="#FFA412"/>
<path d="M162.666 264.211V272.096C162.666 272.725 162.475 273.307 162.145 273.793C161.799 274.304 161.302 274.705 160.719 274.93C160.541 275.001 160.354 275.053 160.163 275.087C159.988 275.119 159.81 275.135 159.627 275.135H34.0226C32.4028 275.135 31.0691 273.852 30.9868 272.253C30.9852 272.2 30.9832 272.148 30.9832 272.096V264.211C30.9832 264.159 30.9852 264.107 30.9868 264.055C31.0691 262.455 32.4028 261.172 34.0226 261.172H159.627C159.708 261.172 159.788 261.175 159.867 261.182C159.901 261.184 159.936 261.187 159.97 261.192C160.007 261.195 160.045 261.2 160.082 261.207C160.109 261.211 160.136 261.216 160.163 261.22C160.354 261.254 160.541 261.306 160.719 261.377C160.746 261.387 160.771 261.397 160.798 261.409C160.823 261.419 160.85 261.431 160.875 261.442C160.926 261.466 160.978 261.491 161.028 261.516C161.057 261.531 161.087 261.548 161.116 261.565C161.142 261.58 161.167 261.594 161.193 261.61C161.241 261.639 161.289 261.669 161.336 261.701C161.389 261.738 161.441 261.777 161.492 261.817C161.532 261.847 161.571 261.879 161.609 261.913C161.611 261.914 161.615 261.916 161.616 261.919C161.641 261.941 161.668 261.965 161.693 261.988C161.771 262.059 161.845 262.136 161.913 262.215C161.935 262.239 161.955 262.262 161.974 262.286C161.994 262.309 162.012 262.334 162.033 262.359C162.071 262.41 162.11 262.462 162.145 262.514C162.475 263 162.666 263.582 162.666 264.211Z" fill="#FFB93E"/>
<path d="M100.988 275.135H33.6966C32.25 275.135 31.0608 273.852 30.9868 272.253C30.9852 272.2 30.9832 272.148 30.9832 272.096V264.211C30.9832 264.159 30.9852 264.107 30.9868 264.055C31.0608 262.455 32.25 261.172 33.6966 261.172H92.7224C92.7491 261.286 92.7763 261.4 92.8045 261.516C93.791 265.595 96.0032 271.083 100.988 275.135Z" fill="#FFA412"/>
<path d="M147.382 261.172H145.954V275.136H147.382V261.172Z" fill="#FFA412"/>
<path d="M142.55 261.172H141.122V275.136H142.55V261.172Z" fill="#FFA412"/>
<path d="M136.755 261.172H135.328V275.136H136.755V261.172Z" fill="#FFA412"/>
<path d="M127.872 261.172H126.445V275.136H127.872V261.172Z" fill="#FFA412"/>
<path d="M118.48 261.172H117.053V275.136H118.48V261.172Z" fill="#FFA412"/>
<path d="M104.081 261.172H102.653V275.136H104.081V261.172Z" fill="#FFA412"/>
<path d="M90.5987 261.172H89.1711V275.136H90.5987V261.172Z" fill="#FFA412"/>
<path d="M78.5598 261.172H77.1322V275.136H78.5598V261.172Z" fill="#FFA412"/>
<path d="M151.982 261.172H150.554V275.136H151.982V261.172Z" fill="#FFA412"/>
<path d="M155.021 261.172H153.593V275.136H155.021V261.172Z" fill="#FFA412"/>
<path d="M157.955 261.172H156.527V275.136H157.955V261.172Z" fill="#FFA412"/>
<path d="M160.163 261.22V275.087C159.988 275.118 159.81 275.135 159.627 275.135H158.735V261.172H159.627C159.81 261.172 159.988 261.188 160.163 261.22Z" fill="#FFA412"/>
<path d="M162.145 262.514V273.793C161.799 274.304 161.302 274.705 160.719 274.93V261.377C161.302 261.602 161.799 262.003 162.145 262.514Z" fill="#FFA412"/>
<path d="M169.156 250.591V258.477C169.156 259.105 168.964 259.688 168.635 260.174C168.289 260.685 167.791 261.086 167.209 261.311C167.03 261.382 166.844 261.434 166.652 261.467C166.478 261.499 166.3 261.516 166.116 261.516H40.5118C40.008 261.516 39.531 261.392 39.111 261.172C38.2223 260.706 37.5871 259.812 37.4864 258.769C37.4812 258.724 37.4781 258.679 37.4764 258.633C37.4747 258.581 37.4729 258.529 37.4729 258.477V250.591C37.4729 250.539 37.4747 250.487 37.4764 250.435C37.5587 248.836 38.8925 247.552 40.5118 247.552H166.116C166.3 247.552 166.478 247.569 166.652 247.601C166.844 247.635 167.03 247.687 167.209 247.757C167.791 247.983 168.289 248.384 168.635 248.895C168.964 249.38 169.156 249.963 169.156 250.591Z" fill="#FFB93E"/>
<path d="M107.477 261.516H40.1859C39.7359 261.516 39.3108 261.392 38.9361 261.172C38.1415 260.706 37.5755 259.812 37.4864 258.769C37.4812 258.724 37.4781 258.679 37.4764 258.633C37.4747 258.581 37.4729 258.529 37.4729 258.477V250.591C37.4729 250.539 37.4747 250.487 37.4764 250.435C37.5502 248.836 38.7414 247.552 40.1859 247.552H99.2136C100.131 251.551 102.234 257.039 107.064 261.172C107.2 261.287 107.338 261.402 107.477 261.516Z" fill="#FFA412"/>
<path d="M153.872 247.552H152.444V261.516H153.872V247.552Z" fill="#FFA412"/>
<path d="M149.04 247.552H147.612V261.516H149.04V247.552Z" fill="#FFA412"/>
<path d="M143.245 247.552H141.818V261.516H143.245V247.552Z" fill="#FFA412"/>
<path d="M134.363 247.552H132.935V261.516H134.363V247.552Z" fill="#FFA412"/>
<path d="M124.97 247.552H123.543V261.516H124.97V247.552Z" fill="#FFA412"/>
<path d="M110.571 247.552H109.143V261.516H110.571V247.552Z" fill="#FFA412"/>
<path d="M97.0888 247.552H95.6612V261.516H97.0888V247.552Z" fill="#FFA412"/>
<path d="M85.0498 247.552H83.6224V261.516H85.0498V247.552Z" fill="#FFA412"/>
<path d="M158.472 247.552H157.044V261.516H158.472V247.552Z" fill="#FFA412"/>
<path d="M161.51 247.552H160.083V261.516H161.51V247.552Z" fill="#FFA412"/>
<path d="M164.445 247.552H163.017V261.516H164.445V247.552Z" fill="#FFA412"/>
<path d="M166.653 247.601V261.467C166.478 261.499 166.3 261.516 166.117 261.516H165.225V247.552H166.117C166.3 247.552 166.478 247.569 166.653 247.601Z" fill="#FFA412"/>
<path d="M168.635 248.894V260.174C168.289 260.684 167.792 261.086 167.209 261.311V247.757C167.792 247.982 168.289 248.384 168.635 248.894Z" fill="#FFA412"/>
<path d="M172.164 236.628V244.513C172.164 245.142 171.973 245.725 171.643 246.21C171.298 246.721 170.8 247.122 170.217 247.347C170.039 247.418 169.853 247.47 169.661 247.504C169.486 247.536 169.308 247.552 169.125 247.552H43.5207C41.9016 247.552 40.5674 246.269 40.4851 244.67C40.4834 244.618 40.4816 244.566 40.4816 244.513V236.628C40.4816 236.576 40.4834 236.524 40.4851 236.472C40.5607 234.991 41.7082 233.784 43.1612 233.611C43.2788 233.596 43.3981 233.589 43.5207 233.589H169.125C169.308 233.589 169.486 233.606 169.661 233.638C169.853 233.671 170.039 233.723 170.217 233.794C170.8 234.019 171.298 234.421 171.643 234.931C171.973 235.417 172.164 236 172.164 236.628Z" fill="#FFB93E"/>
<path d="M110.486 247.552H43.195C41.7501 247.552 40.5589 246.269 40.4851 244.67C40.4834 244.618 40.4816 244.566 40.4816 244.513V236.628C40.4816 236.576 40.4834 236.524 40.4851 236.472C40.5524 234.993 41.577 233.784 42.8741 233.611C42.9781 233.596 43.0855 233.589 43.195 233.589H102.222C102.224 233.596 102.226 233.604 102.227 233.611C103.173 237.718 105.37 243.391 110.486 247.552Z" fill="#FFA412"/>
<path d="M156.881 233.589H155.453V247.552H156.881V233.589Z" fill="#FFA412"/>
<path d="M152.048 233.589H150.621V247.552H152.048V233.589Z" fill="#FFA412"/>
<path d="M146.254 233.589H144.826V247.552H146.254V233.589Z" fill="#FFA412"/>
<path d="M137.371 233.589H135.943V247.552H137.371V233.589Z" fill="#FFA412"/>
<path d="M127.978 233.589H126.551V247.552H127.978V233.589Z" fill="#FFA412"/>
<path d="M113.579 233.589H112.152V247.552H113.579V233.589Z" fill="#FFA412"/>
<path d="M100.097 233.589H98.67V247.552H100.097V233.589Z" fill="#FFA412"/>
<path d="M88.0587 233.589H86.6307V247.552H88.0587V233.589Z" fill="#FFA412"/>
<path d="M161.48 233.589H160.053V247.552H161.48V233.589Z" fill="#FFA412"/>
<path d="M164.519 233.589H163.092V247.552H164.519V233.589Z" fill="#FFA412"/>
<path d="M167.453 233.589H166.026V247.552H167.453V233.589Z" fill="#FFA412"/>
<path d="M169.661 233.637V247.503C169.486 247.535 169.308 247.552 169.125 247.552H168.233V233.588H169.125C169.308 233.588 169.486 233.605 169.661 233.637Z" fill="#FFA412"/>
<path d="M171.643 234.931V246.21C171.297 246.72 170.8 247.122 170.217 247.347V233.793C170.8 234.018 171.297 234.42 171.643 234.931Z" fill="#FFA412"/>
<path d="M162.93 222.686V230.572C162.93 231.2 162.738 231.783 162.409 232.269C162.063 232.779 161.566 233.181 160.983 233.406C160.805 233.477 160.618 233.529 160.427 233.562C160.368 233.572 160.309 233.583 160.25 233.589C160.218 233.592 160.185 233.596 160.151 233.599C160.119 233.603 160.086 233.604 160.052 233.606C159.998 233.609 159.944 233.611 159.891 233.611H34.2862C32.6667 233.611 31.3331 232.328 31.2506 230.728C31.2489 230.676 31.2471 230.624 31.2471 230.572V222.686C31.2471 222.634 31.2489 222.582 31.2506 222.53C31.2524 222.486 31.2557 222.445 31.2591 222.403C31.3799 221.116 32.3139 220.054 33.537 219.742C33.5672 219.733 33.599 219.726 33.6294 219.72C33.8411 219.673 34.0609 219.647 34.2862 219.647H159.891C159.983 219.647 160.074 219.652 160.163 219.659C160.203 219.664 160.244 219.667 160.284 219.673H160.286C160.333 219.679 160.38 219.688 160.427 219.696C160.618 219.73 160.805 219.782 160.983 219.853C161.566 220.077 162.063 220.479 162.409 220.99C162.738 221.475 162.93 222.058 162.93 222.686Z" fill="#FFB93E"/>
<path d="M101.251 233.611H33.9605C32.5156 233.611 31.3244 232.328 31.2506 230.728C31.2489 230.676 31.2471 230.624 31.2471 230.572V222.686C31.2471 222.634 31.2489 222.582 31.2506 222.53C31.2524 222.486 31.2557 222.445 31.2591 222.403C31.3681 221.087 32.2365 220.009 33.3639 219.723C33.4024 219.711 33.4412 219.703 33.4801 219.696C33.6359 219.664 33.7957 219.647 33.9605 219.647H92.9878C92.9946 219.681 93.0029 219.713 93.0114 219.747C93.964 223.842 96.1612 229.457 101.224 233.589C101.233 233.596 101.243 233.604 101.251 233.611Z" fill="#FFA412"/>
<path d="M147.646 219.647H146.219V233.611H147.646V219.647Z" fill="#FFA412"/>
<path d="M142.814 219.647H141.386V233.611H142.814V219.647Z" fill="#FFA412"/>
<path d="M137.019 219.647H135.591V233.611H137.019V219.647Z" fill="#FFA412"/>
<path d="M128.137 219.647H126.709V233.611H128.137V219.647Z" fill="#FFA412"/>
<path d="M118.744 219.647H117.317V233.611H118.744V219.647Z" fill="#FFA412"/>
<path d="M104.345 219.647H102.917V233.611H104.345V219.647Z" fill="#FFA412"/>
<path d="M90.8626 219.647H89.4351V233.611H90.8626V219.647Z" fill="#FFA412"/>
<path d="M78.8239 219.647H77.3965V233.611H78.8239V219.647Z" fill="#FFA412"/>
<path d="M152.246 219.647H150.818V233.611H152.246V219.647Z" fill="#FFA412"/>
<path d="M155.285 219.647H153.857V233.611H155.285V219.647Z" fill="#FFA412"/>
<path d="M158.219 219.647H156.791V233.611H158.219V219.647Z" fill="#FFA412"/>
<path d="M160.427 219.695V233.562C160.252 233.594 160.074 233.61 159.891 233.61H158.999V219.647H159.891C160.074 219.647 160.252 219.664 160.427 219.695Z" fill="#FFA412"/>
<path d="M162.409 220.989V232.268C162.063 232.779 161.566 233.18 160.983 233.406V219.852C161.566 220.077 162.063 220.479 162.409 220.989Z" fill="#FFA412"/>
<path d="M162.666 208.822V216.707C162.666 217.336 162.475 217.918 162.145 218.404C161.799 218.915 161.302 219.316 160.719 219.541C160.58 219.597 160.433 219.641 160.286 219.672H160.282C160.242 219.682 160.203 219.691 160.163 219.698C159.988 219.729 159.81 219.746 159.627 219.746H34.0227C33.8896 219.746 33.7571 219.738 33.6295 219.719C33.5789 219.714 33.5285 219.706 33.4802 219.696C32.114 219.449 31.0592 218.28 30.9869 216.863C30.9852 216.812 30.9832 216.76 30.9832 216.707V208.822C30.9832 208.77 30.9852 208.718 30.9869 208.666C31.0692 207.066 32.4028 205.783 34.0227 205.783H159.627C159.708 205.783 159.788 205.786 159.867 205.793C159.901 205.796 159.936 205.8 159.97 205.803C160.007 205.807 160.045 205.811 160.082 205.818C160.109 205.821 160.136 205.826 160.163 205.832C160.354 205.865 160.541 205.917 160.719 205.988C160.746 205.998 160.771 206.008 160.798 206.02C160.823 206.03 160.85 206.041 160.875 206.053C160.927 206.077 160.978 206.102 161.028 206.127C161.084 206.158 161.139 206.188 161.193 206.221C161.241 206.25 161.289 206.28 161.336 206.312C161.389 206.349 161.442 206.388 161.492 206.428C161.532 206.458 161.571 206.49 161.609 206.524C161.611 206.525 161.615 206.527 161.616 206.53C161.641 206.552 161.668 206.576 161.693 206.599C161.771 206.67 161.845 206.747 161.913 206.826C161.936 206.85 161.955 206.873 161.974 206.897C161.994 206.922 162.012 206.945 162.033 206.971C162.071 207.021 162.11 207.073 162.145 207.125C162.475 207.611 162.666 208.193 162.666 208.822Z" fill="#FFB93E"/>
<path d="M100.988 219.746H33.6966C33.6427 219.746 33.589 219.745 33.537 219.742C33.4783 219.738 33.4209 219.731 33.3639 219.723C32.0703 219.545 31.0541 218.338 30.9869 216.863C30.9852 216.812 30.9832 216.76 30.9832 216.707V208.822C30.9832 208.77 30.9852 208.718 30.9869 208.666C31.0609 207.066 32.25 205.783 33.6966 205.783H92.7224C92.7492 205.897 92.7763 206.011 92.8046 206.127C93.7824 210.172 95.9682 215.604 100.867 219.647C100.907 219.681 100.947 219.713 100.988 219.746Z" fill="#FFA412"/>
<path d="M147.382 205.784H145.955V219.747H147.382V205.784Z" fill="#FFA412"/>
<path d="M142.55 205.784H141.123V219.747H142.55V205.784Z" fill="#FFA412"/>
<path d="M136.755 205.784H135.328V219.747H136.755V205.784Z" fill="#FFA412"/>
<path d="M127.873 205.784H126.445V219.747H127.873V205.784Z" fill="#FFA412"/>
<path d="M118.48 205.784H117.053V219.747H118.48V205.784Z" fill="#FFA412"/>
<path d="M104.081 205.784H102.653V219.747H104.081V205.784Z" fill="#FFA412"/>
<path d="M90.5989 205.784H89.1713V219.747H90.5989V205.784Z" fill="#FFA412"/>
<path d="M78.5599 205.784H77.1324V219.747H78.5599V205.784Z" fill="#FFA412"/>
<path d="M151.982 205.784H150.554V219.747H151.982V205.784Z" fill="#FFA412"/>
<path d="M155.021 205.784H153.593V219.747H155.021V205.784Z" fill="#FFA412"/>
<path d="M157.955 205.784H156.527V219.747H157.955V205.784Z" fill="#FFA412"/>
<path d="M160.163 205.832V219.698C159.988 219.73 159.81 219.747 159.627 219.747H158.735V205.783H159.627C159.81 205.783 159.988 205.8 160.163 205.832Z" fill="#FFA412"/>
<path d="M162.145 207.126V218.404C161.799 218.915 161.302 219.317 160.719 219.542V205.988C161.302 206.213 161.799 206.615 162.145 207.126Z" fill="#FFA412"/>
<path d="M169.156 195.203V203.088C169.156 203.716 168.964 204.299 168.635 204.785C168.289 205.295 167.791 205.697 167.209 205.922C167.03 205.993 166.844 206.045 166.652 206.078C166.478 206.11 166.3 206.127 166.116 206.127H40.5118C40.008 206.127 39.531 206.003 39.111 205.783C38.2223 205.317 37.5871 204.424 37.4864 203.381C37.4812 203.335 37.4781 203.29 37.4764 203.244C37.4747 203.192 37.4729 203.14 37.4729 203.088V195.203C37.4729 195.151 37.4747 195.098 37.4764 195.046C37.5587 193.447 38.8925 192.164 40.5118 192.164H166.116C166.3 192.164 166.478 192.18 166.652 192.212C166.844 192.246 167.03 192.298 167.209 192.369C167.791 192.594 168.289 192.995 168.635 193.506C168.964 193.991 169.156 194.574 169.156 195.203Z" fill="#FFB93E"/>
<path d="M107.477 206.127H40.1859C39.7359 206.127 39.3108 206.003 38.9361 205.783C38.1415 205.317 37.5755 204.424 37.4864 203.381C37.4812 203.335 37.4781 203.29 37.4764 203.244C37.4747 203.192 37.4729 203.14 37.4729 203.088V195.203C37.4729 195.151 37.4747 195.098 37.4764 195.046C37.5502 193.447 38.7414 192.164 40.1859 192.164H99.2136C100.131 196.162 102.234 201.65 107.064 205.783C107.2 205.899 107.338 206.013 107.477 206.127Z" fill="#FFA412"/>
<path d="M153.872 192.164H152.444V206.128H153.872V192.164Z" fill="#FFA412"/>
<path d="M149.04 192.164H147.612V206.128H149.04V192.164Z" fill="#FFA412"/>
<path d="M143.245 192.164H141.818V206.128H143.245V192.164Z" fill="#FFA412"/>
<path d="M134.363 192.164H132.935V206.128H134.363V192.164Z" fill="#FFA412"/>
<path d="M124.97 192.164H123.543V206.128H124.97V192.164Z" fill="#FFA412"/>
<path d="M110.571 192.164H109.143V206.128H110.571V192.164Z" fill="#FFA412"/>
<path d="M97.0888 192.164H95.6612V206.128H97.0888V192.164Z" fill="#FFA412"/>
<path d="M85.0498 192.165H83.6224V206.128H85.0498V192.165Z" fill="#FFA412"/>
<path d="M158.472 192.164H157.044V206.128H158.472V192.164Z" fill="#FFA412"/>
<path d="M161.51 192.164H160.083V206.128H161.51V192.164Z" fill="#FFA412"/>
<path d="M164.445 192.164H163.017V206.128H164.445V192.164Z" fill="#FFA412"/>
<path d="M166.653 192.213V206.079C166.478 206.111 166.3 206.128 166.117 206.128H165.225V192.164H166.117C166.3 192.164 166.478 192.181 166.653 192.213Z" fill="#FFA412"/>
<path d="M168.635 193.506V204.785C168.289 205.296 167.792 205.698 167.209 205.922V192.369C167.792 192.594 168.289 192.995 168.635 193.506Z" fill="#FFA412"/>
<path d="M179.42 181.239V189.125C179.42 189.753 179.228 190.336 178.899 190.821C178.553 191.332 178.056 191.734 177.473 191.959C177.295 192.029 177.108 192.082 176.917 192.115C176.742 192.147 176.564 192.164 176.381 192.164H50.7762C49.1569 192.164 47.8231 190.881 47.7406 189.281C47.7391 189.229 47.7374 189.177 47.7374 189.125V181.239C47.7374 181.187 47.7391 181.135 47.7406 181.083C47.8162 179.605 48.9637 178.395 50.4167 178.222C50.5344 178.207 50.6553 178.2 50.7762 178.2H176.381C176.564 178.2 176.742 178.217 176.917 178.249C177.108 178.283 177.295 178.335 177.473 178.405C178.056 178.63 178.553 179.032 178.899 179.543C179.228 180.028 179.42 180.611 179.42 181.239Z" fill="#FFB93E"/>
<path d="M117.741 192.164H50.4505C49.0056 192.164 47.8144 190.881 47.7406 189.281C47.7391 189.229 47.7374 189.177 47.7374 189.125V181.239C47.7374 181.187 47.7391 181.135 47.7406 181.083C47.8079 179.605 48.8326 178.395 50.1294 178.222C50.2336 178.207 50.3412 178.2 50.4505 178.2H109.478C109.479 178.207 109.481 178.216 109.483 178.222C110.429 182.331 112.626 188.003 117.741 192.164Z" fill="#FFA412"/>
<path d="M164.137 178.2H162.709V192.164H164.137V178.2Z" fill="#FFA412"/>
<path d="M159.304 178.2H157.877V192.164H159.304V178.2Z" fill="#FFA412"/>
<path d="M153.51 178.2H152.082V192.164H153.51V178.2Z" fill="#FFA412"/>
<path d="M144.627 178.2H143.2V192.164H144.627V178.2Z" fill="#FFA412"/>
<path d="M135.235 178.2H133.807V192.164H135.235V178.2Z" fill="#FFA412"/>
<path d="M120.836 178.2H119.408V192.164H120.836V178.2Z" fill="#FFA412"/>
<path d="M107.353 178.2H105.926V192.164H107.353V178.2Z" fill="#FFA412"/>
<path d="M95.3145 178.2H93.8873V192.164H95.3145V178.2Z" fill="#FFA412"/>
<path d="M168.737 178.2H167.309V192.164H168.737V178.2Z" fill="#FFA412"/>
<path d="M171.775 178.2H170.348V192.164H171.775V178.2Z" fill="#FFA412"/>
<path d="M174.709 178.2H173.282V192.164H174.709V178.2Z" fill="#FFA412"/>
<path d="M176.917 178.249V192.115C176.743 192.147 176.565 192.164 176.382 192.164H175.489V178.2H176.382C176.565 178.2 176.743 178.217 176.917 178.249Z" fill="#FFA412"/>
<path d="M178.9 179.543V190.821C178.554 191.332 178.057 191.734 177.474 191.959V178.405C178.057 178.63 178.554 179.032 178.9 179.543Z" fill="#FFA412"/>
<path d="M162.93 167.297V175.183C162.93 175.811 162.738 176.394 162.409 176.879C162.063 177.39 161.566 177.792 160.983 178.017C160.805 178.087 160.618 178.139 160.427 178.173C160.368 178.183 160.309 178.193 160.25 178.2C160.203 178.206 160.156 178.21 160.109 178.213C160.086 178.215 160.062 178.216 160.039 178.218C159.99 178.22 159.941 178.222 159.891 178.222H34.2862C32.6667 178.222 31.3331 176.938 31.2506 175.339C31.2489 175.287 31.2471 175.235 31.2471 175.183V167.297C31.2471 167.245 31.2489 167.193 31.2506 167.141C31.3331 165.541 32.6667 164.258 34.2862 164.258H159.891C159.944 164.258 159.998 164.26 160.052 164.263C160.179 164.27 160.304 164.285 160.427 164.307C160.618 164.34 160.805 164.392 160.983 164.463C161.074 164.498 161.162 164.537 161.246 164.581C161.3 164.608 161.352 164.634 161.403 164.665C161.408 164.666 161.414 164.67 161.42 164.675C161.472 164.705 161.522 164.737 161.572 164.771C161.583 164.775 161.591 164.782 161.598 164.787C161.645 164.817 161.69 164.851 161.734 164.886C161.841 164.967 161.942 165.054 162.036 165.15C162.066 165.179 162.095 165.209 162.122 165.239C162.127 165.244 162.132 165.249 162.137 165.256C162.155 165.274 162.172 165.293 162.189 165.313C162.192 165.316 162.196 165.322 162.199 165.325C162.229 165.36 162.26 165.397 162.288 165.436C162.33 165.489 162.37 165.543 162.409 165.6C162.738 166.086 162.93 166.669 162.93 167.297Z" fill="#FFB93E"/>
<path d="M101.251 178.222H33.9605C32.5156 178.222 31.3244 176.938 31.2506 175.339C31.2489 175.287 31.2471 175.235 31.2471 175.183V167.297C31.2471 167.245 31.2489 167.193 31.2506 167.141C31.3244 165.541 32.5156 164.258 33.9605 164.258H92.9878C93.0114 164.364 93.0365 164.471 93.0651 164.581C94.0444 168.655 96.2518 174.141 101.224 178.2C101.233 178.206 101.243 178.215 101.251 178.222Z" fill="#FFA412"/>
<path d="M147.646 164.259H146.219V178.222H147.646V164.259Z" fill="#FFA412"/>
<path d="M142.814 164.259H141.386V178.222H142.814V164.259Z" fill="#FFA412"/>
<path d="M137.019 164.259H135.591V178.222H137.019V164.259Z" fill="#FFA412"/>
<path d="M128.137 164.259H126.709V178.222H128.137V164.259Z" fill="#FFA412"/>
<path d="M118.744 164.259H117.317V178.222H118.744V164.259Z" fill="#FFA412"/>
<path d="M104.345 164.259H102.917V178.222H104.345V164.259Z" fill="#FFA412"/>
<path d="M90.8626 164.259H89.4351V178.222H90.8626V164.259Z" fill="#FFA412"/>
<path d="M78.8239 164.258H77.3965V178.222H78.8239V164.258Z" fill="#FFA412"/>
<path d="M152.246 164.259H150.818V178.222H152.246V164.259Z" fill="#FFA412"/>
<path d="M155.285 164.259H153.857V178.222H155.285V164.259Z" fill="#FFA412"/>
<path d="M158.219 164.259H156.791V178.222H158.219V164.259Z" fill="#FFA412"/>
<path d="M160.427 164.307V178.173C160.252 178.205 160.074 178.222 159.891 178.222H158.999V164.258H159.891C160.074 164.258 160.252 164.275 160.427 164.307Z" fill="#FFA412"/>
<path d="M162.409 165.6V176.879C162.063 177.39 161.566 177.792 160.983 178.017V164.463C161.566 164.688 162.063 165.09 162.409 165.6Z" fill="#FFA412"/>
<path d="M172.164 153.656V161.542C172.164 162.17 171.973 162.753 171.643 163.239C171.297 163.75 170.8 164.151 170.217 164.376C170.039 164.447 169.853 164.499 169.661 164.532C169.486 164.564 169.308 164.581 169.125 164.581H43.5206C43.0334 164.581 42.5716 164.465 42.1632 164.258C41.2475 163.8 40.5924 162.888 40.4933 161.823C40.49 161.783 40.4869 161.74 40.485 161.698C40.4834 161.646 40.4815 161.594 40.4815 161.542V153.656C40.4815 153.604 40.4834 153.552 40.485 153.5C40.5607 152.02 41.7081 150.812 43.1611 150.639C43.2787 150.624 43.3981 150.617 43.5206 150.617H169.125C169.308 150.617 169.486 150.634 169.661 150.666C169.853 150.7 170.039 150.752 170.217 150.822C170.8 151.048 171.297 151.449 171.643 151.96C171.973 152.445 172.164 153.028 172.164 153.656Z" fill="#FFB93E"/>
<path d="M110.486 164.581H43.1949C42.7598 164.581 42.3481 164.465 41.9838 164.258C41.1652 163.8 40.5823 162.888 40.4933 161.823C40.49 161.783 40.4869 161.74 40.485 161.698C40.4834 161.646 40.4815 161.594 40.4815 161.542V153.656C40.4815 153.604 40.4834 153.552 40.485 153.5C40.5524 152.022 41.5769 150.812 42.874 150.639C42.9781 150.624 43.0855 150.617 43.1949 150.617H102.222C102.224 150.624 102.226 150.633 102.227 150.639C103.148 154.643 105.259 160.131 110.099 164.258C110.225 164.368 110.355 164.475 110.486 164.581Z" fill="#FFA412"/>
<path d="M156.881 150.617H155.453V164.581H156.881V150.617Z" fill="#FFA412"/>
<path d="M152.048 150.617H150.621V164.581H152.048V150.617Z" fill="#FFA412"/>
<path d="M146.254 150.617H144.826V164.581H146.254V150.617Z" fill="#FFA412"/>
<path d="M137.371 150.617H135.943V164.581H137.371V150.617Z" fill="#FFA412"/>
<path d="M127.978 150.617H126.551V164.581H127.978V150.617Z" fill="#FFA412"/>
<path d="M113.579 150.617H112.152V164.581H113.579V150.617Z" fill="#FFA412"/>
<path d="M100.097 150.617H98.67V164.581H100.097V150.617Z" fill="#FFA412"/>
<path d="M88.0586 150.617H86.6307V164.581H88.0586V150.617Z" fill="#FFA412"/>
<path d="M161.48 150.617H160.053V164.581H161.48V150.617Z" fill="#FFA412"/>
<path d="M164.519 150.617H163.092V164.581H164.519V150.617Z" fill="#FFA412"/>
<path d="M167.453 150.617H166.026V164.581H167.453V150.617Z" fill="#FFA412"/>
<path d="M169.661 150.665V164.531C169.486 164.563 169.308 164.58 169.125 164.58H168.233V150.616H169.125C169.308 150.616 169.486 150.633 169.661 150.665Z" fill="#FFA412"/>
<path d="M171.643 151.959V163.238C171.297 163.748 170.8 164.15 170.217 164.375V150.821C170.8 151.046 171.297 151.448 171.643 151.959Z" fill="#FFA412"/>
<path d="M162.93 139.715V147.6C162.93 148.229 162.738 148.812 162.409 149.297C162.063 149.808 161.566 150.209 160.983 150.434C160.805 150.505 160.618 150.557 160.427 150.591C160.368 150.601 160.309 150.611 160.25 150.617C160.218 150.621 160.185 150.624 160.151 150.628C160.119 150.631 160.086 150.632 160.052 150.634C159.998 150.637 159.944 150.639 159.891 150.639H34.2862C32.6667 150.639 31.3331 149.356 31.2506 147.756C31.2489 147.704 31.2471 147.652 31.2471 147.6V139.715C31.2471 139.663 31.2489 139.61 31.2506 139.559C31.3331 137.959 32.6667 136.676 34.2862 136.676H159.891C160.074 136.676 160.252 136.693 160.427 136.724C160.618 136.758 160.805 136.81 160.983 136.881C161.566 137.106 162.063 137.507 162.409 138.018C162.738 138.504 162.93 139.086 162.93 139.715Z" fill="#FFB93E"/>
<path d="M101.251 150.639H33.9605C32.5156 150.639 31.3244 149.356 31.2506 147.756C31.2489 147.704 31.2471 147.652 31.2471 147.6V139.715C31.2471 139.663 31.2489 139.61 31.2506 139.559C31.3244 137.959 32.5156 136.676 33.9605 136.676H92.9878C93.9285 140.78 96.1191 146.451 101.224 150.617C101.233 150.624 101.243 150.632 101.251 150.639Z" fill="#FFA412"/>
<path d="M147.646 136.676H146.219V150.64H147.646V136.676Z" fill="#FFA412"/>
<path d="M142.814 136.676H141.386V150.64H142.814V136.676Z" fill="#FFA412"/>
<path d="M137.019 136.676H135.591V150.64H137.019V136.676Z" fill="#FFA412"/>
<path d="M128.137 136.676H126.709V150.64H128.137V136.676Z" fill="#FFA412"/>
<path d="M118.744 136.676H117.317V150.64H118.744V136.676Z" fill="#FFA412"/>
<path d="M104.345 136.676H102.917V150.64H104.345V136.676Z" fill="#FFA412"/>
<path d="M90.8626 136.676H89.4351V150.64H90.8626V136.676Z" fill="#FFA412"/>
<path d="M78.8245 136.676H77.3965V150.64H78.8245V136.676Z" fill="#FFA412"/>
<path d="M152.246 136.676H150.818V150.64H152.246V136.676Z" fill="#FFA412"/>
<path d="M155.285 136.676H153.857V150.64H155.285V136.676Z" fill="#FFA412"/>
<path d="M158.219 136.676H156.791V150.64H158.219V136.676Z" fill="#FFA412"/>
<path d="M160.427 136.724V150.59C160.252 150.622 160.074 150.639 159.891 150.639H158.999V136.676H159.891C160.074 136.676 160.252 136.693 160.427 136.724Z" fill="#FFA412"/>
<path d="M162.409 138.018V149.297C162.063 149.807 161.566 150.209 160.983 150.434V136.881C161.566 137.106 162.063 137.507 162.409 138.018Z" fill="#FFA412"/>
<path d="M97.779 268.313C125.54 240.552 125.54 195.543 97.779 167.782C70.0181 140.021 25.0088 140.021 -2.75214 167.782C-30.513 195.542 -30.513 240.552 -2.75212 268.313C25.0088 296.074 70.0181 296.074 97.779 268.313Z" fill="#E2810E"/>
<path d="M91.5776 268.313C119.338 240.552 119.338 195.543 91.5775 167.782C63.8166 140.021 18.8073 140.021 -8.95358 167.782C-36.7145 195.542 -36.7145 240.552 -8.95354 268.313C18.8074 296.074 63.8167 296.074 91.5776 268.313Z" fill="#FFB93E"/>
<path d="M41.3119 283.655C24.0121 283.655 7.74756 276.918 -4.48547 264.685C-16.7183 252.452 -23.4553 236.187 -23.4553 218.887C-23.4553 201.587 -16.7183 185.323 -4.48547 173.09C7.74756 160.857 24.0121 154.12 41.3119 154.12C58.6123 154.12 74.8765 160.857 87.1093 173.09C99.3422 185.323 106.079 201.587 106.079 218.887C106.079 236.187 99.3422 252.452 87.1093 264.685C74.8765 276.918 58.6123 283.655 41.3119 283.655ZM41.3119 157.984C25.044 157.984 9.74995 164.319 -1.75324 175.822C-13.2564 187.325 -19.5913 202.62 -19.5913 218.887C-19.5913 235.155 -13.2564 250.45 -1.75324 261.953C9.74995 273.456 25.0442 279.791 41.3119 279.791C57.58 279.791 72.8743 273.456 84.3771 261.953C95.8803 250.45 102.216 235.155 102.216 218.887C102.216 202.62 95.8803 187.325 84.3771 175.822C72.8743 164.319 57.58 157.984 41.3119 157.984Z" fill="#FFA412"/>
<path d="M253.557 241.07C253.557 241.07 245.846 232.073 253.082 226.358C253.082 226.358 258.367 223.158 262.677 223.418C262.677 223.418 256.57 233.659 258.546 234.677C260.522 235.696 264.529 222.775 264.529 222.775C264.529 222.775 276.557 221.609 280.426 223.47C280.426 223.47 270.143 231.884 272.309 232.385C274.475 232.886 285.581 224.627 285.581 224.627C285.581 224.627 296.777 226.532 296.18 233.361C295.582 240.191 291.725 242.299 290.03 242.118C288.334 241.936 278.417 238.15 278.201 239.539C277.985 240.929 283.955 245.469 288.135 245.681C288.135 245.681 280.242 254.385 274.997 251.873C269.751 249.361 269.303 245.379 266.034 243.885C262.764 242.392 259.972 242.396 261.322 243.919C262.672 245.442 268.59 246.922 270.46 250.23C272.33 253.538 274.008 255.769 268.581 254.952C263.154 254.136 254.332 250.165 253.944 245.617C253.557 241.07 253.557 241.07 253.557 241.07Z" fill="#82B378"/>
<path d="M290.679 233.545C290.679 233.545 260.272 232.374 253.557 241.069C253.557 241.069 252.072 245.517 247.502 249.567L246.79 251.508C246.79 251.508 252.059 245.953 253.945 245.617C253.945 245.617 250.996 234.843 290.679 233.545Z" fill="#82B378"/>
<path d="M247.502 249.567C247.502 249.567 240.976 254.394 240.523 263.018L241.707 263.125C241.707 263.125 243.792 254.207 247.559 250.72C251.327 247.233 247.502 249.567 247.502 249.567Z" fill="#82B378"/>
<path d="M226.594 229.755C226.594 229.755 238.862 222.885 233.137 213.562C233.137 213.562 228.557 207.837 223.65 206.365C223.65 206.365 226.267 220.268 223.65 220.595C221.033 220.923 221.851 204.893 221.851 204.893C221.851 204.893 208.929 198.677 203.858 199.168C203.858 199.168 211.873 212.744 209.256 212.417C206.639 212.09 197.643 198.35 197.643 198.35C197.643 198.35 184.394 195.897 182.268 203.748C180.141 211.599 183.576 215.525 185.539 216.015C187.502 216.506 200.096 216.343 199.769 217.978C199.442 219.614 190.937 222.231 186.193 220.759C186.193 220.759 191.428 233.681 198.297 233.026C205.167 232.372 207.294 228.12 211.546 227.792C215.799 227.465 218.907 228.61 216.78 229.755C214.654 230.9 207.457 230.13 204.022 233.05C200.587 235.971 197.806 237.77 204.185 239.078C210.565 240.387 222.014 239.569 224.304 234.662C226.594 229.755 226.594 229.755 226.594 229.755Z" fill="#A8D29F"/>
<path d="M188.319 206.201C188.319 206.201 222.669 217.324 226.594 229.755C226.594 229.755 226.431 235.316 229.866 241.696V244.149C229.866 244.149 226.267 235.807 224.304 234.662C224.304 234.662 231.992 223.867 188.319 206.201Z" fill="#82B378"/>
<path d="M229.866 241.695C229.866 241.695 235.163 249.74 232.143 259.531L230.78 259.165C230.78 259.165 232.103 248.38 229.331 242.956C226.56 237.531 229.866 241.695 229.866 241.695Z" fill="#82B378"/>
<path d="M246.111 220.281C246.111 220.281 229.94 211.225 237.486 198.935C237.486 198.935 243.523 191.389 249.992 189.448C249.992 189.448 246.542 207.775 249.992 208.206C253.442 208.638 252.363 187.508 252.363 187.508C252.363 187.508 269.397 179.314 276.081 179.961C276.081 179.961 265.516 197.857 268.966 197.426C272.415 196.994 284.274 178.883 284.274 178.883C284.274 178.883 301.739 175.649 304.542 185.998C307.345 196.348 302.817 201.523 300.229 202.169C297.642 202.816 281.04 202.6 281.471 204.757C281.902 206.913 293.114 210.363 299.367 208.422C299.367 208.422 292.467 225.455 283.412 224.593C274.356 223.73 271.553 218.124 265.947 217.693C260.341 217.262 256.245 218.771 259.047 220.281C261.851 221.79 271.337 220.775 275.865 224.625C280.393 228.474 284.059 230.846 275.65 232.571C267.241 234.296 252.148 233.218 249.129 226.749C246.111 220.281 246.111 220.281 246.111 220.281Z" fill="#A8D29F"/>
<path d="M296.564 189.233C296.564 189.233 251.285 203.894 246.111 220.281C246.111 220.281 246.327 227.612 241.798 236.02V239.254C241.798 239.254 246.542 228.258 249.129 226.749C249.129 226.749 238.996 212.519 296.564 189.233Z" fill="#82B378"/>
<path d="M241.798 236.02C241.798 236.02 234.816 246.624 238.797 259.531L240.593 259.049C240.593 259.049 238.849 244.832 242.503 237.682C246.156 230.531 241.798 236.02 241.798 236.02Z" fill="#82B378"/>
<path d="M245.566 287.522C263.06 287.522 277.242 273.34 277.242 255.846H213.89C213.89 273.34 228.072 287.522 245.566 287.522Z" fill="#F1A34F"/>
<path d="M253.361 287.279C252.072 287.44 250.759 287.522 249.425 287.522C231.931 287.522 217.75 273.339 217.75 255.845H225.62C225.62 272.007 237.723 285.341 253.361 287.279Z" fill="#FFB973"/>
<path d="M277.679 289.134H213.452C213.452 286.975 215.202 285.226 217.36 285.226H273.772C275.93 285.226 277.679 286.975 277.679 289.134Z" fill="#F1A34F"/>
<path d="M277.963 255.845H212.848V256.817H277.963V255.845Z" fill="#D86713"/>
<path d="M20.293 174.64C25.848 173.714 33.1224 172.92 42.3807 172.92C53.7555 172.92 62.088 175.566 67.3784 180.327C72.2721 184.56 75.182 191.04 75.182 198.976C75.182 207.044 72.8012 213.393 68.3042 218.022C62.2203 224.503 52.3006 227.809 41.0582 227.809C37.6194 227.809 34.445 227.677 31.7998 227.016V262.727H20.293V174.64ZM31.7998 217.625C34.3128 218.286 37.487 218.551 41.3228 218.551C55.2104 218.551 63.6752 211.806 63.6752 199.505C63.6752 187.734 55.3425 182.047 42.6454 182.047C37.6194 182.047 33.7838 182.443 31.7998 182.972V217.625Z" fill="#FFA412"/>
<path d="M59.8208 239.728H10.4156V248.641H59.8208V239.728Z" fill="#FFA412"/>
</svg>
