<svg width="30" height="34" viewBox="0 0 30 34" fill="none" xmlns="http://www.w3.org/2000/svg">
<path d="M25.6066 4.40422C22.7735 1.56413 19.0067 0 15 0C10.9933 0 7.22648 1.56413 4.39341 4.40422C1.56027 7.24445 0 11.0206 0 15.0372C0 22.1232 4.94164 28.2408 11.8067 29.7316L15 34L18.1934 29.7316C25.0584 28.2407 30 22.1232 30 15.0372C30 11.0206 28.4397 7.24445 25.6066 4.40422Z" fill="#82C4B8"/>
<path d="M20.8592 15.3655V9.50842H20.1318V15.3655H17.5678V11.7552H16.8367V15.3655H15.4813L13.0861 10.1726H11.8959L11.5543 8H9.02695L8.68165 10.1726H7.53182V15.3655H6L7.34082 21H19.6323L24 15.3655H20.8592ZM9.67718 8.69946H10.9041L11.1355 10.1726H9.44937L9.67718 8.69946ZM8.2996 10.9109H12.5865L13.3543 12.5677H8.2996V10.9109ZM8.2996 13.2671H13.6813L14.6547 15.3655H8.2996V13.2671ZM19.2906 20.2617H7.9543L6.9184 16.065H22.5416L19.2906 20.2617ZM8.83595 17.0965H9.67718V17.7959H8.83595V17.0965ZM10.827 17.0965H11.6682V17.7959H10.827V17.0965ZM12.818 17.0965H13.6592V17.7959H12.818V17.0965ZM14.809 17.0965H15.6502V17.7959H14.809V17.0965ZM16.8 17.0965H17.6412V17.7959H16.8V17.0965ZM19.6323 17.0965V17.7959H18.791V17.0965H19.6323Z" fill="white"/>
</svg>
