<svg width="30" height="34" viewBox="0 0 30 34" fill="none" xmlns="http://www.w3.org/2000/svg">
<path d="M25.6066 4.40422C22.7735 1.56413 19.0067 0 15 0C10.9933 0 7.22648 1.56413 4.39341 4.40422C1.56027 7.24445 0 11.0206 0 15.0372C0 22.1232 4.94164 28.2408 11.8067 29.7316L15 34L18.1934 29.7316C25.0584 28.2407 30 22.1232 30 15.0372C30 11.0206 28.4397 7.24445 25.6066 4.40422Z" fill="#F19797"/>
<path d="M15.607 14.3959C15.51 14.1422 15.2711 13.9782 14.9984 13.9782C14.7258 13.9782 14.4869 14.1422 14.3899 14.3959L12.7225 18.7232C12.6436 18.9289 12.7495 19.1634 12.9588 19.2458L12.9592 19.246C13.0067 19.264 13.0561 19.2729 13.1054 19.2729C13.1626 19.2729 13.2195 19.2609 13.2731 19.2368C13.372 19.1925 13.4476 19.1123 13.4858 19.0112L14.0311 17.5961H15.9463C15.9536 17.5961 15.9602 17.5955 15.9665 17.5949L16.5111 19.0113C16.5731 19.17 16.7222 19.2724 16.8911 19.2724C16.9372 19.2724 16.9821 19.2645 17.0377 19.246C17.2483 19.1663 17.3544 18.9318 17.2743 18.7232L15.607 14.3959ZM15.6556 16.7854H14.3443L14.9985 15.0818L15.6556 16.7854ZM20.1517 8.98591C20.3777 8.98591 20.5615 9.1684 20.5615 9.39275C20.5615 9.61707 20.3777 9.79956 20.1517 9.79956H11.5033C11.2772 9.79956 11.0934 9.61707 11.0934 9.39275C11.0934 9.1684 11.2772 8.98591 11.5033 8.98591H20.1517ZM20.5902 10.9013H11.3736C10.5151 10.9013 9.81667 10.2081 9.81667 9.35595C9.81667 8.50382 10.5151 7.8106 11.3736 7.8106H20.5902C20.8145 7.8106 20.997 7.62947 20.997 7.40685C20.997 7.1825 20.8131 7 20.587 7H11.3736C10.0648 7 9 8.05689 9 9.35595V19.6441C9 20.9432 10.0648 22 11.3736 22H20.5902C20.8161 22 21 21.8175 21 21.5932V11.3081C21 11.0838 20.8161 10.9013 20.5902 10.9013ZM11.3736 21.1894C10.5151 21.1894 9.81667 20.4962 9.81667 19.6441V11.1331C10.2474 11.5068 10.7976 11.7119 11.3736 11.7119H20.1802V21.1894H11.3736Z" fill="white"/>
</svg>
