<svg width="30" height="34" viewBox="0 0 30 34" fill="none" xmlns="http://www.w3.org/2000/svg">
<path d="M25.6066 4.40422C22.7735 1.56413 19.0067 0 15 0C10.9933 0 7.22648 1.56413 4.39341 4.40422C1.56027 7.24445 0 11.0206 0 15.0372C0 22.1232 4.94164 28.2408 11.8067 29.7316L15 34L18.1934 29.7316C25.0584 28.2407 30 22.1232 30 15.0372C30 11.0206 28.4397 7.24445 25.6066 4.40422Z" fill="#E4BA87"/>
<path d="M22.982 12.7029C22.9395 12.5746 22.8239 12.4789 22.6874 12.459L17.6016 11.732L17.5696 11.669L15.327 7.20009C15.2662 7.07812 15.1378 7 15.0004 7C14.8605 7 14.7353 7.07653 14.6733 7.20009L12.3987 11.732L7.31256 12.459C7.17435 12.4789 7.06127 12.5722 7.01791 12.7029C6.97494 12.8337 7.01061 12.9748 7.11072 13.0712L10.7909 16.5987L9.92191 21.5802C9.89881 21.7133 9.95595 21.8512 10.067 21.9301C10.1801 22.0122 10.3276 22.0226 10.4512 21.958L15.0004 19.6064L19.5491 21.958C19.6018 21.9851 19.6606 21.9995 19.7189 21.9995C19.9212 21.9995 20.0849 21.8384 20.0849 21.6407C20.0849 21.6112 20.0813 21.5817 20.074 21.5531L19.2094 16.5987L22.8896 13.0712C22.9897 12.9748 23.025 12.8337 22.982 12.7029ZM18.5634 16.2168C18.4771 16.2989 18.4382 16.4177 18.4584 16.5341L19.2346 20.9855L15.1702 18.8841C15.0624 18.8283 14.9363 18.8291 14.8309 18.8833L10.7658 20.9855L11.5423 16.5341C11.5626 16.4177 11.5237 16.2989 11.4373 16.2168L8.1487 13.0648L12.6934 12.4151C12.8125 12.3984 12.9151 12.3251 12.9682 12.2182L15.0004 8.16864L17.0326 12.2182C17.0857 12.3251 17.1882 12.3984 17.307 12.4151L21.8516 13.0648L18.5634 16.2168Z" fill="white"/>
</svg>
