<svg width="30" height="34" viewBox="0 0 30 34" fill="none" xmlns="http://www.w3.org/2000/svg">
<path d="M25.6066 4.40422C22.7735 1.56413 19.0067 0 15 0C10.9933 0 7.22648 1.56413 4.39341 4.40422C1.56027 7.24445 0 11.0206 0 15.0372C0 22.1232 4.94164 28.2408 11.8067 29.7316L15 34L18.1934 29.7316C25.0584 28.2407 30 22.1232 30 15.0372C30 11.0206 28.4397 7.24445 25.6066 4.40422Z" fill="#83ABC8"/>
<path d="M23.9263 14.6496C23.4016 13.9596 22.7133 13.3874 21.9363 12.9954C21.5447 12.7982 21.1349 12.647 20.7137 12.5437L22.923 11.4898C23.0501 11.4284 23.1293 11.3045 23.1301 11.1687C23.1328 11.0304 23.0562 10.9057 22.9309 10.8417C22.1538 10.4463 21.2802 10.2268 20.4048 10.208C20.0742 10.2012 19.7278 10.2234 19.3946 10.2738C19.4337 10.2174 19.4555 10.1508 19.4581 10.0833C19.5373 10.0662 19.6104 10.0244 19.6643 9.96204L20.8208 8.60334C20.9104 8.49915 20.9321 8.35141 20.8773 8.22673C20.8208 8.10034 20.6989 8.01664 20.5588 8.00896C19.6843 7.96113 18.7942 8.11144 17.9893 8.44535C17.1435 8.79549 16.4152 9.32582 15.8226 10.0201C15.4885 10.4138 15.2117 10.8425 14.9994 11.2985C14.788 10.8434 14.5121 10.4138 14.1771 10.0201C13.5846 9.32582 12.8562 8.79549 12.0105 8.44535C11.2056 8.11058 10.3171 7.96028 9.44089 8.00896C9.3008 8.01664 9.17898 8.10034 9.12242 8.22673C9.0676 8.35141 9.08935 8.49915 9.17811 8.60334L10.3363 9.96204C10.3902 10.0244 10.4625 10.0671 10.5416 10.0833C10.5442 10.1508 10.566 10.2174 10.6052 10.2738C10.2736 10.2234 9.93601 10.2012 9.59578 10.208C8.71997 10.2268 7.8459 10.4463 7.06886 10.8417C6.94399 10.9049 6.86742 11.0304 6.86916 11.1679C6.8709 11.3054 6.95052 11.4284 7.07669 11.4898L9.28601 12.5437C8.86485 12.647 8.45458 12.7982 8.06344 12.9954C7.28596 13.3874 6.59767 13.9596 6.07384 14.6496C5.98943 14.7606 5.97638 14.9067 6.0399 15.0296C6.10299 15.1526 6.22959 15.2286 6.37012 15.2286H7.80501C7.19633 15.8384 6.72863 16.589 6.45279 17.4003C6.40798 17.5318 6.44191 17.6736 6.54111 17.771C6.63857 17.8675 6.78954 17.9008 6.91876 17.8598L9.66539 16.9716C9.74458 16.9469 9.81245 16.8965 9.8577 16.829C9.93427 16.8572 10.0187 16.858 10.0979 16.8324L11.3196 16.4379C11.3979 16.4123 11.4649 16.361 11.5101 16.2953C11.5858 16.3234 11.6702 16.3243 11.7494 16.2987L13.5036 15.7316L13.1739 23.6234C13.1704 23.7225 13.2069 23.8172 13.2765 23.889C13.347 23.9599 13.4436 24 13.5428 24H16.4569C16.557 24 16.6536 23.9599 16.7241 23.889C16.7946 23.8164 16.8311 23.7216 16.8259 23.6225L16.497 15.7325L18.2503 16.2987C18.3304 16.3243 18.413 16.3217 18.4896 16.2961C18.5349 16.3619 18.6019 16.4131 18.681 16.4379L19.9027 16.8324C19.9802 16.858 20.0663 16.8572 20.142 16.829C20.1873 16.8956 20.2552 16.9469 20.3335 16.9716L23.0814 17.8598C23.2076 17.9016 23.3625 17.8666 23.4591 17.7718C23.5583 17.6736 23.5913 17.531 23.5469 17.4012C23.2702 16.5882 22.803 15.8367 22.1939 15.2286H23.6296C23.7714 15.2286 23.8976 15.1526 23.9594 15.0296C24.0238 14.9058 24.0107 14.7606 23.9263 14.6496ZM19.6608 14.5147C20.4248 14.7615 21.0966 15.1697 21.6578 15.7282C22.012 16.0809 22.3078 16.4814 22.5402 16.9212L20.7616 16.3465L20.7094 16.1279C20.6807 16.0049 20.5867 15.905 20.4649 15.8657C20.3439 15.8264 20.2073 15.852 20.1107 15.934L19.9358 16.0801L19.11 15.8128L19.0578 15.5941C19.0291 15.4729 18.936 15.3721 18.8133 15.332C18.688 15.291 18.5557 15.3183 18.4583 15.4003L18.2834 15.5463L15.8861 14.7709C17.0443 14.2115 18.4157 14.1125 19.6608 14.5147ZM19.7331 8.75022L19.2292 9.33948L19.003 9.30703C18.876 9.28824 18.7472 9.33521 18.6645 9.43257C18.5819 9.52992 18.5566 9.66058 18.5984 9.78185L18.6723 9.99364L18.1442 10.6136C18.0102 10.6666 17.8883 10.7195 17.7709 10.7759C16.9416 11.1713 16.2411 11.7366 15.6895 12.4574C15.5763 12.6052 15.4684 12.7623 15.3684 12.9263L15.3666 12.466C15.5494 11.7341 15.8931 11.068 16.3899 10.4864C16.9051 9.88091 17.5403 9.4189 18.2773 9.11317C18.7393 8.92188 19.2284 8.79976 19.7331 8.75022ZM21.2054 14.4378C20.7981 14.1808 20.3561 13.975 19.8923 13.8255C18.9691 13.5266 17.9814 13.4643 17.0399 13.6376C17.7474 13.2815 18.5131 13.1013 19.3154 13.1013C20.1212 13.1013 20.8886 13.2832 21.5987 13.641C22.0468 13.8665 22.4558 14.1569 22.8169 14.5044H22.0337L21.9145 14.3123C21.8475 14.2047 21.7266 14.1381 21.5987 14.1381C21.4708 14.1381 21.3498 14.2047 21.2837 14.3123L21.2054 14.4378ZM20.1847 11.9894L19.9915 11.8682C19.8836 11.7998 19.7496 11.7913 19.6304 11.8477C19.5138 11.9032 19.4372 12.0116 19.4242 12.1389L19.4024 12.3626L19.3728 12.3771C19.3537 12.3763 19.3345 12.3763 19.3154 12.3763C18.3922 12.3763 17.5107 12.5847 16.6936 12.9963C16.4152 13.1363 16.1463 13.3012 15.8922 13.4865C16.0079 13.279 16.1376 13.08 16.2812 12.8921C16.7598 12.267 17.3697 11.7734 18.0946 11.4275C18.7846 11.0987 19.5199 10.9322 20.2795 10.9322C20.3161 10.9322 20.3526 10.9322 20.3892 10.933C20.8904 10.9433 21.3872 11.0287 21.8684 11.1867L20.1847 11.9894ZM16.0723 23.275H13.9283L13.9735 22.175H16.0271L16.0723 23.275ZM14.0048 21.45L14.0518 20.3056H15.9488L15.9958 21.45H14.0048ZM14.0823 19.5806L14.1293 18.4362H15.8705L15.9174 19.5806H14.0823ZM14.1606 17.712L14.2076 16.5677H15.793L15.84 17.712H14.1606ZM14.238 15.8426L14.2528 15.4899L15.0003 15.2483L15.7478 15.4899L15.7617 15.8426H14.238ZM8.34189 15.7282C8.90314 15.1697 9.5749 14.7615 10.3389 14.5147C10.8488 14.3499 11.3761 14.2662 11.906 14.2662C12.6709 14.2662 13.4297 14.4404 14.1136 14.7709L11.7163 15.5463L11.5414 15.4003C11.4422 15.3174 11.3109 15.2918 11.1856 15.332C11.0637 15.3721 10.9706 15.4729 10.9419 15.5941L10.8897 15.8128L10.0639 16.0801L9.88989 15.934C9.79157 15.852 9.65756 15.8264 9.534 15.8657C9.41131 15.9067 9.31994 16.0041 9.28949 16.1279L9.23815 16.3465L7.45956 16.9212C7.69189 16.4806 7.98774 16.0801 8.34189 15.7282ZM11.7224 9.11317C12.4595 9.4189 13.0947 9.88091 13.6098 10.4864C14.1067 11.0697 14.4512 11.7358 14.6305 12.4455V12.9245C14.5304 12.7614 14.4234 12.6052 14.3103 12.4566C13.7586 11.7375 13.0581 11.1713 12.2289 10.775C12.1105 10.7187 11.9852 10.6649 11.8556 10.6136L11.3274 9.99364L11.4013 9.78185C11.4431 9.66144 11.4179 9.53078 11.3352 9.43171C11.2534 9.33692 11.1255 9.2891 10.9967 9.30618L10.7705 9.33948L10.2667 8.75022C10.7714 8.79976 11.2604 8.92188 11.7224 9.11317ZM11.9052 11.4275C12.63 11.7734 13.24 12.267 13.7186 12.8921C13.8621 13.0808 13.9927 13.279 14.1075 13.4865C13.8534 13.3012 13.5854 13.1363 13.3061 12.9954C12.489 12.5847 11.6067 12.3763 10.6843 12.3763C10.6652 12.3763 10.6461 12.3763 10.6269 12.3771L10.5973 12.3626L10.5756 12.1389C10.5625 12.0125 10.4859 11.9032 10.3693 11.8468C10.251 11.7904 10.117 11.7998 10.0082 11.8682L9.81506 11.9894L8.13131 11.1858C8.61251 11.0287 9.10937 10.9433 9.61144 10.933C10.4076 10.91 11.1821 11.0825 11.9052 11.4275ZM10.6852 13.1013C11.4875 13.1013 12.2524 13.2815 12.9598 13.6376C12.02 13.4634 11.0315 13.5266 10.1074 13.8255C9.64277 13.9758 9.2016 14.1816 8.79437 14.4378L8.71693 14.3123C8.64992 14.2047 8.52897 14.1381 8.40106 14.1381C8.27315 14.1381 8.15263 14.2047 8.08563 14.3123L7.96642 14.5044H7.18241C7.5444 14.1569 7.95337 13.8665 8.4015 13.641C9.11198 13.2832 9.88032 13.1013 10.6852 13.1013Z" fill="white"/>
</svg>
