<svg width="50" height="57" viewBox="0 0 50 57" fill="none" xmlns="http://www.w3.org/2000/svg">
<path d="M42.6776 7.38355C37.9559 2.62222 31.6777 0 25 0C18.3222 0 12.0441 2.62222 7.32235 7.38355C2.60045 12.1451 0 18.4757 0 25.2094C0 37.0889 8.23607 47.3449 19.6778 49.8442L25 57L30.3224 49.8441C41.7639 47.3448 50 37.0889 50 25.2094C50 18.4757 47.3995 12.1451 42.6776 7.38355Z" fill="#C0986D"/>
<path d="M20.8622 15.5968C20.3441 15.1878 19.7737 14.8343 19.1582 14.5361C20.0783 12.7459 23.3844 9.02999 25.1263 9C26.8379 9.02949 30.0596 12.6176 31.0441 14.4409C30.4174 14.7278 29.835 15.0701 29.3045 15.4682C28.4557 14.2147 26.0937 11.1447 25.1263 11.0132C24.124 11.1494 21.6243 14.4404 20.8622 15.5968ZM36.9999 15.5556V14.5239C36.9999 14.2692 36.9235 14.1922 36.6703 14.1922C30.4504 14.1699 25.7015 17.4957 25.9288 24.1023V34.9141H24.0712V24.1023C24.2985 17.4957 19.5496 14.1699 13.3297 14.1922C13.0764 14.1922 13 14.2692 13 14.5239V15.5556V16.1956V34.9141V36.1221V37H19.5684V36.1221V34.9141V19.0792C18.97 18.5317 18.2762 18.089 17.5028 17.7547V34.9141H15.0656V16.2909C19.0892 16.8352 21.8722 19.5104 22.0056 24.1023V34.9141V36.1221V37H27.9944V36.1221V34.9141V24.1023C28.1277 19.5104 30.9108 16.8352 34.9344 16.2909V34.9141H32.4972V17.7547C31.7238 18.089 31.0301 18.5316 30.4316 19.0792V34.9141V36.1221V37H37V36.1221V34.9141V15.5556H36.9999Z" fill="white"/>
</svg>
